<?xml version="1.0" encoding="utf-8"?>
<!-- Generator: Adobe Illustrator 27.3.1, SVG Export Plug-In . SVG Version: 6.00 Build 0)  -->
<svg version="1.1" id="Ebene_1" xmlns="http://www.w3.org/2000/svg" xmlns:xlink="http://www.w3.org/1999/xlink" x="0px" y="0px"
	 viewBox="0 0 1000 1000" style="enable-background:new 0 0 1000 1000;" xml:space="preserve">
<style type="text/css">
	.st0{fill:#CA9E67;}
	.st1{fill:#1A7F35;stroke:#1A7F35;stroke-width:6.0364;stroke-miterlimit:10;}
	.st2{fill:none;stroke:#000000;stroke-width:14.9094;stroke-miterlimit:10;}
	.st3{fill:none;stroke:#1A7F35;stroke-width:24.8491;stroke-miterlimit:10;}
	.st4{fill:none;stroke:#000000;stroke-width:24.8491;stroke-miterlimit:10;}
	.st5{fill:none;stroke:#000000;stroke-width:29.8189;stroke-miterlimit:10;}
	.st6{fill:#FFED00;stroke:#000000;stroke-width:14.9094;stroke-miterlimit:10;}
</style>
<g>
	<g>
		<circle class="st0" cx="155.3" cy="533.41" r="108.6"/>
		<circle cx="123.66" cy="572.95" r="15.15"/>
		<circle cx="171.94" cy="547.45" r="10.34"/>
		<circle cx="188.52" cy="503.54" r="6.24"/>
		<circle cx="116.08" cy="509.77" r="7.58"/>
		<circle cx="154.03" cy="471.13" r="12.34"/>
		<circle cx="167.13" cy="594.76" r="10.69"/>
		<circle cx="220.84" cy="547.45" r="15.15"/>
		<circle cx="82.65" cy="538.18" r="10.38"/>
		<circle cx="210.14" cy="481.82" r="10.69"/>
	</g>
	<path class="st1" d="M553.41,664.62c13.25,0,442.25,1.93,442.25,1.93l-22.09-108.23l-364.26,1.97L553.41,664.62z"/>
	<path class="st2" d="M421.3,649.29"/>
	<path class="st2" d="M831.76,552.97"/>
	<path class="st3" d="M708.49,420.44c0,0,60.46,1.61,129.55,0.01s64.77,132.52,64.77,132.52H708.49V420.44z"/>
	<g>
		<polyline class="st4" points="10.25,446.33 10.25,655.07 551.41,655.07 551.41,446.33 		"/>
		<line class="st4" x1="138.67" y1="655.07" x2="138.67" y2="446.33"/>
		<line class="st4" x1="270.92" y1="653.13" x2="270.92" y2="444.4"/>
		<line class="st4" x1="403.45" y1="653.13" x2="403.45" y2="444.4"/>
	</g>
	<g>
		<polyline class="st5" points="419.28,259.21 419.28,221.52 376.89,179.14 332.17,223.87 332.17,259.21 		"/>
		<g>
			<polyline class="st5" points="375.72,182.58 393.38,75.94 538.06,53.81 563.91,148.54 645.94,454.86 645.94,557.79 			"/>
		</g>
	</g>
	<g>
		<circle class="st0" cx="366.38" cy="321.6" r="108.6"/>
		<circle cx="315.75" cy="320.58" r="15.15"/>
		<circle cx="365.38" cy="343.34" r="10.34"/>
		<circle cx="410.3" cy="329.74" r="6.24"/>
		<circle cx="361.23" cy="276.09" r="7.58"/>
		<circle cx="415" cy="282.65" r="12.34"/>
		<circle cx="324.92" cy="368.35" r="10.69"/>
		<circle cx="395.16" cy="382.12" r="15.15"/>
		<circle cx="318.34" cy="266.88" r="10.38"/>
		<circle cx="440.69" cy="333.67" r="10.69"/>
	</g>
	<path class="st2" d="M447.94,308.38"/>
	<g>
		<circle class="st6" cx="689.99" cy="738.24" r="64.06"/>
		<circle class="st6" cx="859.07" cy="738.24" r="64.06"/>
		<line class="st2" x1="689.99" y1="802.29" x2="859.07" y2="802.29"/>
		<line class="st2" x1="684.92" y1="674.18" x2="859.07" y2="674.18"/>
	</g>
	<g>
		<circle class="st6" cx="181.7" cy="735.54" r="64.06"/>
		<circle class="st6" cx="350.78" cy="735.54" r="64.06"/>
		<line class="st2" x1="181.7" y1="799.6" x2="350.78" y2="799.6"/>
		<line class="st2" x1="176.63" y1="671.48" x2="350.78" y2="671.48"/>
	</g>
	<polyline class="st5" points="427.33,266.88 427.33,229.19 384.95,186.81 	"/>
</g>
</svg>
