<?xml version="1.0" encoding="utf-8"?>
<!-- Generator: Adobe Illustrator 27.3.1, SVG Export Plug-In . SVG Version: 6.00 Build 0)  -->
<svg version="1.1" id="Ebene_1" xmlns="http://www.w3.org/2000/svg" xmlns:xlink="http://www.w3.org/1999/xlink" x="0px" y="0px"
	 viewBox="0 0 1000 1000" style="enable-background:new 0 0 1000 1000;" xml:space="preserve">
<style type="text/css">
	.st0{fill:#BCE4FA;}
	.st1{clip-path:url(#SVGID_00000158024597457548677800000003189240124372949902_);fill:#0F265C;}
	
		.st2{clip-path:url(#SVGID_00000014634758088016170360000002997562229896393867_);fill:url(#SVGID_00000084519994907827776030000010448906807091913112_);}
	.st3{opacity:0.5;clip-path:url(#SVGID_00000176002458496797796190000015402725559248474784_);}
	.st4{filter:url(#Adobe_OpacityMaskFilter);}
	
		.st5{clip-path:url(#SVGID_00000156581874856649051640000008612742287441665214_);fill:url(#SVGID_00000080917355021345691400000011803408986884702113_);}
	
		.st6{clip-path:url(#SVGID_00000156581874856649051640000008612742287441665214_);mask:url(#SVGID_00000011720615893220631610000010330779979573728909_);}
	.st7{clip-path:url(#SVGID_00000140714510612744452610000015086557592295771292_);fill:#509941;}
	.st8{filter:url(#Adobe_OpacityMaskFilter_00000052809350585424822850000001514077636792629149_);}
	
		.st9{clip-path:url(#SVGID_00000176002458496797796190000015402725559248474784_);fill:url(#SVGID_00000078738421672236134550000017764639080597029545_);}
	
		.st10{clip-path:url(#SVGID_00000176002458496797796190000015402725559248474784_);mask:url(#SVGID_00000160152158978976593890000009770836044471038376_);}
	.st11{clip-path:url(#SVGID_00000019680700830666040560000006471747229137801119_);fill:#AAD29A;}
	.st12{filter:url(#Adobe_OpacityMaskFilter_00000012444351565098069770000003180121801588396981_);}
	
		.st13{clip-path:url(#SVGID_00000176002458496797796190000015402725559248474784_);fill:url(#SVGID_00000034779114548060950420000011282663307796686488_);}
	
		.st14{clip-path:url(#SVGID_00000176002458496797796190000015402725559248474784_);mask:url(#SVGID_00000000932823785522866210000015878876625572326573_);}
	.st15{clip-path:url(#SVGID_00000146469244543195253280000013732286898500075447_);fill:#AAD29A;}
	.st16{filter:url(#Adobe_OpacityMaskFilter_00000160892948428096156260000000942723214481854361_);}
	
		.st17{clip-path:url(#SVGID_00000176002458496797796190000015402725559248474784_);fill:url(#SVGID_00000093155244305184879570000010872350915427137174_);}
	
		.st18{clip-path:url(#SVGID_00000176002458496797796190000015402725559248474784_);mask:url(#SVGID_00000066478274541414349170000000505065205373834404_);}
	.st19{clip-path:url(#SVGID_00000161608538095520922970000000507653084176966308_);fill:#AAD29A;}
	.st20{filter:url(#Adobe_OpacityMaskFilter_00000052811114605695562220000015986825889451427997_);}
	
		.st21{clip-path:url(#SVGID_00000176002458496797796190000015402725559248474784_);fill:url(#SVGID_00000147922469202166282660000010009574271771742105_);}
	
		.st22{clip-path:url(#SVGID_00000176002458496797796190000015402725559248474784_);mask:url(#SVGID_00000137831164074628967240000012375283115162230443_);}
	.st23{clip-path:url(#SVGID_00000023971479816933483380000006617977667675668134_);fill:#AAD29A;}
	.st24{filter:url(#Adobe_OpacityMaskFilter_00000095337414831598416120000015178291857869613752_);}
	
		.st25{clip-path:url(#SVGID_00000176002458496797796190000015402725559248474784_);fill:url(#SVGID_00000026865931020150174050000001574967674925098374_);}
	
		.st26{clip-path:url(#SVGID_00000176002458496797796190000015402725559248474784_);mask:url(#SVGID_00000016775421537985829790000018337734160282343091_);}
	.st27{clip-path:url(#SVGID_00000061462480353415290820000002381997399929852596_);fill:#AAD29A;}
	.st28{opacity:0.8;clip-path:url(#SVGID_00000176002458496797796190000015402725559248474784_);}
	.st29{filter:url(#Adobe_OpacityMaskFilter_00000140011310810529590570000014056859990754960552_);}
	
		.st30{clip-path:url(#SVGID_00000168812540803776609540000002126512991094129056_);fill:url(#SVGID_00000037655119355838251250000002515076275378590349_);}
	
		.st31{clip-path:url(#SVGID_00000168812540803776609540000002126512991094129056_);mask:url(#SVGID_00000169546606123416239020000009132310243955769005_);}
	.st32{clip-path:url(#SVGID_00000029757545482156419440000017827154269474344630_);fill:#AAD29A;}
	.st33{filter:url(#Adobe_OpacityMaskFilter_00000114036740723412670980000013750246182238438276_);}
	
		.st34{clip-path:url(#SVGID_00000176002458496797796190000015402725559248474784_);fill:url(#SVGID_00000026160495501444645970000009625857119126567573_);}
	
		.st35{clip-path:url(#SVGID_00000176002458496797796190000015402725559248474784_);mask:url(#SVGID_00000124857967378083252320000004962167137339977349_);}
	.st36{clip-path:url(#SVGID_00000015325669908470458300000002463466045442702997_);fill:#AAD29A;}
	.st37{opacity:0.7;clip-path:url(#SVGID_00000176002458496797796190000015402725559248474784_);}
	.st38{filter:url(#Adobe_OpacityMaskFilter_00000078015564715634484280000010988246176445715116_);}
	
		.st39{clip-path:url(#SVGID_00000155119002803779410170000007615199627392563084_);fill:url(#SVGID_00000134955492733674161660000015240986372668445325_);}
	
		.st40{clip-path:url(#SVGID_00000155119002803779410170000007615199627392563084_);mask:url(#SVGID_00000073687530082922404140000002315069009684438168_);}
	.st41{clip-path:url(#SVGID_00000173847575669587242260000011552911122095568569_);fill:#AAD29A;}
	.st42{filter:url(#Adobe_OpacityMaskFilter_00000039128682727350361750000002244957673570760606_);}
	
		.st43{clip-path:url(#SVGID_00000176002458496797796190000015402725559248474784_);fill:url(#SVGID_00000177458729519567754680000005786596054711438008_);}
	
		.st44{clip-path:url(#SVGID_00000176002458496797796190000015402725559248474784_);mask:url(#SVGID_00000042718292828831960590000012021637983088990121_);}
	.st45{clip-path:url(#SVGID_00000021116251270679524460000002474160899646056355_);fill:#AAD29A;}
	.st46{opacity:0.6;clip-path:url(#SVGID_00000176002458496797796190000015402725559248474784_);}
	.st47{filter:url(#Adobe_OpacityMaskFilter_00000133500184286931060610000016923747475350759068_);}
	
		.st48{clip-path:url(#SVGID_00000142880962872597673330000003215033717495357598_);fill:url(#SVGID_00000165233886227368145610000013682519322360247710_);}
	
		.st49{clip-path:url(#SVGID_00000142880962872597673330000003215033717495357598_);mask:url(#SVGID_00000110442475334964837440000008407155470649022363_);}
	.st50{clip-path:url(#SVGID_00000137100562096801283400000005484085118762743718_);fill:#AAD29A;}
	.st51{filter:url(#Adobe_OpacityMaskFilter_00000138550549658288957140000006748666620177237180_);}
	.st52{fill:url(#SVGID_00000059296975435465285140000001723257250383399589_);}
	.st53{mask:url(#SVGID_00000084526278638158125650000009171463588511857853_);}
</style>
<g>
	<path class="st0" d="M997.31,506.1c0-155.41-71.31-294.12-182.97-385.32l-39.98,105.5c-11.15-6.49-25.3-13.23-42.47-20.18
		c-17.2-6.95-36.91-13-59.18-18.09c-22.29-5.1-45.95-9.26-71.02-12.54c-25.04-3.24-50.61-4.86-76.58-4.86
		c-46.44,0-82.4,8.14-107.9,24.35c-25.54,16.27-38.3,38.77-38.3,67.54s12.07,51.74,36.22,68.9c24.12,17.2,54.05,32.98,89.81,47.36
		c35.73,14.39,74.49,28.78,116.27,43.14c41.75,14.42,80.51,32.98,116.24,55.7c35.73,22.76,65.66,51.3,89.81,85.64
		c24.15,34.37,36.22,78.46,36.22,132.28c0,53.85-9.29,100.26-27.85,139.23c-18.59,39-44.79,71.25-78.66,96.79
		c-1.39,1.01-2.95,1.88-4.34,2.9C899.05,847.9,997.31,688.52,997.31,506.1"/>
	<g>
		<defs>
			<path id="SVGID_1_" d="M774.36,226.27c-11.18-6.49-25.3-13.23-42.47-20.18c-17.2-6.95-36.91-12.97-59.18-18.09
				c-22.29-5.1-45.95-9.26-71.02-12.54c-25.07-3.24-50.61-4.86-76.58-4.86c-46.44,0-82.4,8.14-107.93,24.38
				c-25.54,16.21-38.27,38.77-38.27,67.52c0,28.78,12.04,51.77,36.19,68.93c24.15,17.17,54.08,32.95,89.84,47.31
				c35.7,14.42,74.49,28.81,116.24,43.2c41.78,14.39,80.51,32.95,116.27,55.7c35.73,22.73,65.66,51.27,89.81,85.61
				c24.15,34.34,36.22,78.46,36.22,132.28c0,53.85-9.32,100.26-27.88,139.23c-18.56,39-44.79,71.28-78.66,96.79
				c-1.36,1.04-2.9,1.91-4.31,2.9c146.44-86.54,244.7-245.94,244.7-428.34c0-155.41-71.34-294.12-182.97-385.32L774.36,226.27z"/>
		</defs>
		<use xlink:href="#SVGID_1_"  style="overflow:visible;fill:#0F265C;"/>
		<clipPath id="SVGID_00000054264790951430724720000012681712759140627347_">
			<use xlink:href="#SVGID_1_"  style="overflow:visible;"/>
		</clipPath>
		<path style="clip-path:url(#SVGID_00000054264790951430724720000012681712759140627347_);fill:#0F265C;" d="M376.57,190.36
			c-16.65,4.46-26.55,21.6-22.09,38.24l23.89,89.06c4.46,16.65,21.57,26.55,38.22,22.09l88.79-23.8
			c16.68-4.46,26.55-21.6,22.09-38.25l-23.86-89.05c-4.49-16.65-21.6-26.55-38.25-22.09L376.57,190.36z"/>
		<path style="clip-path:url(#SVGID_00000054264790951430724720000012681712759140627347_);fill:#0F265C;" d="M536.99,147.37
			c-16.65,4.46-26.55,21.6-22.09,38.24l23.89,89.06c4.46,16.65,21.57,26.55,38.22,22.09l88.79-23.8
			c16.68-4.46,26.55-21.6,22.09-38.25l-23.86-89.05c-4.49-16.65-21.6-26.55-38.25-22.09L536.99,147.37z"/>
		<path style="clip-path:url(#SVGID_00000054264790951430724720000012681712759140627347_);fill:#0F265C;" d="M697.42,104.39
			c-16.65,4.46-26.55,21.6-22.09,38.24l23.89,89.06c4.46,16.65,21.57,26.55,38.22,22.09l88.79-23.8
			c16.68-4.46,26.55-21.6,22.09-38.25l-23.86-89.05c-4.49-16.65-21.6-26.55-38.25-22.09L697.42,104.39z"/>
		<path style="clip-path:url(#SVGID_00000054264790951430724720000012681712759140627347_);fill:#0F265C;" d="M857.84,61.4
			C841.2,65.86,831.3,83,835.75,99.64l23.89,89.06c4.46,16.65,21.57,26.55,38.22,22.09l88.79-23.8
			c16.68-4.46,26.55-21.6,22.09-38.25l-23.86-89.05c-4.49-16.65-21.6-26.55-38.24-22.09L857.84,61.4z"/>
		<path style="clip-path:url(#SVGID_00000054264790951430724720000012681712759140627347_);fill:#0F265C;" d="M419.63,351.07
			c-16.65,4.46-26.55,21.6-22.09,38.24l23.89,89.06c4.46,16.65,21.57,26.55,38.22,22.09l88.79-23.8
			c16.68-4.46,26.55-21.6,22.09-38.24l-23.86-89.05c-4.49-16.65-21.6-26.55-38.25-22.09L419.63,351.07z"/>
		<path style="clip-path:url(#SVGID_00000054264790951430724720000012681712759140627347_);fill:#0F265C;" d="M580.05,308.09
			c-16.65,4.46-26.55,21.6-22.09,38.24l23.89,89.06c4.46,16.65,21.57,26.55,38.22,22.09l88.79-23.8
			c16.68-4.46,26.55-21.6,22.09-38.25l-23.86-89.05c-4.49-16.65-21.6-26.55-38.25-22.09L580.05,308.09z"/>
		<path style="clip-path:url(#SVGID_00000054264790951430724720000012681712759140627347_);fill:#0F265C;" d="M740.48,265.1
			c-16.65,4.46-26.55,21.6-22.09,38.24l23.89,89.06c4.46,16.65,21.57,26.55,38.22,22.09l88.79-23.8
			c16.68-4.46,26.55-21.6,22.09-38.25l-23.86-89.05c-4.49-16.65-21.6-26.55-38.25-22.09L740.48,265.1z"/>
		<path style="clip-path:url(#SVGID_00000054264790951430724720000012681712759140627347_);fill:#0F265C;" d="M900.91,222.11
			c-16.65,4.46-26.55,21.6-22.09,38.24l23.89,89.06c4.46,16.65,21.57,26.55,38.22,22.09l88.79-23.8
			c16.68-4.46,26.55-21.6,22.09-38.25l-23.86-89.05c-4.49-16.65-21.6-26.55-38.24-22.09L900.91,222.11z"/>
		<path style="clip-path:url(#SVGID_00000054264790951430724720000012681712759140627347_);fill:#0F265C;" d="M623.12,468.8
			c-16.65,4.46-26.55,21.6-22.09,38.24l23.89,89.06c4.46,16.65,21.57,26.55,38.22,22.06l88.79-23.77
			c16.68-4.46,26.55-21.6,22.09-38.24l-23.86-89.06c-4.49-16.65-21.6-26.55-38.25-22.09L623.12,468.8z"/>
		<path style="clip-path:url(#SVGID_00000054264790951430724720000012681712759140627347_);fill:#0F265C;" d="M783.55,425.81
			c-16.65,4.46-26.55,21.6-22.09,38.24l23.89,89.06c4.46,16.65,21.57,26.55,38.22,22.06l88.79-23.77
			c16.68-4.46,26.55-21.6,22.09-38.24l-23.86-89.06c-4.49-16.65-21.6-26.55-38.25-22.09L783.55,425.81z"/>
		<path style="clip-path:url(#SVGID_00000054264790951430724720000012681712759140627347_);fill:#0F265C;" d="M943.97,382.83
			c-16.65,4.46-26.55,21.6-22.09,38.24l23.89,89.06c4.46,16.65,21.57,26.55,38.22,22.06l88.79-23.77
			c16.68-4.46,26.55-21.6,22.09-38.24l-23.86-89.05c-4.49-16.65-21.6-26.55-38.24-22.09L943.97,382.83z"/>
		<path style="clip-path:url(#SVGID_00000054264790951430724720000012681712759140627347_);fill:#0F265C;" d="M709.24,790.23
			c-16.65,4.46-26.55,21.57-22.09,38.24l23.89,89.05c4.46,16.65,21.57,26.55,38.22,22.06l88.79-23.77
			c16.68-4.46,26.55-21.6,22.09-38.24l-23.86-89.06c-4.49-16.68-21.6-26.55-38.25-22.09L709.24,790.23z"/>
		<path style="clip-path:url(#SVGID_00000054264790951430724720000012681712759140627347_);fill:#0F265C;" d="M826.61,586.53
			c-16.65,4.46-26.55,21.57-22.09,38.24l23.89,89.05c4.46,16.65,21.57,26.55,38.22,22.06l88.79-23.77
			c16.68-4.46,26.55-21.6,22.09-38.24l-23.86-89.06c-4.49-16.68-21.6-26.55-38.24-22.09L826.61,586.53z"/>
		<path style="clip-path:url(#SVGID_00000054264790951430724720000012681712759140627347_);fill:#0F265C;" d="M869.67,747.25
			c-16.65,4.46-26.55,21.57-22.09,38.24l23.89,89.05c4.46,16.65,21.57,26.55,38.22,22.06l88.79-23.77
			c16.68-4.46,26.55-21.6,22.09-38.24l-23.86-89.05c-4.49-16.68-21.6-26.55-38.24-22.09L869.67,747.25z"/>
		<path style="clip-path:url(#SVGID_00000054264790951430724720000012681712759140627347_);fill:#0F265C;" d="M987.03,543.55
			c-16.65,4.46-26.55,21.57-22.09,38.24l23.89,89.05c4.46,16.65,21.57,26.55,38.22,22.06l88.79-23.77
			c16.68-4.46,26.55-21.6,22.09-38.24l-23.86-89.05c-4.49-16.68-21.6-26.55-38.24-22.09L987.03,543.55z"/>
	</g>
	<g>
		<defs>
			<path id="SVGID_00000129194689927203293660000013866755667665962403_" d="M2.68,506.09c0,149.88,66.41,284.19,171.31,375.36
				l43.4-110.74c10.22,5.59,24.38,11.61,42.47,18.09c18.09,6.51,38.27,12.8,60.57,18.79c22.26,6.05,46.15,10.91,71.68,14.62
				c25.54,3.73,51.3,5.59,77.3,5.59c61.26,0,107.93-8.8,139.95-26.46c32.02-17.63,48-45.02,48-82.14
				c0-28.78-12.04-51.53-36.19-68.24c-24.15-16.71-54.08-32.05-89.81-45.95c-35.76-13.93-74.49-27.85-116.27-41.78
				c-41.75-13.9-80.54-32.48-116.27-55.7c-35.73-23.19-65.69-52.43-89.81-87.69c-24.12-35.29-36.19-81.24-36.19-137.84
				c0-48.26,8.57-90.73,25.77-127.42c16.82-35.93,40.45-65.58,70.67-89.03C110.82,148.74,2.68,314.75,2.68,506.09"/>
		</defs>
		<clipPath id="SVGID_00000029735266530864477290000007667525745328380086_">
			<use xlink:href="#SVGID_00000129194689927203293660000013866755667665962403_"  style="overflow:visible;"/>
		</clipPath>
		
			<linearGradient id="SVGID_00000120528949511562670500000004877018755464710824_" gradientUnits="userSpaceOnUse" x1="183.9074" y1="901.9026" x2="212.8582" y2="901.9026" gradientTransform="matrix(-22.6136 0 0 22.6136 4816.1787 -19921.7773)">
			<stop  offset="0" style="stop-color:#4F9841"/>
			<stop  offset="0.3407" style="stop-color:#4F9841"/>
			<stop  offset="1" style="stop-color:#0B6822"/>
		</linearGradient>
		
			<rect x="2.68" y="65.56" style="clip-path:url(#SVGID_00000029735266530864477290000007667525745328380086_);fill:url(#SVGID_00000120528949511562670500000004877018755464710824_);" width="654.68" height="815.88"/>
	</g>
	<g>
		<defs>
			<path id="SVGID_00000102535813241271521270000003406506578219663276_" d="M2.68,506.09c0,149.88,66.41,284.19,171.31,375.36
				l43.4-110.74c10.22,5.59,24.38,11.61,42.47,18.09c18.09,6.51,38.27,12.8,60.57,18.79c22.26,6.05,46.15,10.91,71.68,14.62
				c25.54,3.73,51.3,5.59,77.3,5.59c61.26,0,107.93-8.8,139.95-26.46c32.02-17.63,48-45.02,48-82.14
				c0-28.78-12.04-51.53-36.19-68.24c-24.15-16.71-54.08-32.05-89.81-45.95c-35.76-13.93-74.49-27.85-116.27-41.78
				c-41.75-13.9-80.54-32.48-116.27-55.7c-35.73-23.19-65.69-52.43-89.81-87.69c-24.12-35.29-36.19-81.24-36.19-137.84
				c0-48.26,8.57-90.73,25.77-127.42c16.82-35.93,40.45-65.58,70.67-89.03C110.82,148.74,2.68,314.75,2.68,506.09"/>
		</defs>
		<clipPath id="SVGID_00000072261629151785773350000015866264855816844712_">
			<use xlink:href="#SVGID_00000102535813241271521270000003406506578219663276_"  style="overflow:visible;"/>
		</clipPath>
		<g style="opacity:0.5;clip-path:url(#SVGID_00000072261629151785773350000015866264855816844712_);">
			<g>
				<defs>
					
						<rect id="SVGID_00000177450215739507611690000005465007217812980414_" x="-154.58" y="-138.74" width="1128.16" height="915.18"/>
				</defs>
				<clipPath id="SVGID_00000109734057013617632410000014974935604949079714_">
					<use xlink:href="#SVGID_00000177450215739507611690000005465007217812980414_"  style="overflow:visible;"/>
				</clipPath>
				<defs>
					<filter id="Adobe_OpacityMaskFilter" filterUnits="userSpaceOnUse" x="-154.58" y="-138.74" width="1128.16" height="915.18">
						<feFlood  style="flood-color:white;flood-opacity:1" result="back"/>
						<feBlend  in="SourceGraphic" in2="back" mode="normal"/>
					</filter>
				</defs>
				
					<mask maskUnits="userSpaceOnUse" x="-154.58" y="-138.74" width="1128.16" height="915.18" id="SVGID_00000155126034422345098380000008456692437396540330_">
					<g class="st4">
						
							<linearGradient id="SVGID_00000014613268895245194980000013285875645993775291_" gradientUnits="userSpaceOnUse" x1="205.3855" y1="945.857" x2="234.3371" y2="945.857" gradientTransform="matrix(23.3847 0 0 -23.3847 -4534.9316 22437.4316)">
							<stop  offset="0" style="stop-color:#FFFFFF"/>
							<stop  offset="0.795" style="stop-color:#000000"/>
							<stop  offset="0.971" style="stop-color:#000000"/>
							<stop  offset="1" style="stop-color:#000000"/>
						</linearGradient>
						
							<rect x="-154.58" y="-138.74" style="clip-path:url(#SVGID_00000109734057013617632410000014974935604949079714_);fill:url(#SVGID_00000014613268895245194980000013285875645993775291_);" width="1128.16" height="915.19"/>
					</g>
				</mask>
				
					<g style="clip-path:url(#SVGID_00000109734057013617632410000014974935604949079714_);mask:url(#SVGID_00000155126034422345098380000008456692437396540330_);">
					<g>
						<defs>
							
								<rect id="SVGID_00000108292321611409489930000012381001960944444058_" x="-154.58" y="-138.74" width="1128.16" height="915.18"/>
						</defs>
						<clipPath id="SVGID_00000132088381306609912730000016356906927861507735_">
							<use xlink:href="#SVGID_00000108292321611409489930000012381001960944444058_"  style="overflow:visible;"/>
						</clipPath>
						<path style="clip-path:url(#SVGID_00000132088381306609912730000016356906927861507735_);fill:#509941;" d="M269.66,65.42
							c-341.34,238.24-119.51,711.43,394.7,680.65C838.65,484.64,506.63,34.64,269.66,65.42"/>
					</g>
				</g>
			</g>
		</g>
		<defs>
			
				<filter id="Adobe_OpacityMaskFilter_00000150823862630714190500000005291904468791019695_" filterUnits="userSpaceOnUse" x="-248.83" y="293.64" width="1103.77" height="1164.53">
				<feFlood  style="flood-color:white;flood-opacity:1" result="back"/>
				<feBlend  in="SourceGraphic" in2="back" mode="normal"/>
			</filter>
		</defs>
		
			<mask maskUnits="userSpaceOnUse" x="-248.83" y="293.64" width="1103.77" height="1164.53" id="SVGID_00000067225611022351853470000006887988239737500848_">
			<g style="filter:url(#Adobe_OpacityMaskFilter_00000150823862630714190500000005291904468791019695_);">
				
					<linearGradient id="SVGID_00000077295100169949420170000010342144507322932869_" gradientUnits="userSpaceOnUse" x1="189.4392" y1="899.9783" x2="218.3907" y2="899.9783" gradientTransform="matrix(20.8418 2.9291 -2.9291 20.8418 -1332.7227 -18887.8184)">
					<stop  offset="0" style="stop-color:#FFFFFF"/>
					<stop  offset="0.63" style="stop-color:#000000"/>
					<stop  offset="0.9477" style="stop-color:#000000"/>
					<stop  offset="1" style="stop-color:#000000"/>
				</linearGradient>
				
					<polygon style="clip-path:url(#SVGID_00000072261629151785773350000015866264855816844712_);fill:url(#SVGID_00000077295100169949420170000010342144507322932869_);" points="
					-109.76,865.65 644.69,971.68 769.81,81.37 15.37,-24.66 				"/>
			</g>
		</mask>
		
			<g style="clip-path:url(#SVGID_00000072261629151785773350000015866264855816844712_);mask:url(#SVGID_00000067225611022351853470000006887988239737500848_);">
			<g>
				<defs>
					
						<rect id="SVGID_00000052070356435748299840000017961213083881198242_" x="-248.83" y="293.64" width="1103.77" height="1164.53"/>
				</defs>
				<clipPath id="SVGID_00000122705812507300034740000018057164610061745845_">
					<use xlink:href="#SVGID_00000052070356435748299840000017961213083881198242_"  style="overflow:visible;"/>
				</clipPath>
				<path style="clip-path:url(#SVGID_00000122705812507300034740000018057164610061745845_);fill:#AAD29A;" d="M245.23,626.1
					C198.59,638.87,2.47,699.29-55.03,826.85c-50.32,111.61,420.61,238.5,420.61,238.5l73.16-341.05
					C362.02,703.26,296.94,669.01,245.23,626.1"/>
			</g>
		</g>
		<defs>
			
				<filter id="Adobe_OpacityMaskFilter_00000174570082712509075180000015470890108319183508_" filterUnits="userSpaceOnUse" x="-544.67" y="318.15" width="991.06" height="1039.37">
				<feFlood  style="flood-color:white;flood-opacity:1" result="back"/>
				<feBlend  in="SourceGraphic" in2="back" mode="normal"/>
			</filter>
		</defs>
		
			<mask maskUnits="userSpaceOnUse" x="-544.67" y="318.15" width="991.06" height="1039.37" id="SVGID_00000123432891904275066470000009769590193255038900_">
			<g style="filter:url(#Adobe_OpacityMaskFilter_00000174570082712509075180000015470890108319183508_);">
				
					<linearGradient id="SVGID_00000124121134455955165350000011478759030208202165_" gradientUnits="userSpaceOnUse" x1="171.8303" y1="912.8755" x2="200.7819" y2="912.8755" gradientTransform="matrix(8.1909 13.1081 -13.1081 8.1909 10609.7188 -9314.4766)">
					<stop  offset="0" style="stop-color:#FFFFFF"/>
					<stop  offset="0.165" style="stop-color:#FFFFFF"/>
					<stop  offset="0.71" style="stop-color:#000000"/>
					<stop  offset="0.959" style="stop-color:#000000"/>
					<stop  offset="1" style="stop-color:#000000"/>
				</linearGradient>
				
					<polygon style="clip-path:url(#SVGID_00000072261629151785773350000015866264855816844712_);fill:url(#SVGID_00000124121134455955165350000011478759030208202165_);" points="
					-512.44,445.14 38.06,1326.12 875.56,802.8 325.06,-78.18 				"/>
			</g>
		</mask>
		
			<g style="clip-path:url(#SVGID_00000072261629151785773350000015866264855816844712_);mask:url(#SVGID_00000123432891904275066470000009769590193255038900_);">
			<g>
				<defs>
					
						<rect id="SVGID_00000052822728189694088330000001661773892770681275_" x="-544.67" y="318.15" width="991.06" height="1039.37"/>
				</defs>
				<clipPath id="SVGID_00000129890566145025968900000014770161372048249755_">
					<use xlink:href="#SVGID_00000052822728189694088330000001661773892770681275_"  style="overflow:visible;"/>
				</clipPath>
				<path style="clip-path:url(#SVGID_00000129890566145025968900000014770161372048249755_);fill:#AAD29A;" d="M-2.11,657.39
					c0,0-256.74-13.26-306.51,89.11c-64.24,132.13,166.7,203.88,166.7,203.88l247.77-166.56C59.44,747.29,22.93,704.18-2.11,657.39"
					/>
			</g>
		</g>
		<defs>
			
				<filter id="Adobe_OpacityMaskFilter_00000001651306961903348630000014076879620343423618_" filterUnits="userSpaceOnUse" x="-464.01" y="16.68" width="985.55" height="985.54">
				<feFlood  style="flood-color:white;flood-opacity:1" result="back"/>
				<feBlend  in="SourceGraphic" in2="back" mode="normal"/>
			</filter>
		</defs>
		
			<mask maskUnits="userSpaceOnUse" x="-464.01" y="16.68" width="985.55" height="985.54" id="SVGID_00000168115494413631522160000001737105322138056331_">
			<g style="filter:url(#Adobe_OpacityMaskFilter_00000001651306961903348630000014076879620343423618_);">
				
					<linearGradient id="SVGID_00000088093217203869434550000010327799182004695196_" gradientUnits="userSpaceOnUse" x1="157.2561" y1="910.8873" x2="186.2077" y2="910.8873" gradientTransform="matrix(0 12.564 -12.564 0 11774.4346 -1664.8357)">
					<stop  offset="0" style="stop-color:#FFFFFF"/>
					<stop  offset="0.5" style="stop-color:#000000"/>
					<stop  offset="0.9293" style="stop-color:#000000"/>
					<stop  offset="1" style="stop-color:#000000"/>
				</linearGradient>
				
					<rect x="2.68" y="65.56" style="clip-path:url(#SVGID_00000072261629151785773350000015866264855816844712_);fill:url(#SVGID_00000088093217203869434550000010327799182004695196_);" width="654.68" height="815.88"/>
			</g>
		</mask>
		
			<g style="clip-path:url(#SVGID_00000072261629151785773350000015866264855816844712_);mask:url(#SVGID_00000168115494413631522160000001737105322138056331_);">
			<g>
				<defs>
					<rect id="SVGID_00000005964826471674042910000017465362676080650636_" x="-464.01" y="16.68" width="985.55" height="985.54"/>
				</defs>
				<clipPath id="SVGID_00000017483473476223535930000005557148135311700871_">
					<use xlink:href="#SVGID_00000005964826471674042910000017465362676080650636_"  style="overflow:visible;"/>
				</clipPath>
				<path style="clip-path:url(#SVGID_00000017483473476223535930000005557148135311700871_);fill:#AAD29A;" d="M107.29,375.29
					c0,0-193.98-73.94-285.4-20.32c-81.93,48.06,101.3,261.58,101.3,261.58l224.17-107.93
					C124.43,466.35,110.93,421.12,107.29,375.29"/>
			</g>
		</g>
		<defs>
			
				<filter id="Adobe_OpacityMaskFilter_00000108288973319334320030000007572435416568986542_" filterUnits="userSpaceOnUse" x="-377.87" y="-6.74" width="886.12" height="825.7">
				<feFlood  style="flood-color:white;flood-opacity:1" result="back"/>
				<feBlend  in="SourceGraphic" in2="back" mode="normal"/>
			</filter>
		</defs>
		
			<mask maskUnits="userSpaceOnUse" x="-377.87" y="-6.74" width="886.12" height="825.7" id="SVGID_00000016037511632391310070000005147529618036665254_">
			<g style="filter:url(#Adobe_OpacityMaskFilter_00000108288973319334320030000007572435416568986542_);">
				
					<linearGradient id="SVGID_00000093879713097083688900000010637166813601197209_" gradientUnits="userSpaceOnUse" x1="148.2045" y1="921.6304" x2="177.1561" y2="921.6304" gradientTransform="matrix(-3.513 10.812 -10.812 -3.513 10876.0596 1921.8077)">
					<stop  offset="0" style="stop-color:#FFFFFF"/>
					<stop  offset="0.025" style="stop-color:#FFFFFF"/>
					<stop  offset="0.49" style="stop-color:#000000"/>
					<stop  offset="0.9279" style="stop-color:#000000"/>
					<stop  offset="1" style="stop-color:#000000"/>
				</linearGradient>
				
					<polygon style="clip-path:url(#SVGID_00000072261629151785773350000015866264855816844712_);fill:url(#SVGID_00000093879713097083688900000010637166813601197209_);" points="
					65.2,-126.84 -237.1,803.54 594.85,1073.85 897.15,143.47 				"/>
			</g>
		</mask>
		
			<g style="clip-path:url(#SVGID_00000072261629151785773350000015866264855816844712_);mask:url(#SVGID_00000016037511632391310070000005147529618036665254_);">
			<g>
				<defs>
					<rect id="SVGID_00000052806628830725772060000018410369931026272433_" x="-377.87" y="-6.74" width="886.12" height="825.7"/>
				</defs>
				<clipPath id="SVGID_00000149341732970976894840000016887991489949345959_">
					<use xlink:href="#SVGID_00000052806628830725772060000018410369931026272433_"  style="overflow:visible;"/>
				</clipPath>
				<path style="clip-path:url(#SVGID_00000149341732970976894840000016887991489949345959_);fill:#AAD29A;" d="M116.46,271.81
					c0,0-60.68-52.78-118.38-56.86c-65.69-4.69-65.92,216.96-65.92,216.96l178.8-27.5C103.34,360.49,104.85,315.64,116.46,271.81"/>
			</g>
		</g>
		<defs>
			
				<filter id="Adobe_OpacityMaskFilter_00000088111400443324118750000017379094096757821622_" filterUnits="userSpaceOnUse" x="-176.3" y="-16.06" width="878.67" height="806.65">
				<feFlood  style="flood-color:white;flood-opacity:1" result="back"/>
				<feBlend  in="SourceGraphic" in2="back" mode="normal"/>
			</filter>
		</defs>
		
			<mask maskUnits="userSpaceOnUse" x="-176.3" y="-16.06" width="878.67" height="806.65" id="SVGID_00000124161733570776587580000003393416816575658653_">
			<g style="filter:url(#Adobe_OpacityMaskFilter_00000088111400443324118750000017379094096757821622_);">
				
					<linearGradient id="SVGID_00000010309865912507683390000013615793175556312488_" gradientUnits="userSpaceOnUse" x1="126.8993" y1="887.7952" x2="155.8508" y2="887.7952" gradientTransform="matrix(3.3957 7.6268 -7.6268 3.3957 6543.4697 -3793.5779)">
					<stop  offset="0" style="stop-color:#FFFFFF"/>
					<stop  offset="0.045" style="stop-color:#FFFFFF"/>
					<stop  offset="0.5" style="stop-color:#000000"/>
					<stop  offset="0.9293" style="stop-color:#000000"/>
					<stop  offset="1" style="stop-color:#000000"/>
				</linearGradient>
				
					<polygon style="clip-path:url(#SVGID_00000072261629151785773350000015866264855816844712_);fill:url(#SVGID_00000010309865912507683390000013615793175556312488_);" points="
					-300.48,200.54 110.99,1124.71 960.53,746.47 549.06,-177.7 				"/>
			</g>
		</mask>
		
			<g style="clip-path:url(#SVGID_00000072261629151785773350000015866264855816844712_);mask:url(#SVGID_00000124161733570776587580000003393416816575658653_);">
			<g>
				<defs>
					<rect id="SVGID_00000016793550772414349720000016783982102756563627_" x="-176.3" y="-16.06" width="878.67" height="806.65"/>
				</defs>
				<clipPath id="SVGID_00000111187707480016273930000014756839240550842248_">
					<use xlink:href="#SVGID_00000016793550772414349720000016783982102756563627_"  style="overflow:visible;"/>
				</clipPath>
				<path style="clip-path:url(#SVGID_00000111187707480016273930000014756839240550842248_);fill:#AAD29A;" d="M116.46,271.81
					c0,0,120.26-64.3,197.83-28.4c59.78,27.65-39.75,143.6-39.75,143.6l-163.58,17.4C103.34,360.49,104.85,315.64,116.46,271.81"/>
			</g>
		</g>
		<g style="opacity:0.8;clip-path:url(#SVGID_00000072261629151785773350000015866264855816844712_);">
			<g>
				<defs>
					
						<rect id="SVGID_00000061466505662297960020000012246641404634385280_" x="-310.52" y="-126.69" width="823.1" height="773.12"/>
				</defs>
				<clipPath id="SVGID_00000121257433322033546160000000830545902695549338_">
					<use xlink:href="#SVGID_00000061466505662297960020000012246641404634385280_"  style="overflow:visible;"/>
				</clipPath>
				<defs>
					
						<filter id="Adobe_OpacityMaskFilter_00000152226703418786403440000002111337587881077674_" filterUnits="userSpaceOnUse" x="-310.52" y="-126.69" width="823.1" height="773.12">
						<feFlood  style="flood-color:white;flood-opacity:1" result="back"/>
						<feBlend  in="SourceGraphic" in2="back" mode="normal"/>
					</filter>
				</defs>
				
					<mask maskUnits="userSpaceOnUse" x="-310.52" y="-126.69" width="823.1" height="773.12" id="SVGID_00000183969485517755793490000007971658344925424263_">
					<g style="filter:url(#Adobe_OpacityMaskFilter_00000152226703418786403440000002111337587881077674_);">
						
							<linearGradient id="SVGID_00000124855631564931647660000000246009908229214876_" gradientUnits="userSpaceOnUse" x1="128.6753" y1="972.9032" x2="157.6269" y2="972.9032" gradientTransform="matrix(-4.4641 6.874 -6.874 -4.4641 7444.0146 3594.0271)">
							<stop  offset="0" style="stop-color:#FFFFFF"/>
							<stop  offset="0.1" style="stop-color:#FFFFFF"/>
							<stop  offset="0.585" style="stop-color:#000000"/>
							<stop  offset="0.9413" style="stop-color:#000000"/>
							<stop  offset="1" style="stop-color:#000000"/>
						</linearGradient>
						
							<polygon style="clip-path:url(#SVGID_00000121257433322033546160000000830545902695549338_);fill:url(#SVGID_00000124855631564931647660000000246009908229214876_);" points="
							-66.36,-502.65 -663.66,417.1 268.42,1022.4 865.72,102.65 						"/>
					</g>
				</mask>
				
					<g style="clip-path:url(#SVGID_00000121257433322033546160000000830545902695549338_);mask:url(#SVGID_00000183969485517755793490000007971658344925424263_);">
					<g>
						<defs>
							
								<rect id="SVGID_00000158718369033706757840000013393367739540560261_" x="-310.52" y="-126.69" width="823.1" height="773.12"/>
						</defs>
						<clipPath id="SVGID_00000065793914926469166750000007053977485905948810_">
							<use xlink:href="#SVGID_00000158718369033706757840000013393367739540560261_"  style="overflow:visible;"/>
						</clipPath>
						<path style="clip-path:url(#SVGID_00000065793914926469166750000007053977485905948810_);fill:#AAD29A;" d="M152.69,187.15
							c0,0-43.63-103.04-158.97-66.85c-139,43.6-49.07,63.35,11.52,89.11c51.3,21.8,111.2,62.39,111.2,62.39
							C124.11,242.91,136.13,214.51,152.69,187.15"/>
					</g>
				</g>
			</g>
		</g>
		<defs>
			
				<filter id="Adobe_OpacityMaskFilter_00000016034913288399999180000000762682473624277438_" filterUnits="userSpaceOnUse" x="-144.06" y="60.19" width="830.19" height="830.19">
				<feFlood  style="flood-color:white;flood-opacity:1" result="back"/>
				<feBlend  in="SourceGraphic" in2="back" mode="normal"/>
			</filter>
		</defs>
		
			<mask maskUnits="userSpaceOnUse" x="-144.06" y="60.19" width="830.19" height="830.19" id="SVGID_00000129200364828311859010000013939201576573126047_">
			<g style="filter:url(#Adobe_OpacityMaskFilter_00000016034913288399999180000000762682473624277438_);">
				
					<linearGradient id="SVGID_00000072265509579729935160000016376421476112321214_" gradientUnits="userSpaceOnUse" x1="141.6098" y1="889.723" x2="170.5614" y2="889.723" gradientTransform="matrix(3.8419 8.2391 -8.2391 3.8419 7016.4961 -4325.8623)">
					<stop  offset="0" style="stop-color:#FFFFFF"/>
					<stop  offset="0.02" style="stop-color:#FFFFFF"/>
					<stop  offset="0.63" style="stop-color:#000000"/>
					<stop  offset="0.9477" style="stop-color:#000000"/>
					<stop  offset="1" style="stop-color:#000000"/>
				</linearGradient>
				
					<polygon style="clip-path:url(#SVGID_00000072261629151785773350000015866264855816844712_);fill:url(#SVGID_00000072265509579729935160000016376421476112321214_);" points="
					-309.82,211.29 119.61,1132.21 969.87,735.73 540.44,-185.19 				"/>
			</g>
		</mask>
		
			<g style="clip-path:url(#SVGID_00000072261629151785773350000015866264855816844712_);mask:url(#SVGID_00000129200364828311859010000013939201576573126047_);">
			<g>
				<defs>
					<rect id="SVGID_00000133519075710567175930000006117976196375254919_" x="-144.06" y="60.19" width="830.19" height="830.19"/>
				</defs>
				<clipPath id="SVGID_00000111163183913143769570000001395419779396332222_">
					<use xlink:href="#SVGID_00000133519075710567175930000006117976196375254919_"  style="overflow:visible;"/>
				</clipPath>
				<path style="clip-path:url(#SVGID_00000111163183913143769570000001395419779396332222_);fill:#AAD29A;" d="M107.29,375.29
					c0,0,109.81-73.16,167.25-43.43C331.98,361.63,348.4,416,348.4,416l-201.04,92.62C124.43,466.35,110.93,421.12,107.29,375.29"/>
			</g>
		</g>
		<g style="opacity:0.7;clip-path:url(#SVGID_00000072261629151785773350000015866264855816844712_);">
			<g>
				<defs>
					<rect id="SVGID_00000162325318017424474090000013254836507870080957_" x="74.26" y="162.37" width="811.52" height="912.76"/>
				</defs>
				<clipPath id="SVGID_00000014606934624496573620000016058845351712630448_">
					<use xlink:href="#SVGID_00000162325318017424474090000013254836507870080957_"  style="overflow:visible;"/>
				</clipPath>
				<defs>
					
						<filter id="Adobe_OpacityMaskFilter_00000078724010680045879640000007448912527872548745_" filterUnits="userSpaceOnUse" x="74.26" y="162.37" width="811.52" height="912.76">
						<feFlood  style="flood-color:white;flood-opacity:1" result="back"/>
						<feBlend  in="SourceGraphic" in2="back" mode="normal"/>
					</filter>
				</defs>
				
					<mask maskUnits="userSpaceOnUse" x="74.26" y="162.37" width="811.52" height="912.76" id="SVGID_00000054946129228595035130000006066371782995740034_">
					<g style="filter:url(#Adobe_OpacityMaskFilter_00000078724010680045879640000007448912527872548745_);">
						
							<linearGradient id="SVGID_00000039818800957068324990000000790020864101967762_" gradientUnits="userSpaceOnUse" x1="194.3774" y1="881.8616" x2="223.329" y2="881.8616" gradientTransform="matrix(8.3907 3.5616 -3.5616 8.3907 1789.7321 -7557.9512)">
							<stop  offset="0" style="stop-color:#FFFFFF"/>
							<stop  offset="5.000000e-03" style="stop-color:#FFFFFF"/>
							<stop  offset="0.58" style="stop-color:#000000"/>
							<stop  offset="0.9406" style="stop-color:#000000"/>
							<stop  offset="1" style="stop-color:#000000"/>
						</linearGradient>
						
							<polygon style="clip-path:url(#SVGID_00000014606934624496573620000016058845351712630448_);fill:url(#SVGID_00000039818800957068324990000000790020864101967762_);" points="
							-254.03,935.78 761.88,1367.01 1214.07,301.72 198.16,-129.51 						"/>
					</g>
				</mask>
				
					<g style="clip-path:url(#SVGID_00000014606934624496573620000016058845351712630448_);mask:url(#SVGID_00000054946129228595035130000006066371782995740034_);">
					<g>
						<defs>
							
								<rect id="SVGID_00000061459803268132362760000010525768551551784591_" x="74.26" y="162.37" width="811.52" height="912.76"/>
						</defs>
						<clipPath id="SVGID_00000079485837582036696130000018433015663294744724_">
							<use xlink:href="#SVGID_00000061459803268132362760000010525768551551784591_"  style="overflow:visible;"/>
						</clipPath>
						<path style="clip-path:url(#SVGID_00000079485837582036696130000018433015663294744724_);fill:#AAD29A;" d="M245.23,626.1
							c0,0,67.78-153.18,180.6-162.16c79.53-6.31,125.68,39.75,125.68,39.75L438.74,724.31
							C362.02,703.26,296.94,669.01,245.23,626.1"/>
					</g>
				</g>
			</g>
		</g>
		<defs>
			
				<filter id="Adobe_OpacityMaskFilter_00000107552762124158467410000000851411478587183761_" filterUnits="userSpaceOnUse" x="-57.3" y="118.57" width="799.89" height="859.48">
				<feFlood  style="flood-color:white;flood-opacity:1" result="back"/>
				<feBlend  in="SourceGraphic" in2="back" mode="normal"/>
			</filter>
		</defs>
		
			<mask maskUnits="userSpaceOnUse" x="-57.3" y="118.57" width="799.89" height="859.48" id="SVGID_00000109011278797811792930000009824827535680494725_">
			<g style="filter:url(#Adobe_OpacityMaskFilter_00000107552762124158467410000000851411478587183761_);">
				
					<linearGradient id="SVGID_00000134230568517344064340000015291946622938852002_" gradientUnits="userSpaceOnUse" x1="157.4454" y1="866.9408" x2="186.397" y2="866.9408" gradientTransform="matrix(5.2263 4.8736 -4.8736 5.2263 3637.425 -4913.2041)">
					<stop  offset="0" style="stop-color:#FFFFFF"/>
					<stop  offset="0.035" style="stop-color:#FFFFFF"/>
					<stop  offset="0.64" style="stop-color:#000000"/>
					<stop  offset="0.9491" style="stop-color:#000000"/>
					<stop  offset="1" style="stop-color:#000000"/>
				</linearGradient>
				
					<polygon style="clip-path:url(#SVGID_00000072261629151785773350000015866264855816844712_);fill:url(#SVGID_00000134230568517344064340000015291946622938852002_);" points="
					-404.26,501.96 352.86,1207.99 1064.31,445.05 307.19,-260.98 				"/>
			</g>
		</mask>
		
			<g style="clip-path:url(#SVGID_00000072261629151785773350000015866264855816844712_);mask:url(#SVGID_00000109011278797811792930000009824827535680494725_);">
			<g>
				<defs>
					<rect id="SVGID_00000172437546143264039740000010165232102146486660_" x="-57.3" y="118.57" width="799.89" height="859.48"/>
				</defs>
				<clipPath id="SVGID_00000080914108944222175310000009056201122990836864_">
					<use xlink:href="#SVGID_00000172437546143264039740000010165232102146486660_"  style="overflow:visible;"/>
				</clipPath>
				<path style="clip-path:url(#SVGID_00000080914108944222175310000009056201122990836864_);fill:#AAD29A;" d="M146.35,506.93
					c0,0,112.8-106.83,201.01-86.83c88.22,20.01,65.14,49.25,65.14,49.25L254.31,633.36C207.9,596.82,171.4,553.71,146.35,506.93"/>
			</g>
		</g>
		<g style="opacity:0.6;clip-path:url(#SVGID_00000072261629151785773350000015866264855816844712_);">
			<g>
				<defs>
					
						<rect id="SVGID_00000122701372249722095720000017857815433398320266_" x="-136.63" y="-51.65" width="780.42" height="715.58"/>
				</defs>
				<clipPath id="SVGID_00000150097647401402864040000017347013501265649551_">
					<use xlink:href="#SVGID_00000122701372249722095720000017857815433398320266_"  style="overflow:visible;"/>
				</clipPath>
				<defs>
					
						<filter id="Adobe_OpacityMaskFilter_00000090296935088201168890000008420732491668397963_" filterUnits="userSpaceOnUse" x="-136.63" y="-51.65" width="780.42" height="715.58">
						<feFlood  style="flood-color:white;flood-opacity:1" result="back"/>
						<feBlend  in="SourceGraphic" in2="back" mode="normal"/>
					</filter>
				</defs>
				
					<mask maskUnits="userSpaceOnUse" x="-136.63" y="-51.65" width="780.42" height="715.58" id="SVGID_00000142881023097109097740000002970799515189625478_">
					<g style="filter:url(#Adobe_OpacityMaskFilter_00000090296935088201168890000008420732491668397963_);">
						
							<linearGradient id="SVGID_00000065076723754810687500000013482749657905237423_" gradientUnits="userSpaceOnUse" x1="129.2232" y1="979.7017" x2="158.1748" y2="979.7017" gradientTransform="matrix(-4.6555 4.4958 -4.4958 -4.6555 5293.1328 4253.9062)">
							<stop  offset="0" style="stop-color:#FFFFFF"/>
							<stop  offset="0.5" style="stop-color:#000000"/>
							<stop  offset="0.9293" style="stop-color:#000000"/>
							<stop  offset="1" style="stop-color:#000000"/>
						</linearGradient>
						
							<polygon style="clip-path:url(#SVGID_00000150097647401402864040000017347013501265649551_);fill:url(#SVGID_00000065076723754810687500000013482749657905237423_);" points="
							267.2,-441.62 -494.2,293.65 239.96,1053.9 1001.36,318.62 						"/>
					</g>
				</mask>
				
					<g style="clip-path:url(#SVGID_00000150097647401402864040000017347013501265649551_);mask:url(#SVGID_00000142881023097109097740000002970799515189625478_);">
					<g>
						<defs>
							
								<rect id="SVGID_00000078047098840027891580000017997253513297692549_" x="-136.63" y="-51.65" width="780.42" height="715.58"/>
						</defs>
						<clipPath id="SVGID_00000119077119310196614300000003065185828030415782_">
							<use xlink:href="#SVGID_00000078047098840027891580000017997253513297692549_"  style="overflow:visible;"/>
						</clipPath>
						<path style="clip-path:url(#SVGID_00000119077119310196614300000003065185828030415782_);fill:#AAD29A;" d="M152.69,187.15
							c0,0,51.56-24.52,92.09-6.57c25.62,11.35,102.58,48.73,22.58,90.27c-59.52,10.77-150.92,0.96-150.92,0.96
							C124.11,242.91,136.13,214.51,152.69,187.15"/>
					</g>
				</g>
			</g>
		</g>
	</g>
	<defs>
		
			<filter id="Adobe_OpacityMaskFilter_00000039843391976249209720000010403536391891194506_" filterUnits="userSpaceOnUse" x="405.32" y="203.88" width="390.87" height="186.75">
			<feFlood  style="flood-color:white;flood-opacity:1" result="back"/>
			<feBlend  in="SourceGraphic" in2="back" mode="normal"/>
		</filter>
	</defs>
	
		<mask maskUnits="userSpaceOnUse" x="405.32" y="203.88" width="390.87" height="186.75" id="SVGID_00000134218311690239926010000009587431526713004716_">
		<g style="filter:url(#Adobe_OpacityMaskFilter_00000039843391976249209720000010403536391891194506_);">
			
				<linearGradient id="SVGID_00000026145797733310986760000017370796520008002494_" gradientUnits="userSpaceOnUse" x1="236.8146" y1="712.9092" x2="265.7662" y2="712.9092" gradientTransform="matrix(-2.6021 -9.7113 -9.7113 2.6021 9696.9492 464.596)">
				<stop  offset="0" style="stop-color:#000000"/>
				<stop  offset="0.475" style="stop-color:#000000"/>
				<stop  offset="0.9" style="stop-color:#FFFFFF"/>
				<stop  offset="0.9859" style="stop-color:#FFFFFF"/>
				<stop  offset="1" style="stop-color:#FFFFFF"/>
			</linearGradient>
			<polygon style="fill:url(#SVGID_00000026145797733310986760000017370796520008002494_);" points="313.88,2495.44 -340.81,52.1 
				4337.06,-1201.33 4991.75,1242.01 			"/>
		</g>
	</mask>
	<g style="mask:url(#SVGID_00000134218311690239926010000009587431526713004716_);">
		<g>
			<path class="st0" d="M686.15,229.3c-69.25-20.53-280.83-60.28-280.83,39.08c0,56.34,93.48,88.77,114.13,96.84
				C737.74,450.6,921.82,299.13,686.15,229.3"/>
		</g>
	</g>
</g>
</svg>
