<?xml version="1.0" encoding="UTF-8"?>
<svg id="Ebene_1" data-name="Ebene 1" xmlns="http://www.w3.org/2000/svg" xmlns:xlink="http://www.w3.org/1999/xlink" viewBox="0 0 1683.67 1596.91">
  <defs>
    <style>
      .cls-1 {
        fill: #bce4fa;
      }

      .cls-2 {
        filter: url(#luminosity-noclip-11);
      }

      .cls-3 {
        fill: #509941;
      }

      .cls-4 {
        clip-path: url(#clippath-11);
      }

      .cls-5 {
        clip-path: url(#clippath-16);
      }

      .cls-6 {
        fill: #fff;
      }

      .cls-7 {
        mask: url(#mask-10);
      }

      .cls-8 {
        filter: url(#luminosity-noclip-7);
      }

      .cls-9 {
        fill: url(#Unbenannter_Verlauf_2);
      }

      .cls-10 {
        opacity: .5;
      }

      .cls-11 {
        fill: url(#Unbenannter_Verlauf_4);
      }

      .cls-12 {
        filter: url(#luminosity-noclip-5);
      }

      .cls-13 {
        mask: url(#mask-2);
      }

      .cls-14 {
        clip-path: url(#clippath-2);
      }

      .cls-15 {
        clip-path: url(#clippath-13);
      }

      .cls-16 {
        clip-path: url(#clippath-15);
      }

      .cls-17 {
        opacity: .6;
      }

      .cls-18 {
        clip-path: url(#clippath-6);
      }

      .cls-19 {
        opacity: .7;
      }

      .cls-20 {
        mask: url(#mask-3);
      }

      .cls-21 {
        clip-path: url(#clippath-7);
      }

      .cls-22 {
        mask: url(#mask-9);
      }

      .cls-23 {
        fill: #aad29a;
      }

      .cls-24 {
        clip-path: url(#clippath-1);
      }

      .cls-25 {
        clip-path: url(#clippath-4);
      }

      .cls-26 {
        mask: url(#mask-5);
      }

      .cls-27 {
        opacity: .8;
      }

      .cls-28 {
        fill: url(#Unbenannter_Verlauf_7);
      }

      .cls-29 {
        fill: url(#Unbenannter_Verlauf_13);
      }

      .cls-30 {
        fill: #0f265c;
      }

      .cls-31 {
        clip-path: url(#clippath-12);
      }

      .cls-32 {
        filter: url(#luminosity-noclip-12);
      }

      .cls-33 {
        filter: url(#luminosity-noclip-9);
      }

      .cls-34 {
        filter: url(#luminosity-noclip-4);
      }

      .cls-35 {
        fill: url(#Unbenannter_Verlauf_8);
      }

      .cls-36 {
        filter: url(#luminosity-noclip-8);
      }

      .cls-37 {
        mask: url(#mask-8);
      }

      .cls-38 {
        filter: url(#luminosity-noclip-6);
      }

      .cls-39 {
        mask: url(#mask-4);
      }

      .cls-40 {
        clip-path: url(#clippath-9);
      }

      .cls-41 {
        clip-path: url(#clippath);
      }

      .cls-42 {
        fill: none;
      }

      .cls-43 {
        mask: url(#mask-6);
      }

      .cls-44 {
        clip-path: url(#clippath-3);
      }

      .cls-45 {
        fill: url(#Unbenannter_Verlauf_12-2);
      }

      .cls-46 {
        fill: url(#Unbenannter_Verlauf_6);
      }

      .cls-47 {
        clip-path: url(#clippath-8);
      }

      .cls-48 {
        fill: url(#Unbenannter_Verlauf_5);
      }

      .cls-49 {
        filter: url(#luminosity-noclip);
      }

      .cls-50 {
        mask: url(#mask-1);
      }

      .cls-51 {
        mask: url(#mask);
      }

      .cls-52 {
        clip-path: url(#clippath-14);
      }

      .cls-53 {
        clip-path: url(#clippath-17);
      }

      .cls-54 {
        clip-path: url(#clippath-5);
      }

      .cls-55 {
        mask: url(#mask-7);
      }

      .cls-56 {
        fill: url(#Unbenannter_Verlauf_3);
      }

      .cls-57 {
        clip-path: url(#clippath-10);
      }

      .cls-58 {
        filter: url(#luminosity-noclip-2);
      }

      .cls-59 {
        mask: url(#mask-11);
      }

      .cls-60 {
        filter: url(#luminosity-noclip-3);
      }

      .cls-61 {
        fill: url(#Unbenannter_Verlauf_9);
      }

      .cls-62 {
        filter: url(#luminosity-noclip-10);
      }

      .cls-63 {
        fill: url(#Unbenannter_Verlauf_11);
      }

      .cls-64 {
        fill: url(#Unbenannter_Verlauf_10);
      }

      .cls-65 {
        fill: url(#Unbenannter_Verlauf_12);
      }
    </style>
    <clipPath id="clippath">
      <path class="cls-30" d="m1319.03,365.02c-11.18-6.49-25.3-13.23-42.47-20.18-17.2-6.95-36.91-12.97-59.18-18.09-22.29-5.1-45.95-9.26-71.02-12.54-25.07-3.24-50.61-4.86-76.58-4.86-46.44,0-82.4,8.14-107.93,24.38-25.54,16.21-38.27,38.77-38.27,67.52s12.04,51.77,36.19,68.93c24.15,17.17,54.08,32.95,89.84,47.31,35.7,14.42,74.49,28.81,116.24,43.2,41.78,14.39,80.51,32.95,116.27,55.7,35.73,22.73,65.66,51.27,89.81,85.61,24.15,34.34,36.22,78.46,36.22,132.28s-9.32,100.26-27.88,139.23c-18.56,39-44.79,71.28-78.66,96.79-1.36,1.04-2.9,1.91-4.31,2.9,146.44-86.54,244.7-245.94,244.7-428.34,0-155.41-71.34-294.12-182.97-385.32l-39.98,105.5Z"/>
    </clipPath>
    <clipPath id="clippath-1">
      <path class="cls-42" d="m547.35,644.83c0,149.88,66.41,284.19,171.31,375.36l43.4-110.74c10.22,5.59,24.38,11.61,42.47,18.09,18.09,6.51,38.27,12.8,60.57,18.79,22.26,6.05,46.15,10.91,71.68,14.62,25.54,3.73,51.3,5.59,77.3,5.59,61.26,0,107.93-8.8,139.95-26.46,32.02-17.63,48-45.02,48-82.14,0-28.78-12.04-51.53-36.19-68.24-24.15-16.71-54.08-32.05-89.81-45.95-35.76-13.93-74.49-27.85-116.27-41.78-41.75-13.9-80.54-32.48-116.27-55.7-35.73-23.19-65.69-52.43-89.81-87.69-24.12-35.29-36.19-81.24-36.19-137.84,0-48.26,8.57-90.73,25.77-127.42,16.82-35.93,40.45-65.58,70.67-89.03-158.45,83.18-266.59,249.19-266.59,440.53"/>
    </clipPath>
    <linearGradient id="Unbenannter_Verlauf_5" data-name="Unbenannter Verlauf 5" x1="728.58" y1="1040.64" x2="757.53" y2="1040.64" gradientTransform="translate(17677.81 -22920.47) rotate(-180) scale(22.61 -22.61)" gradientUnits="userSpaceOnUse">
      <stop offset="0" stop-color="#4f9841"/>
      <stop offset=".34" stop-color="#4f9841"/>
      <stop offset="1" stop-color="#0b6822"/>
    </linearGradient>
    <clipPath id="clippath-2">
      <path class="cls-42" d="m547.35,644.83c0,149.88,66.41,284.19,171.31,375.36l43.4-110.74c10.22,5.59,24.38,11.61,42.47,18.09,18.09,6.51,38.27,12.8,60.57,18.79,22.26,6.05,46.15,10.91,71.68,14.62,25.54,3.73,51.3,5.59,77.3,5.59,61.26,0,107.93-8.8,139.95-26.46,32.02-17.63,48-45.02,48-82.14,0-28.78-12.04-51.53-36.19-68.24-24.15-16.71-54.08-32.05-89.81-45.95-35.76-13.93-74.49-27.85-116.27-41.78-41.75-13.9-80.54-32.48-116.27-55.7-35.73-23.19-65.69-52.43-89.81-87.69-24.12-35.29-36.19-81.24-36.19-137.84,0-48.26,8.57-90.73,25.77-127.42,16.82-35.93,40.45-65.58,70.67-89.03-158.45,83.18-266.59,249.19-266.59,440.53"/>
    </clipPath>
    <clipPath id="clippath-3">
      <rect class="cls-42" x="390.09" width="1128.16" height="915.19"/>
    </clipPath>
    <filter id="luminosity-noclip" x="390.09" y="0" width="1128.16" height="915.19" color-interpolation-filters="sRGB" filterUnits="userSpaceOnUse">
      <feFlood flood-color="#fff" result="bg"/>
      <feBlend in="SourceGraphic" in2="bg"/>
    </filter>
    <linearGradient id="Unbenannter_Verlauf_2" data-name="Unbenannter Verlauf 2" x1="750.06" y1="1084.6" x2="779.01" y2="1084.6" gradientTransform="translate(-16727.2 25820.59) scale(23.38 -23.38)" gradientUnits="userSpaceOnUse">
      <stop offset="0" stop-color="#fff"/>
      <stop offset=".8" stop-color="#000"/>
      <stop offset=".97" stop-color="#000"/>
      <stop offset="1" stop-color="#000"/>
    </linearGradient>
    <mask id="mask" x="390.09" y="0" width="1128.16" height="915.19" maskUnits="userSpaceOnUse">
      <g class="cls-49">
        <rect class="cls-9" x="390.09" y="0" width="1128.16" height="915.19"/>
      </g>
    </mask>
    <clipPath id="clippath-4">
      <rect class="cls-42" x="390.09" width="1128.16" height="915.19"/>
    </clipPath>
    <filter id="luminosity-noclip-2" x="295.84" y="114.08" width="1103.77" height="1482.83" color-interpolation-filters="sRGB" filterUnits="userSpaceOnUse">
      <feFlood flood-color="#fff" result="bg"/>
      <feBlend in="SourceGraphic" in2="bg"/>
    </filter>
    <linearGradient id="Unbenannter_Verlauf_3" data-name="Unbenannter Verlauf 3" x1="734.11" y1="1038.72" x2="763.06" y2="1038.72" gradientTransform="translate(22736.22 -15192.35) rotate(90) scale(21.05)" gradientUnits="userSpaceOnUse">
      <stop offset="0" stop-color="#fff"/>
      <stop offset=".63" stop-color="#000"/>
      <stop offset=".95" stop-color="#000"/>
      <stop offset="1" stop-color="#000"/>
    </linearGradient>
    <mask id="mask-1" x="295.84" y="114.08" width="1103.77" height="1482.83" maskUnits="userSpaceOnUse">
      <g class="cls-58">
        <rect class="cls-56" x="425.17" y="231.32" width="899.06" height="761.86" transform="translate(146.67 1393.22) rotate(-82)"/>
      </g>
    </mask>
    <clipPath id="clippath-5">
      <rect class="cls-42" x="295.84" y="432.38" width="1103.77" height="1164.53"/>
    </clipPath>
    <filter id="luminosity-noclip-3" x="0" y="60.56" width="1420.23" height="1435.71" color-interpolation-filters="sRGB" filterUnits="userSpaceOnUse">
      <feFlood flood-color="#fff" result="bg"/>
      <feBlend in="SourceGraphic" in2="bg"/>
    </filter>
    <linearGradient id="Unbenannter_Verlauf_4" data-name="Unbenannter Verlauf 4" x1="716.5" y1="1051.62" x2="745.45" y2="1051.62" gradientTransform="translate(16980.88 -10558.35) rotate(90) scale(15.46)" gradientUnits="userSpaceOnUse">
      <stop offset="0" stop-color="#fff"/>
      <stop offset=".17" stop-color="#fff"/>
      <stop offset=".71" stop-color="#000"/>
      <stop offset=".96" stop-color="#000"/>
      <stop offset="1" stop-color="#000"/>
    </linearGradient>
    <mask id="mask-2" x="0" y="60.56" width="1420.23" height="1435.71" maskUnits="userSpaceOnUse">
      <g class="cls-60">
        <rect class="cls-11" x="232.45" y="243.29" width="987.55" height="1038.84" transform="translate(-293.82 500.74) rotate(-32)"/>
      </g>
    </mask>
    <clipPath id="clippath-6">
      <rect class="cls-42" y="456.89" width="991.06" height="1039.37"/>
    </clipPath>
    <filter id="luminosity-noclip-4" x="80.66" y="155.42" width="1121.38" height="985.54" color-interpolation-filters="sRGB" filterUnits="userSpaceOnUse">
      <feFlood flood-color="#fff" result="bg"/>
      <feBlend in="SourceGraphic" in2="bg"/>
    </filter>
    <linearGradient id="Unbenannter_Verlauf_12" data-name="Unbenannter Verlauf 12" x1="701.93" y1="1049.63" x2="730.88" y2="1049.63" gradientTransform="translate(14062.25 -8369.34) rotate(90) scale(12.56)" gradientUnits="userSpaceOnUse">
      <stop offset="0" stop-color="#fff"/>
      <stop offset=".5" stop-color="#000"/>
      <stop offset=".93" stop-color="#000"/>
      <stop offset="1" stop-color="#000"/>
    </linearGradient>
    <mask id="mask-3" x="80.66" y="155.42" width="1121.38" height="985.54" maskUnits="userSpaceOnUse">
      <g class="cls-34">
        <rect class="cls-65" x="547.35" y="204.31" width="654.68" height="815.88"/>
      </g>
    </mask>
    <clipPath id="clippath-7">
      <rect class="cls-42" x="80.66" y="155.42" width="985.55" height="985.54"/>
    </clipPath>
    <filter id="luminosity-noclip-5" x="166.8" y="11.9" width="1275.02" height="1200.7" color-interpolation-filters="sRGB" filterUnits="userSpaceOnUse">
      <feFlood flood-color="#fff" result="bg"/>
      <feBlend in="SourceGraphic" in2="bg"/>
    </filter>
    <linearGradient id="Unbenannter_Verlauf_6" data-name="Unbenannter Verlauf 6" x1="692.87" y1="1060.37" x2="721.83" y2="1060.37" gradientTransform="translate(8948.18 12666.93) rotate(-180) scale(11.37)" gradientUnits="userSpaceOnUse">
      <stop offset="0" stop-color="#fff"/>
      <stop offset=".03" stop-color="#fff"/>
      <stop offset=".49" stop-color="#000"/>
      <stop offset=".93" stop-color="#000"/>
      <stop offset="1" stop-color="#000"/>
    </linearGradient>
    <mask id="mask-4" x="166.8" y="11.9" width="1275.02" height="1200.7" maskUnits="userSpaceOnUse">
      <g class="cls-12">
        <rect class="cls-46" x="385.57" y="174.87" width="978.26" height="874.76" transform="translate(22.12 1254.94) rotate(-72)"/>
      </g>
    </mask>
    <clipPath id="clippath-8">
      <rect class="cls-42" x="166.8" y="132" width="886.12" height="825.7"/>
    </clipPath>
    <filter id="luminosity-noclip-6" x="244.19" y="-38.96" width="1261" height="1302.41" color-interpolation-filters="sRGB" filterUnits="userSpaceOnUse">
      <feFlood flood-color="#fff" result="bg"/>
      <feBlend in="SourceGraphic" in2="bg"/>
    </filter>
    <linearGradient id="Unbenannter_Verlauf_7" data-name="Unbenannter Verlauf 7" x1="671.57" y1="1026.54" x2="700.52" y2="1026.54" gradientTransform="translate(9444.83 -5305.92) rotate(90) scale(8.35)" gradientUnits="userSpaceOnUse">
      <stop offset="0" stop-color="#fff"/>
      <stop offset=".04" stop-color="#fff"/>
      <stop offset=".5" stop-color="#000"/>
      <stop offset=".93" stop-color="#000"/>
      <stop offset="1" stop-color="#000"/>
    </linearGradient>
    <mask id="mask-5" x="244.19" y="-38.96" width="1261" height="1302.41" maskUnits="userSpaceOnUse">
      <g class="cls-38">
        <rect class="cls-28" x="409.73" y="106.43" width="929.93" height="1011.63" transform="translate(-173.4 408.7) rotate(-24)"/>
      </g>
    </mask>
    <clipPath id="clippath-9">
      <rect class="cls-42" x="368.37" y="122.68" width="878.67" height="806.65"/>
    </clipPath>
    <clipPath id="clippath-10">
      <rect class="cls-42" x="234.15" y="12.06" width="823.1" height="773.12"/>
    </clipPath>
    <filter id="luminosity-noclip-7" x="-118.99" y="-363.91" width="1529.38" height="1525.06" color-interpolation-filters="sRGB" filterUnits="userSpaceOnUse">
      <feFlood flood-color="#fff" result="bg"/>
      <feBlend in="SourceGraphic" in2="bg"/>
    </filter>
    <linearGradient id="Unbenannter_Verlauf_8" data-name="Unbenannter Verlauf 8" x1="673.35" y1="1111.64" x2="702.3" y2="1111.64" gradientTransform="translate(6313.03 9510.04) rotate(-180) scale(8.2)" gradientUnits="userSpaceOnUse">
      <stop offset="0" stop-color="#fff"/>
      <stop offset=".1" stop-color="#fff"/>
      <stop offset=".58" stop-color="#000"/>
      <stop offset=".94" stop-color="#000"/>
      <stop offset="1" stop-color="#000"/>
    </linearGradient>
    <mask id="mask-6" x="-118.99" y="-363.91" width="1529.38" height="1525.06" maskUnits="userSpaceOnUse">
      <g class="cls-8">
        <rect class="cls-35" x="97.36" y="-157.07" width="1096.69" height="1111.38" transform="translate(-40.28 723.04) rotate(-57)"/>
      </g>
    </mask>
    <clipPath id="clippath-11">
      <rect class="cls-42" x="234.15" y="12.06" width="823.1" height="773.12"/>
    </clipPath>
    <filter id="luminosity-noclip-8" x="234.85" y="-46.45" width="1279.69" height="1317.4" color-interpolation-filters="sRGB" filterUnits="userSpaceOnUse">
      <feFlood flood-color="#fff" result="bg"/>
      <feBlend in="SourceGraphic" in2="bg"/>
    </filter>
    <linearGradient id="Unbenannter_Verlauf_9" data-name="Unbenannter Verlauf 9" x1="686.28" y1="1028.46" x2="715.23" y2="1028.46" gradientTransform="translate(10224.26 -5863.12) rotate(90) scale(9.09)" gradientUnits="userSpaceOnUse">
      <stop offset="0" stop-color="#fff"/>
      <stop offset=".02" stop-color="#fff"/>
      <stop offset=".63" stop-color="#000"/>
      <stop offset=".95" stop-color="#000"/>
      <stop offset="1" stop-color="#000"/>
    </linearGradient>
    <mask id="mask-7" x="234.85" y="-46.45" width="1279.69" height="1317.4" maskUnits="userSpaceOnUse">
      <g class="cls-36">
        <rect class="cls-61" x="405.62" y="104.19" width="938.15" height="1016.12" transform="translate(-176.79 427.03) rotate(-25)"/>
      </g>
    </mask>
    <clipPath id="clippath-12">
      <rect class="cls-42" x="400.61" y="198.93" width="830.19" height="830.19"/>
    </clipPath>
    <clipPath id="clippath-13">
      <rect class="cls-42" x="618.93" y="301.11" width="811.52" height="912.76"/>
    </clipPath>
    <filter id="luminosity-noclip-9" x="290.64" y="9.23" width="1468.1" height="1496.52" color-interpolation-filters="sRGB" filterUnits="userSpaceOnUse">
      <feFlood flood-color="#fff" result="bg"/>
      <feBlend in="SourceGraphic" in2="bg"/>
    </filter>
    <linearGradient id="Unbenannter_Verlauf_10" data-name="Unbenannter Verlauf 10" x1="739.05" y1="1020.6" x2="768" y2="1020.6" gradientTransform="translate(10327.79 -6196.64) rotate(90) scale(9.12)" gradientUnits="userSpaceOnUse">
      <stop offset="0" stop-color="#fff"/>
      <stop offset="0" stop-color="#fff"/>
      <stop offset=".58" stop-color="#000"/>
      <stop offset=".94" stop-color="#000"/>
      <stop offset="1" stop-color="#000"/>
    </linearGradient>
    <mask id="mask-8" x="290.64" y="9.23" width="1468.1" height="1496.52" maskUnits="userSpaceOnUse">
      <g class="cls-33">
        <rect class="cls-64" x="446.05" y="205.66" width="1157.29" height="1103.65" transform="translate(-72.96 1404.75) rotate(-67)"/>
      </g>
    </mask>
    <clipPath id="clippath-14">
      <rect class="cls-42" x="618.93" y="301.11" width="811.52" height="912.76"/>
    </clipPath>
    <filter id="luminosity-noclip-10" x="140.41" y="-122.24" width="1468.58" height="1468.97" color-interpolation-filters="sRGB" filterUnits="userSpaceOnUse">
      <feFlood flood-color="#fff" result="bg"/>
      <feBlend in="SourceGraphic" in2="bg"/>
    </filter>
    <linearGradient id="Unbenannter_Verlauf_11" data-name="Unbenannter Verlauf 11" x1="702.12" y1="1005.68" x2="731.07" y2="1005.68" gradientTransform="translate(8061.38 -4534.86) rotate(90) scale(7.15)" gradientUnits="userSpaceOnUse">
      <stop offset="0" stop-color="#fff"/>
      <stop offset=".04" stop-color="#fff"/>
      <stop offset=".64" stop-color="#000"/>
      <stop offset=".95" stop-color="#000"/>
      <stop offset="1" stop-color="#000"/>
    </linearGradient>
    <mask id="mask-9" x="140.41" y="-122.24" width="1468.58" height="1468.97" maskUnits="userSpaceOnUse">
      <g class="cls-62">
        <rect class="cls-63" x="353.1" y="94.63" width="1043.19" height="1035.24" transform="translate(-169.61 834.41) rotate(-47)"/>
      </g>
    </mask>
    <clipPath id="clippath-15">
      <rect class="cls-42" x="487.37" y="257.31" width="799.89" height="859.48"/>
    </clipPath>
    <clipPath id="clippath-16">
      <rect class="cls-42" x="408.04" y="87.09" width="780.42" height="715.58"/>
    </clipPath>
    <filter id="luminosity-noclip-11" x="50.47" y="-302.88" width="1495.56" height="1495.52" color-interpolation-filters="sRGB" filterUnits="userSpaceOnUse">
      <feFlood flood-color="#fff" result="bg"/>
      <feBlend in="SourceGraphic" in2="bg"/>
    </filter>
    <linearGradient id="Unbenannter_Verlauf_12-2" data-name="Unbenannter Verlauf 12" x1="673.89" y1="1118.44" x2="702.84" y2="1118.44" gradientTransform="translate(5206.11 7683.36) rotate(-180) scale(6.47)" xlink:href="#Unbenannter_Verlauf_12"/>
    <mask id="mask-10" x="50.47" y="-302.88" width="1495.56" height="1495.52" maskUnits="userSpaceOnUse">
      <g class="cls-2">
        <rect class="cls-45" x="269.01" y="-83.56" width="1058.47" height="1056.87" transform="translate(-85 679.37) rotate(-44)"/>
      </g>
    </mask>
    <clipPath id="clippath-17">
      <rect class="cls-42" x="408.04" y="87.09" width="780.42" height="715.58"/>
    </clipPath>
    <filter id="luminosity-noclip-12" x="203.86" y="-1062.59" width="5332.56" height="3696.77" color-interpolation-filters="sRGB" filterUnits="userSpaceOnUse">
      <feFlood flood-color="#fff" result="bg"/>
      <feBlend in="SourceGraphic" in2="bg"/>
    </filter>
    <linearGradient id="Unbenannter_Verlauf_13" data-name="Unbenannter Verlauf 13" x1="781.48" y1="851.65" x2="810.44" y2="851.65" gradientTransform="translate(11432.56 7993.5) rotate(-90) scale(10.05 -10.05)" gradientUnits="userSpaceOnUse">
      <stop offset="0" stop-color="#000"/>
      <stop offset=".47" stop-color="#000"/>
      <stop offset=".9" stop-color="#fff"/>
      <stop offset=".99" stop-color="#fff"/>
      <stop offset="1" stop-color="#fff"/>
    </linearGradient>
    <mask id="mask-11" x="203.86" y="-1062.59" width="5332.56" height="3696.77" maskUnits="userSpaceOnUse">
      <g class="cls-32">
        <rect class="cls-29" x="448.69" y="-478.97" width="4842.89" height="2529.53" transform="translate(-105.58 769.62) rotate(-15)"/>
      </g>
    </mask>
  </defs>
  <ellipse class="cls-6" cx="1044.67" cy="644.07" rx="495.79" ry="496.9"/>
  <g>
    <path class="cls-1" d="m1541.98,644.84c0-155.41-71.31-294.12-182.97-385.32l-39.98,105.5c-11.15-6.49-25.3-13.23-42.47-20.18-17.2-6.95-36.91-13-59.18-18.09-22.29-5.1-45.95-9.26-71.02-12.54-25.04-3.24-50.61-4.86-76.58-4.86-46.44,0-82.4,8.14-107.9,24.35-25.54,16.27-38.3,38.77-38.3,67.54s12.07,51.74,36.22,68.9c24.12,17.2,54.05,32.98,89.81,47.36,35.73,14.39,74.49,28.78,116.27,43.14,41.75,14.42,80.51,32.98,116.24,55.7,35.73,22.76,65.66,51.3,89.81,85.64,24.15,34.37,36.22,78.46,36.22,132.28s-9.29,100.26-27.85,139.23c-18.59,39-44.79,71.25-78.66,96.79-1.39,1.01-2.95,1.88-4.34,2.9,146.44-86.54,244.7-245.91,244.7-428.34"/>
    <g>
      <path class="cls-30" d="m1319.03,365.02c-11.18-6.49-25.3-13.23-42.47-20.18-17.2-6.95-36.91-12.97-59.18-18.09-22.29-5.1-45.95-9.26-71.02-12.54-25.07-3.24-50.61-4.86-76.58-4.86-46.44,0-82.4,8.14-107.93,24.38-25.54,16.21-38.27,38.77-38.27,67.52s12.04,51.77,36.19,68.93c24.15,17.17,54.08,32.95,89.84,47.31,35.7,14.42,74.49,28.81,116.24,43.2,41.78,14.39,80.51,32.95,116.27,55.7,35.73,22.73,65.66,51.27,89.81,85.61,24.15,34.34,36.22,78.46,36.22,132.28s-9.32,100.26-27.88,139.23c-18.56,39-44.79,71.28-78.66,96.79-1.36,1.04-2.9,1.91-4.31,2.9,146.44-86.54,244.7-245.94,244.7-428.34,0-155.41-71.34-294.12-182.97-385.32l-39.98,105.5Z"/>
      <g class="cls-41">
        <path class="cls-30" d="m921.23,329.1c-16.65,4.46-26.55,21.6-22.09,38.24l23.89,89.06c4.46,16.65,21.57,26.55,38.22,22.09l88.79-23.8c16.68-4.46,26.55-21.6,22.09-38.25l-23.86-89.05c-4.49-16.65-21.6-26.55-38.25-22.09l-88.79,23.8Z"/>
        <path class="cls-30" d="m1081.66,286.11c-16.65,4.46-26.55,21.6-22.09,38.24l23.89,89.06c4.46,16.65,21.57,26.55,38.22,22.09l88.79-23.8c16.68-4.46,26.55-21.6,22.09-38.25l-23.86-89.05c-4.49-16.65-21.6-26.55-38.25-22.09l-88.79,23.8Z"/>
        <path class="cls-30" d="m1242.09,243.13c-16.65,4.46-26.55,21.6-22.09,38.24l23.89,89.06c4.46,16.65,21.57,26.55,38.22,22.09l88.79-23.8c16.68-4.46,26.55-21.6,22.09-38.25l-23.86-89.05c-4.49-16.65-21.6-26.55-38.25-22.09l-88.79,23.8Z"/>
        <path class="cls-30" d="m1402.51,200.14c-16.65,4.46-26.55,21.6-22.09,38.24l23.89,89.06c4.46,16.65,21.57,26.55,38.22,22.09l88.79-23.8c16.68-4.46,26.55-21.6,22.09-38.25l-23.86-89.05c-4.49-16.65-21.6-26.55-38.24-22.09l-88.79,23.8Z"/>
        <path class="cls-30" d="m964.3,489.81c-16.65,4.46-26.55,21.6-22.09,38.24l23.89,89.06c4.46,16.65,21.57,26.55,38.22,22.09l88.79-23.8c16.68-4.46,26.55-21.6,22.09-38.24l-23.86-89.05c-4.49-16.65-21.6-26.55-38.25-22.09l-88.79,23.8Z"/>
        <path class="cls-30" d="m1124.72,446.83c-16.65,4.46-26.55,21.6-22.09,38.24l23.89,89.06c4.46,16.65,21.57,26.55,38.22,22.09l88.79-23.8c16.68-4.46,26.55-21.6,22.09-38.25l-23.86-89.05c-4.49-16.65-21.6-26.55-38.25-22.09l-88.79,23.8Z"/>
        <path class="cls-30" d="m1285.15,403.84c-16.65,4.46-26.55,21.6-22.09,38.24l23.89,89.06c4.46,16.65,21.57,26.55,38.22,22.09l88.79-23.8c16.68-4.46,26.55-21.6,22.09-38.25l-23.86-89.05c-4.49-16.65-21.6-26.55-38.25-22.09l-88.79,23.8Z"/>
        <path class="cls-30" d="m1445.58,360.86c-16.65,4.46-26.55,21.6-22.09,38.24l23.89,89.06c4.46,16.65,21.57,26.55,38.22,22.09l88.79-23.8c16.68-4.46,26.55-21.6,22.09-38.25l-23.86-89.05c-4.49-16.65-21.6-26.55-38.24-22.09l-88.79,23.8Z"/>
        <path class="cls-30" d="m1167.79,607.54c-16.65,4.46-26.55,21.6-22.09,38.24l23.89,89.06c4.46,16.65,21.57,26.55,38.22,22.06l88.79-23.77c16.68-4.46,26.55-21.6,22.09-38.24l-23.86-89.06c-4.49-16.65-21.6-26.55-38.25-22.09l-88.79,23.8Z"/>
        <path class="cls-30" d="m1328.22,564.56c-16.65,4.46-26.55,21.6-22.09,38.24l23.89,89.06c4.46,16.65,21.57,26.55,38.22,22.06l88.79-23.77c16.68-4.46,26.55-21.6,22.09-38.24l-23.86-89.06c-4.49-16.65-21.6-26.55-38.25-22.09l-88.79,23.8Z"/>
        <path class="cls-30" d="m1488.64,521.57c-16.65,4.46-26.55,21.6-22.09,38.24l23.89,89.06c4.46,16.65,21.57,26.55,38.22,22.06l88.79-23.77c16.68-4.46,26.55-21.6,22.09-38.24l-23.86-89.05c-4.49-16.65-21.6-26.55-38.24-22.09l-88.79,23.8Z"/>
        <path class="cls-30" d="m1253.91,928.97c-16.65,4.46-26.55,21.57-22.09,38.24l23.89,89.06c4.46,16.65,21.57,26.55,38.22,22.06l88.79-23.77c16.68-4.46,26.55-21.6,22.09-38.24l-23.86-89.06c-4.49-16.68-21.6-26.55-38.25-22.09l-88.79,23.8Z"/>
        <path class="cls-30" d="m1371.28,725.27c-16.65,4.46-26.55,21.57-22.09,38.24l23.89,89.06c4.46,16.65,21.57,26.55,38.22,22.06l88.79-23.77c16.68-4.46,26.55-21.6,22.09-38.24l-23.86-89.06c-4.49-16.68-21.6-26.55-38.24-22.09l-88.79,23.8Z"/>
        <path class="cls-30" d="m1414.34,885.99c-16.65,4.46-26.55,21.57-22.09,38.24l23.89,89.06c4.46,16.65,21.57,26.55,38.22,22.06l88.79-23.77c16.68-4.46,26.55-21.6,22.09-38.24l-23.86-89.06c-4.49-16.68-21.6-26.55-38.24-22.09l-88.79,23.8Z"/>
        <path class="cls-30" d="m1531.7,682.29c-16.65,4.46-26.55,21.57-22.09,38.24l23.89,89.06c4.46,16.65,21.57,26.55,38.22,22.06l88.79-23.77c16.68-4.46,26.55-21.6,22.09-38.24l-23.86-89.06c-4.49-16.68-21.6-26.55-38.24-22.09l-88.79,23.8Z"/>
      </g>
    </g>
    <g class="cls-24">
      <rect class="cls-48" x="547.35" y="204.31" width="654.68" height="815.88"/>
    </g>
    <g class="cls-14">
      <g class="cls-10">
        <g class="cls-44">
          <g class="cls-51">
            <g class="cls-25">
              <path class="cls-3" d="m814.33,204.16c-341.34,238.24-119.51,711.43,394.7,680.65,174.29-261.43-157.73-711.43-394.7-680.65"/>
            </g>
          </g>
        </g>
      </g>
      <g class="cls-50">
        <g class="cls-54">
          <path class="cls-23" d="m789.9,764.85c-46.64,12.77-242.76,73.19-300.26,200.75-50.32,111.61,420.61,238.5,420.61,238.5l73.16-341.05c-76.72-21.05-141.8-55.3-193.51-98.2"/>
        </g>
      </g>
      <g class="cls-13">
        <g class="cls-18">
          <path class="cls-23" d="m542.56,796.13s-256.74-13.26-306.51,89.11c-64.24,132.13,166.7,203.88,166.7,203.88l247.77-166.56c-46.41-36.54-82.92-79.65-107.96-126.43"/>
        </g>
      </g>
      <g class="cls-20">
        <g class="cls-21">
          <path class="cls-23" d="m651.96,514.04s-193.98-73.94-285.4-20.32c-81.93,48.06,101.3,261.58,101.3,261.58l224.17-107.93c-22.93-42.27-36.42-87.49-40.07-133.32"/>
        </g>
      </g>
      <g class="cls-39">
        <g class="cls-47">
          <path class="cls-23" d="m661.13,410.55s-60.68-52.78-118.38-56.86c-65.69-4.69-65.92,216.96-65.92,216.96l178.8-27.5c-7.61-43.92-6.11-88.77,5.5-132.6"/>
        </g>
      </g>
      <g class="cls-26">
        <g class="cls-40">
          <path class="cls-23" d="m661.13,410.55s120.26-64.3,197.83-28.4c59.78,27.65-39.75,143.6-39.75,143.6l-163.58,17.4c-7.61-43.92-6.11-88.77,5.5-132.6"/>
        </g>
      </g>
      <g class="cls-27">
        <g class="cls-57">
          <g class="cls-43">
            <g class="cls-4">
              <path class="cls-23" d="m697.36,325.89s-43.63-103.04-158.97-66.85c-139,43.6-49.07,63.35,11.52,89.11,51.3,21.8,111.2,62.39,111.2,62.39,7.67-28.89,19.69-57.3,36.25-84.65"/>
            </g>
          </g>
        </g>
      </g>
      <g class="cls-55">
        <g class="cls-31">
          <path class="cls-23" d="m651.96,514.04s109.81-73.16,167.25-43.43c57.44,29.76,73.86,84.13,73.86,84.13l-201.04,92.62c-22.93-42.27-36.42-87.49-40.07-133.32"/>
        </g>
      </g>
      <g class="cls-19">
        <g class="cls-15">
          <g class="cls-37">
            <g class="cls-52">
              <path class="cls-23" d="m789.9,764.85s67.78-153.18,180.6-162.16c79.53-6.31,125.68,39.75,125.68,39.75l-112.77,220.61c-76.72-21.05-141.8-55.3-193.51-98.2"/>
            </g>
          </g>
        </g>
      </g>
      <g class="cls-22">
        <g class="cls-16">
          <path class="cls-23" d="m691.02,645.67s112.8-106.83,201.01-86.83c88.22,20.01,65.14,49.25,65.14,49.25l-158.19,164.01c-46.41-36.54-82.92-79.65-107.96-126.43"/>
        </g>
      </g>
      <g class="cls-17">
        <g class="cls-5">
          <g class="cls-7">
            <g class="cls-53">
              <path class="cls-23" d="m697.36,325.89s51.56-24.52,92.09-6.57c25.62,11.35,102.58,48.73,22.58,90.27-59.52,10.77-150.92.96-150.92.96,7.67-28.89,19.69-57.3,36.25-84.65"/>
            </g>
          </g>
        </g>
      </g>
    </g>
    <g class="cls-59">
      <path class="cls-1" d="m1230.82,368.04c-69.25-20.53-280.83-60.28-280.83,39.08,0,56.34,93.48,88.77,114.13,96.84,218.29,85.38,402.37-66.1,166.7-135.93"/>
    </g>
  </g>
</svg>