<?xml version="1.0" encoding="utf-8"?>
<!-- Generator: Adobe Illustrator 27.1.0, SVG Export Plug-In . SVG Version: 6.00 Build 0)  -->
<svg version="1.1" id="Ebene_1" xmlns="http://www.w3.org/2000/svg" xmlns:xlink="http://www.w3.org/1999/xlink" x="0px" y="0px"
	 viewBox="0 0 214.28 93.93" style="enable-background:new 0 0 214.28 93.93;" xml:space="preserve">
<style type="text/css">
	.st0{fill:#919599;}
	.st1{fill:#74A24C;}
	.st2{fill:#2D388F;}
	.st3{fill:#D1E5F9;}
	.st4{clip-path:url(#SVGID_00000127005806646185484440000007080393009048223391_);fill:#161E61;}
	
		.st5{clip-path:url(#SVGID_00000003104318712574508520000008658718334314166164_);fill:url(#SVGID_00000144300125991150509920000008098013766274895768_);}
	.st6{opacity:0.5;clip-path:url(#SVGID_00000118359709384033378600000003007472173920095400_);}
	.st7{filter:url(#Adobe_OpacityMaskFilter);}
	
		.st8{clip-path:url(#SVGID_00000014595683216552167520000012797629532396729738_);fill:url(#SVGID_00000063613096679919804960000010346255781529552266_);}
	
		.st9{clip-path:url(#SVGID_00000014595683216552167520000012797629532396729738_);mask:url(#SVGID_00000084501564283925442740000007446246878001077906_);}
	.st10{clip-path:url(#SVGID_00000054982903684849129620000012275060721895491991_);fill:#74A24C;}
	.st11{filter:url(#Adobe_OpacityMaskFilter_00000163788032251537096120000004673683276101081494_);}
	
		.st12{clip-path:url(#SVGID_00000118359709384033378600000003007472173920095400_);fill:url(#SVGID_00000096019738250971597340000001017321499299677332_);}
	
		.st13{clip-path:url(#SVGID_00000118359709384033378600000003007472173920095400_);mask:url(#SVGID_00000013179527234364113050000014014035597081536949_);}
	.st14{clip-path:url(#SVGID_00000110470642725642743910000000895741199199512247_);fill:#BDD7A4;}
	.st15{filter:url(#Adobe_OpacityMaskFilter_00000026165442881696312250000013512288318372778161_);}
	
		.st16{clip-path:url(#SVGID_00000118359709384033378600000003007472173920095400_);fill:url(#SVGID_00000036224669926125221250000004515827463896436404_);}
	
		.st17{clip-path:url(#SVGID_00000118359709384033378600000003007472173920095400_);mask:url(#SVGID_00000136379291574389418930000012218915692066141842_);}
	.st18{clip-path:url(#SVGID_00000050660440961684376940000001683541535738982287_);fill:#BDD7A4;}
	.st19{filter:url(#Adobe_OpacityMaskFilter_00000015322147395680024190000010508949224743926938_);}
	
		.st20{clip-path:url(#SVGID_00000118359709384033378600000003007472173920095400_);fill:url(#SVGID_00000163050177190450851390000002477524879312710314_);}
	
		.st21{clip-path:url(#SVGID_00000118359709384033378600000003007472173920095400_);mask:url(#SVGID_00000041982352921014433920000006255704460558688179_);}
	.st22{clip-path:url(#SVGID_00000021805943050714602430000002869798513118426525_);fill:#BDD7A4;}
	.st23{filter:url(#Adobe_OpacityMaskFilter_00000139264268661216562050000006045544030166757026_);}
	
		.st24{clip-path:url(#SVGID_00000118359709384033378600000003007472173920095400_);fill:url(#SVGID_00000137852019415111115980000014489768551827318956_);}
	
		.st25{clip-path:url(#SVGID_00000118359709384033378600000003007472173920095400_);mask:url(#SVGID_00000023964856340733692910000013462683322151536786_);}
	.st26{clip-path:url(#SVGID_00000088092078886489893600000012454858931935692177_);fill:#BDD7A4;}
	.st27{filter:url(#Adobe_OpacityMaskFilter_00000112634197441045105020000007570602035120581559_);}
	
		.st28{clip-path:url(#SVGID_00000118359709384033378600000003007472173920095400_);fill:url(#SVGID_00000030474523701489370070000009329565802899648641_);}
	
		.st29{clip-path:url(#SVGID_00000118359709384033378600000003007472173920095400_);mask:url(#SVGID_00000124121813773757683000000009470149802133262482_);}
	.st30{clip-path:url(#SVGID_00000158015031048526275470000003991889436975443866_);fill:#BDD7A4;}
	.st31{opacity:0.8;clip-path:url(#SVGID_00000118359709384033378600000003007472173920095400_);}
	.st32{filter:url(#Adobe_OpacityMaskFilter_00000099649460302349830640000000088308377457551252_);}
	
		.st33{clip-path:url(#SVGID_00000026868504076939584290000010987151721373448579_);fill:url(#SVGID_00000047756923934447928510000010170760131857729175_);}
	
		.st34{clip-path:url(#SVGID_00000026868504076939584290000010987151721373448579_);mask:url(#SVGID_00000001633283490198739390000015689952785086816446_);}
	.st35{clip-path:url(#SVGID_00000165215087061565355570000014572068116204916381_);fill:#BDD7A4;}
	.st36{filter:url(#Adobe_OpacityMaskFilter_00000102541149789263875290000017427048417430433442_);}
	
		.st37{clip-path:url(#SVGID_00000118359709384033378600000003007472173920095400_);fill:url(#SVGID_00000102513740319882532600000013515100179440587164_);}
	
		.st38{clip-path:url(#SVGID_00000118359709384033378600000003007472173920095400_);mask:url(#SVGID_00000106831592336109794600000008780020844187674245_);}
	.st39{clip-path:url(#SVGID_00000005963397462326260750000014027259844544402095_);fill:#BDD7A4;}
	.st40{opacity:0.7;clip-path:url(#SVGID_00000118359709384033378600000003007472173920095400_);}
	.st41{filter:url(#Adobe_OpacityMaskFilter_00000150075589194364929670000004529020967733209488_);}
	
		.st42{clip-path:url(#SVGID_00000130636322862698577070000013118870218553356177_);fill:url(#SVGID_00000018940602148167503100000015241388347316743863_);}
	
		.st43{clip-path:url(#SVGID_00000130636322862698577070000013118870218553356177_);mask:url(#SVGID_00000049921709836445471690000011704212116554463381_);}
	.st44{clip-path:url(#SVGID_00000078002503803236462950000013594794577981809041_);fill:#BDD7A4;}
	.st45{filter:url(#Adobe_OpacityMaskFilter_00000152982249246325198590000007792928423735382158_);}
	
		.st46{clip-path:url(#SVGID_00000118359709384033378600000003007472173920095400_);fill:url(#SVGID_00000056413927186246906600000012072063385369434030_);}
	
		.st47{clip-path:url(#SVGID_00000118359709384033378600000003007472173920095400_);mask:url(#SVGID_00000132061089177862507980000001673526227670221188_);}
	.st48{clip-path:url(#SVGID_00000017507135032112716110000015948500424349639869_);fill:#BDD7A4;}
	.st49{opacity:0.6;clip-path:url(#SVGID_00000118359709384033378600000003007472173920095400_);}
	.st50{filter:url(#Adobe_OpacityMaskFilter_00000152981239297966931740000017674794573067427211_);}
	
		.st51{clip-path:url(#SVGID_00000167355116122839059890000005226767076129806523_);fill:url(#SVGID_00000029753892279364080980000014391154753626183089_);}
	
		.st52{clip-path:url(#SVGID_00000167355116122839059890000005226767076129806523_);mask:url(#SVGID_00000014627468069071688280000011556629963144648588_);}
	.st53{clip-path:url(#SVGID_00000142147771970550788150000008038548930864224447_);fill:#BDD7A4;}
	.st54{filter:url(#Adobe_OpacityMaskFilter_00000157995131994156924630000005471200334618327180_);}
	.st55{fill:url(#SVGID_00000026150928982675585520000000321415410691458962_);}
	.st56{mask:url(#SVGID_00000067237192208301216110000001035270844796301441_);}
</style>
<g>
	<path class="st0" d="M80.65,46.29c0-0.53-0.22-0.95-0.67-1.26c-0.44-0.31-1-0.59-1.65-0.85c-0.66-0.26-1.37-0.51-2.14-0.77
		c-0.77-0.26-1.48-0.6-2.14-1.03c-0.66-0.43-1.21-0.97-1.65-1.62c-0.44-0.65-0.67-1.5-0.67-2.54c0-0.89,0.16-1.67,0.47-2.35
		c0.32-0.67,0.76-1.23,1.33-1.67c0.57-0.44,1.27-0.76,2.08-0.99c0.81-0.22,1.71-0.33,2.68-0.33c1.13,0,2.2,0.1,3.22,0.29
		c1.02,0.2,1.85,0.47,2.5,0.83l-1.21,3.18c-0.21-0.12-0.47-0.24-0.78-0.37c-0.32-0.13-0.68-0.24-1.09-0.33
		c-0.41-0.09-0.85-0.17-1.31-0.23c-0.46-0.06-0.93-0.09-1.41-0.09c-0.85,0-1.52,0.15-1.99,0.45c-0.47,0.3-0.71,0.71-0.71,1.24
		s0.22,0.95,0.67,1.27s1,0.61,1.65,0.87c0.66,0.27,1.37,0.53,2.14,0.79c0.77,0.27,1.48,0.61,2.14,1.03s1.21,0.95,1.65,1.58
		c0.44,0.63,0.67,1.45,0.67,2.44c0,0.99-0.17,1.85-0.51,2.56c-0.34,0.72-0.83,1.31-1.45,1.78c-0.62,0.47-1.37,0.82-2.24,1.04
		c-0.87,0.22-1.83,0.33-2.87,0.33c-0.7,0-1.36-0.04-1.99-0.12c-0.62-0.08-1.2-0.17-1.73-0.28c-0.53-0.11-1-0.23-1.4-0.36
		c-0.4-0.13-0.72-0.25-0.96-0.37l1.26-3.21c0.19,0.1,0.45,0.21,0.78,0.33c0.33,0.12,0.71,0.24,1.12,0.35
		c0.41,0.11,0.85,0.2,1.32,0.27c0.47,0.07,0.94,0.1,1.42,0.1c1.13,0,1.99-0.16,2.58-0.49C80.36,47.48,80.65,46.97,80.65,46.29z"/>
	<path class="st0" d="M102.07,36.59h-5.69v14.62h-3.8V36.59h-5.69v-3.33h15.19V36.59z"/>
	<path class="st0" d="M105.33,33.44c0.41-0.07,0.86-0.13,1.35-0.19c0.49-0.06,0.98-0.11,1.48-0.14s0.98-0.06,1.45-0.08
		s0.9-0.03,1.3-0.03c0.91,0,1.8,0.08,2.68,0.23c0.88,0.15,1.67,0.42,2.36,0.79s1.25,0.89,1.68,1.55s0.64,1.48,0.64,2.48
		c0,1.47-0.36,2.68-1.09,3.63c-0.73,0.95-1.73,1.59-3.01,1.94l1.36,0.8l4.49,6.8h-4.41l-4.46-6.95l-2-0.31v7.26h-3.8V33.44z
		 M111.15,36.34c-0.39,0-0.77,0-1.14,0.01c-0.37,0.01-0.66,0.04-0.88,0.09v4.95h1.62c1.08,0,1.93-0.21,2.55-0.62
		s0.94-1.12,0.94-2.13c0-0.75-0.27-1.33-0.79-1.72C112.9,36.53,112.14,36.34,111.15,36.34z"/>
	<path class="st0" d="M121.74,42.23c0-1.47,0.19-2.79,0.56-3.95c0.38-1.16,0.92-2.14,1.63-2.94c0.71-0.79,1.58-1.4,2.6-1.82
		s2.19-0.63,3.49-0.63c1.38,0,2.59,0.23,3.63,0.68c1.03,0.45,1.9,1.09,2.59,1.91c0.69,0.82,1.21,1.8,1.56,2.95
		c0.35,1.15,0.53,2.41,0.53,3.8c0,1.47-0.19,2.79-0.58,3.95s-0.94,2.14-1.65,2.94c-0.72,0.8-1.59,1.4-2.62,1.82
		s-2.18,0.63-3.46,0.63c-1.38,0-2.59-0.23-3.63-0.68c-1.04-0.45-1.9-1.09-2.59-1.91c-0.69-0.82-1.21-1.8-1.55-2.95
		C121.92,44.89,121.74,43.62,121.74,42.23z M125.77,42.23c0,0.89,0.08,1.7,0.26,2.44c0.17,0.74,0.43,1.37,0.77,1.9
		c0.34,0.53,0.78,0.94,1.32,1.23c0.54,0.29,1.18,0.44,1.91,0.44c1.35,0,2.4-0.46,3.16-1.38c0.75-0.92,1.13-2.46,1.13-4.62
		c0-0.85-0.08-1.65-0.23-2.39c-0.15-0.73-0.41-1.37-0.76-1.91c-0.35-0.54-0.79-0.96-1.33-1.26c-0.54-0.3-1.19-0.45-1.96-0.45
		c-1.33,0-2.38,0.48-3.13,1.44C126.15,38.63,125.77,40.15,125.77,42.23z"/>
	<path class="st0" d="M155.45,37.49c0,0.45-0.06,0.88-0.19,1.32c-0.13,0.44-0.33,0.84-0.6,1.22c-0.27,0.38-0.63,0.7-1.08,0.97
		c-0.45,0.27-0.98,0.47-1.62,0.59v0.15c0.56,0.05,1.09,0.18,1.59,0.38s0.93,0.49,1.3,0.86c0.37,0.37,0.66,0.81,0.87,1.33
		c0.21,0.52,0.32,1.13,0.32,1.83c0,0.94-0.22,1.74-0.65,2.41c-0.44,0.67-1,1.21-1.71,1.64c-0.7,0.43-1.5,0.74-2.41,0.95
		c-0.91,0.21-1.83,0.31-2.77,0.31c-0.31,0-0.71,0-1.22,0c-0.5,0-1.04-0.01-1.62-0.04c-0.57-0.03-1.15-0.06-1.74-0.12
		c-0.59-0.05-1.12-0.13-1.6-0.23v-17.7c0.36-0.05,0.76-0.1,1.22-0.15c0.45-0.05,0.94-0.09,1.46-0.13c0.52-0.03,1.06-0.06,1.6-0.08
		c0.55-0.02,1.09-0.03,1.64-0.03c0.89,0,1.76,0.06,2.62,0.19c0.86,0.13,1.62,0.36,2.31,0.69c0.68,0.33,1.24,0.79,1.65,1.37
		S155.45,36.58,155.45,37.49z M147.24,40.75c0.26,0,0.56,0,0.91-0.01s0.65-0.03,0.89-0.06c0.72-0.22,1.32-0.53,1.82-0.91
		s0.74-0.91,0.74-1.58c0-0.44-0.09-0.8-0.28-1.08s-0.44-0.49-0.76-0.64c-0.32-0.15-0.67-0.26-1.06-0.31
		c-0.39-0.05-0.79-0.08-1.21-0.08c-0.5,0-0.95,0.01-1.36,0.03c-0.41,0.02-0.74,0.04-0.97,0.08v4.57H147.24z M148.45,48.39
		c0.48,0,0.94-0.04,1.37-0.13c0.44-0.08,0.82-0.23,1.15-0.42c0.33-0.2,0.6-0.44,0.79-0.74c0.2-0.3,0.29-0.67,0.29-1.12
		c0-0.55-0.12-0.98-0.36-1.31c-0.24-0.32-0.55-0.57-0.94-0.73c-0.38-0.16-0.81-0.27-1.28-0.31c-0.47-0.04-0.95-0.06-1.42-0.06h-2.1
		v4.67c0.1,0.03,0.25,0.06,0.45,0.08c0.2,0.02,0.42,0.03,0.65,0.04c0.24,0.01,0.48,0.02,0.73,0.03
		C148.04,48.39,148.26,48.39,148.45,48.39z"/>
	<path class="st0" d="M160.04,33.26h11.57v3.33h-7.77v3.9h7.05v3.33h-7.05v4.05h7.9v3.33h-11.7V33.26z"/>
	<path class="st0" d="M188.18,51.21h-12.36V33.26h3.8v14.62h8.57V51.21z"/>
</g>
<g>
	<path class="st1" d="M72.32,57.97h3.17v0.66h-2.42v1.66h2.25v0.66h-2.25v2.27h-0.75V57.97z"/>
	<path class="st1" d="M76.34,61.25c0-0.33,0.04-0.62,0.13-0.87c0.08-0.26,0.21-0.48,0.38-0.66s0.37-0.32,0.6-0.41
		s0.51-0.14,0.81-0.14c0.32,0,0.6,0.05,0.84,0.16c0.24,0.11,0.44,0.25,0.6,0.44c0.16,0.19,0.28,0.41,0.36,0.66
		c0.08,0.25,0.12,0.53,0.12,0.83c0,0.32-0.04,0.61-0.13,0.86c-0.09,0.25-0.21,0.47-0.38,0.65c-0.16,0.18-0.36,0.32-0.6,0.41
		c-0.24,0.09-0.51,0.14-0.81,0.14c-0.33,0-0.62-0.05-0.85-0.16c-0.24-0.1-0.44-0.25-0.6-0.43c-0.16-0.19-0.28-0.4-0.35-0.66
		C76.37,61.82,76.34,61.55,76.34,61.25z M77.09,61.25c0,0.18,0.02,0.37,0.06,0.54c0.04,0.18,0.11,0.34,0.2,0.48
		c0.09,0.14,0.21,0.25,0.36,0.34c0.15,0.08,0.33,0.13,0.55,0.13c0.77,0,1.16-0.49,1.16-1.48c0-0.2-0.02-0.38-0.06-0.56
		s-0.11-0.34-0.2-0.48s-0.21-0.25-0.36-0.33c-0.15-0.08-0.33-0.13-0.53-0.13c-0.39,0-0.68,0.12-0.88,0.37
		C77.18,60.37,77.09,60.75,77.09,61.25z"/>
	<path class="st1" d="M83.33,59.93c-0.08-0.02-0.17-0.04-0.25-0.06c-0.08-0.02-0.15-0.03-0.22-0.03c-0.27,0-0.47,0.07-0.62,0.2
		c-0.15,0.13-0.24,0.3-0.27,0.51v2.66h-0.69v-3.94h0.48l0.13,0.53h0.07c0.12-0.2,0.25-0.35,0.4-0.45s0.34-0.16,0.57-0.16
		c0.07,0,0.15,0.01,0.25,0.02s0.19,0.03,0.29,0.06L83.33,59.93z"/>
	<path class="st1" d="M86.11,62.11c0-0.1-0.02-0.18-0.07-0.25s-0.11-0.12-0.19-0.17c-0.08-0.05-0.17-0.09-0.28-0.12
		c-0.1-0.03-0.21-0.07-0.33-0.1c-0.15-0.04-0.29-0.08-0.44-0.13c-0.15-0.05-0.28-0.11-0.4-0.19c-0.12-0.08-0.21-0.19-0.29-0.32
		c-0.07-0.13-0.11-0.29-0.11-0.49c0-0.39,0.12-0.68,0.35-0.87c0.23-0.19,0.56-0.29,0.98-0.29c0.31,0,0.58,0.03,0.79,0.09
		c0.21,0.06,0.4,0.12,0.56,0.2l-0.17,0.58c-0.14-0.07-0.3-0.13-0.48-0.19s-0.39-0.09-0.62-0.09c-0.25,0-0.43,0.04-0.55,0.12
		c-0.12,0.08-0.18,0.22-0.18,0.43c0,0.08,0.02,0.16,0.07,0.21s0.1,0.11,0.18,0.15c0.08,0.04,0.16,0.08,0.26,0.11
		c0.1,0.03,0.2,0.06,0.31,0.09c0.15,0.04,0.3,0.09,0.45,0.14s0.29,0.12,0.41,0.21s0.23,0.2,0.3,0.33c0.08,0.13,0.12,0.3,0.12,0.51
		c0,0.37-0.12,0.67-0.38,0.9s-0.62,0.35-1.12,0.35c-0.32,0-0.6-0.03-0.84-0.1c-0.24-0.07-0.44-0.14-0.6-0.23l0.2-0.6
		c0.14,0.08,0.32,0.15,0.54,0.22c0.22,0.08,0.44,0.11,0.67,0.11c0.24,0,0.45-0.04,0.6-0.13C86.04,62.52,86.11,62.35,86.11,62.11z"/>
	<path class="st1" d="M87.39,59.28h0.67v-0.79l0.69-0.18v0.97h1.19v0.58h-1.19v2.01c0,0.32,0.04,0.54,0.12,0.67
		c0.08,0.13,0.22,0.19,0.41,0.19c0.12,0,0.24-0.01,0.34-0.04s0.22-0.06,0.35-0.11l0.16,0.49c-0.16,0.07-0.33,0.13-0.51,0.18
		c-0.18,0.05-0.38,0.07-0.59,0.07c-0.35,0-0.6-0.1-0.75-0.29c-0.15-0.19-0.22-0.5-0.22-0.93v-2.24h-0.67V59.28z"/>
	<path class="st1" d="M91.6,59.28v2.17c0,0.21,0.01,0.39,0.04,0.55c0.02,0.16,0.07,0.29,0.13,0.4s0.15,0.19,0.27,0.25
		c0.11,0.06,0.26,0.09,0.43,0.09c0.3,0,0.54-0.08,0.73-0.25s0.33-0.38,0.44-0.63v-2.57h0.69v2.82c0,0.19,0.01,0.38,0.02,0.58
		s0.04,0.38,0.07,0.54h-0.46l-0.18-0.65H93.7c-0.13,0.22-0.31,0.41-0.54,0.55c-0.23,0.14-0.52,0.21-0.86,0.21
		c-0.23,0-0.43-0.03-0.6-0.08s-0.32-0.15-0.44-0.28c-0.12-0.13-0.21-0.31-0.26-0.53c-0.06-0.22-0.09-0.5-0.09-0.83v-2.33H91.6z"/>
	<path class="st1" d="M98.53,63.22v-2.17c0-0.42-0.07-0.74-0.2-0.95c-0.13-0.21-0.38-0.31-0.72-0.31c-0.31,0-0.56,0.08-0.76,0.24
		c-0.2,0.16-0.34,0.36-0.42,0.6v2.59h-0.69v-3.94h0.48l0.13,0.53h0.07c0.15-0.18,0.33-0.33,0.57-0.45s0.51-0.18,0.84-0.18
		c0.23,0,0.43,0.03,0.61,0.08c0.17,0.05,0.32,0.15,0.44,0.28c0.12,0.13,0.21,0.31,0.27,0.53s0.09,0.5,0.09,0.84v2.32H98.53z"/>
	<path class="st1" d="M100.07,59.28h0.67v-0.79l0.69-0.18v0.97h1.19v0.58h-1.19v2.01c0,0.32,0.04,0.54,0.12,0.67
		c0.08,0.13,0.22,0.19,0.41,0.19c0.12,0,0.24-0.01,0.34-0.04s0.22-0.06,0.35-0.11l0.16,0.49c-0.16,0.07-0.33,0.13-0.51,0.18
		c-0.18,0.05-0.38,0.07-0.59,0.07c-0.35,0-0.6-0.1-0.75-0.29c-0.15-0.19-0.22-0.5-0.22-0.93v-2.24h-0.67V59.28z"/>
	<path class="st1" d="M106.71,62.89c-0.17,0.13-0.39,0.23-0.65,0.31c-0.26,0.08-0.54,0.12-0.85,0.12c-0.33,0-0.62-0.05-0.86-0.15
		c-0.24-0.1-0.44-0.24-0.6-0.42c-0.16-0.18-0.27-0.4-0.35-0.65s-0.11-0.54-0.11-0.85c0-0.67,0.17-1.19,0.5-1.55s0.81-0.54,1.42-0.54
		c0.19,0,0.39,0.02,0.58,0.06c0.19,0.04,0.37,0.12,0.52,0.24s0.28,0.28,0.38,0.48c0.1,0.21,0.15,0.47,0.15,0.8
		c0,0.08,0,0.17-0.01,0.28c0,0.11-0.02,0.21-0.03,0.31H104c0.01,0.46,0.12,0.81,0.33,1.04c0.21,0.23,0.57,0.35,1.07,0.35
		c0.21,0,0.41-0.04,0.6-0.11c0.19-0.07,0.34-0.16,0.44-0.26L106.71,62.89z M106.19,60.85c0.01-0.4-0.07-0.68-0.24-0.85
		c-0.17-0.17-0.41-0.25-0.72-0.25c-0.35,0-0.63,0.08-0.83,0.25s-0.33,0.45-0.36,0.85H106.19z"/>
	<path class="st1" d="M110.05,59.93c-0.08-0.02-0.17-0.04-0.25-0.06c-0.08-0.02-0.16-0.03-0.22-0.03c-0.27,0-0.47,0.07-0.62,0.2
		c-0.15,0.13-0.24,0.3-0.27,0.51v2.66h-0.69v-3.94h0.48l0.14,0.53h0.07c0.12-0.2,0.25-0.35,0.4-0.45s0.34-0.16,0.57-0.16
		c0.07,0,0.15,0.01,0.25,0.02c0.09,0.01,0.19,0.03,0.29,0.06L110.05,59.93z"/>
	<path class="st1" d="M113.64,63.22v-2.17c0-0.42-0.07-0.74-0.2-0.95s-0.38-0.31-0.72-0.31c-0.31,0-0.56,0.08-0.76,0.24
		c-0.2,0.16-0.34,0.36-0.42,0.6v2.59h-0.69v-3.94h0.48l0.13,0.53h0.07c0.15-0.18,0.33-0.33,0.57-0.45s0.51-0.18,0.84-0.18
		c0.23,0,0.43,0.03,0.61,0.08c0.17,0.05,0.32,0.15,0.44,0.28c0.12,0.13,0.21,0.31,0.27,0.53c0.06,0.22,0.09,0.5,0.09,0.84v2.32
		H113.64z"/>
	<path class="st1" d="M118.85,62.89c-0.17,0.13-0.39,0.23-0.65,0.31c-0.26,0.08-0.54,0.12-0.85,0.12c-0.33,0-0.62-0.05-0.86-0.15
		s-0.44-0.24-0.6-0.42c-0.16-0.18-0.27-0.4-0.35-0.65s-0.11-0.54-0.11-0.85c0-0.67,0.17-1.19,0.5-1.55
		c0.33-0.36,0.81-0.54,1.42-0.54c0.2,0,0.39,0.02,0.58,0.06c0.2,0.04,0.37,0.12,0.53,0.24c0.15,0.12,0.28,0.28,0.38,0.48
		c0.1,0.21,0.15,0.47,0.15,0.8c0,0.08,0,0.17-0.01,0.28c0,0.11-0.02,0.21-0.03,0.31h-2.81c0.01,0.46,0.12,0.81,0.33,1.04
		c0.21,0.23,0.57,0.35,1.07,0.35c0.21,0,0.41-0.04,0.6-0.11c0.19-0.07,0.34-0.16,0.44-0.26L118.85,62.89z M118.34,60.85
		c0.01-0.4-0.07-0.68-0.24-0.85s-0.41-0.25-0.72-0.25c-0.35,0-0.63,0.08-0.83,0.25s-0.33,0.45-0.36,0.85H118.34z"/>
	<path class="st1" d="M122.93,63.22v-2.17c0-0.21-0.01-0.4-0.04-0.56c-0.03-0.16-0.08-0.29-0.15-0.39c-0.07-0.1-0.17-0.18-0.29-0.23
		c-0.12-0.05-0.28-0.07-0.46-0.07c-0.13,0-0.26,0.02-0.38,0.07s-0.24,0.11-0.34,0.19c-0.11,0.08-0.2,0.18-0.27,0.29
		c-0.08,0.11-0.13,0.24-0.17,0.38v2.51h-0.69v-5.25h0.69v1.8h0.08c0.15-0.18,0.33-0.33,0.54-0.43c0.21-0.11,0.47-0.17,0.78-0.17
		c0.24,0,0.45,0.03,0.62,0.08c0.17,0.05,0.32,0.15,0.43,0.28c0.12,0.13,0.2,0.31,0.25,0.53c0.06,0.22,0.08,0.5,0.08,0.84v2.33
		H122.93z"/>
	<path class="st1" d="M127.49,63.22v-2.16c0-0.21-0.01-0.39-0.03-0.55s-0.06-0.29-0.12-0.4c-0.06-0.11-0.14-0.19-0.25-0.24
		s-0.25-0.08-0.42-0.08c-0.27,0-0.49,0.07-0.66,0.22s-0.3,0.34-0.38,0.57v2.65h-0.69v-3.94h0.47l0.14,0.53h0.07
		c0.16-0.18,0.34-0.33,0.55-0.45c0.21-0.12,0.47-0.18,0.79-0.18c0.27,0,0.5,0.06,0.68,0.17c0.18,0.12,0.32,0.31,0.42,0.58
		c0.15-0.23,0.34-0.41,0.57-0.55c0.23-0.13,0.49-0.2,0.77-0.2c0.24,0,0.44,0.03,0.61,0.08c0.17,0.06,0.3,0.15,0.41,0.29
		c0.1,0.13,0.18,0.32,0.23,0.55c0.05,0.23,0.08,0.52,0.08,0.87v2.26h-0.69v-2.26c0-0.2-0.01-0.37-0.03-0.52
		c-0.02-0.15-0.06-0.27-0.12-0.36c-0.06-0.1-0.14-0.17-0.25-0.22c-0.11-0.05-0.25-0.07-0.42-0.07c-0.29,0-0.51,0.07-0.68,0.22
		s-0.28,0.38-0.35,0.67v2.54H127.49z"/>
	<path class="st1" d="M135.25,62.89c-0.17,0.13-0.39,0.23-0.65,0.31c-0.26,0.08-0.54,0.12-0.85,0.12c-0.33,0-0.62-0.05-0.86-0.15
		s-0.44-0.24-0.6-0.42c-0.16-0.18-0.27-0.4-0.35-0.65s-0.11-0.54-0.11-0.85c0-0.67,0.17-1.19,0.5-1.55
		c0.33-0.36,0.81-0.54,1.42-0.54c0.2,0,0.39,0.02,0.58,0.06c0.2,0.04,0.37,0.12,0.53,0.24c0.15,0.12,0.28,0.28,0.38,0.48
		c0.1,0.21,0.15,0.47,0.15,0.8c0,0.08,0,0.17-0.01,0.28c0,0.11-0.02,0.21-0.03,0.31h-2.81c0.01,0.46,0.12,0.81,0.33,1.04
		c0.21,0.23,0.57,0.35,1.07,0.35c0.21,0,0.41-0.04,0.6-0.11c0.19-0.07,0.34-0.16,0.44-0.26L135.25,62.89z M134.74,60.85
		c0.01-0.4-0.07-0.68-0.24-0.85s-0.41-0.25-0.72-0.25c-0.35,0-0.63,0.08-0.83,0.25s-0.33,0.45-0.36,0.85H134.74z"/>
	<path class="st1" d="M139.33,63.22v-2.17c0-0.42-0.07-0.74-0.2-0.95s-0.38-0.31-0.72-0.31c-0.31,0-0.56,0.08-0.76,0.24
		c-0.2,0.16-0.34,0.36-0.42,0.6v2.59h-0.69v-3.94h0.48l0.13,0.53h0.07c0.15-0.18,0.33-0.33,0.57-0.45s0.51-0.18,0.84-0.18
		c0.23,0,0.43,0.03,0.61,0.08c0.17,0.05,0.32,0.15,0.44,0.28c0.12,0.13,0.21,0.31,0.27,0.53c0.06,0.22,0.09,0.5,0.09,0.84v2.32
		H139.33z"/>
</g>
<g>
	<path class="st2" d="M72.32,65.52c0.21-0.04,0.44-0.08,0.69-0.09c0.25-0.02,0.49-0.03,0.73-0.03c0.25,0,0.51,0.02,0.78,0.07
		c0.26,0.04,0.5,0.13,0.72,0.25c0.21,0.12,0.39,0.29,0.53,0.5c0.14,0.21,0.21,0.49,0.21,0.82c0,0.32-0.06,0.58-0.19,0.81
		s-0.29,0.4-0.5,0.54c-0.21,0.14-0.45,0.24-0.71,0.31c-0.27,0.07-0.54,0.1-0.83,0.1c-0.03,0-0.08,0-0.14,0c-0.06,0-0.13,0-0.19-0.01
		c-0.07,0-0.13-0.01-0.2-0.01s-0.11-0.01-0.14-0.01v1.96h-0.75V65.52z M73.76,66.06c-0.13,0-0.27,0-0.39,0.01s-0.23,0.02-0.3,0.04
		v1.99c0.02,0.01,0.07,0.02,0.12,0.02c0.06,0,0.12,0.01,0.18,0.01s0.12,0.01,0.18,0.01c0.06,0,0.1,0,0.13,0
		c0.18,0,0.36-0.01,0.53-0.04s0.33-0.08,0.48-0.16c0.14-0.08,0.26-0.19,0.35-0.33c0.09-0.14,0.13-0.33,0.13-0.55
		c0-0.2-0.04-0.36-0.13-0.49c-0.09-0.13-0.2-0.23-0.33-0.3c-0.14-0.07-0.29-0.12-0.45-0.15C74.09,66.07,73.92,66.06,73.76,66.06z"/>
	<path class="st2" d="M79.71,70.72v-2.17c0-0.21-0.01-0.4-0.04-0.56c-0.03-0.16-0.08-0.29-0.15-0.39c-0.07-0.1-0.17-0.18-0.29-0.23
		c-0.12-0.05-0.28-0.07-0.46-0.07c-0.13,0-0.26,0.02-0.38,0.07s-0.24,0.11-0.34,0.19s-0.2,0.18-0.27,0.29
		c-0.08,0.11-0.13,0.24-0.17,0.38v2.51h-0.69v-5.25h0.69v1.8h0.08c0.15-0.18,0.33-0.33,0.54-0.43c0.21-0.11,0.47-0.17,0.78-0.17
		c0.24,0,0.45,0.03,0.62,0.08c0.17,0.05,0.32,0.15,0.44,0.28c0.11,0.13,0.2,0.31,0.25,0.53s0.08,0.5,0.08,0.84v2.33H79.71z"/>
	<path class="st2" d="M81.51,68.75c0-0.33,0.04-0.62,0.13-0.87c0.08-0.26,0.21-0.48,0.38-0.66s0.37-0.32,0.6-0.41
		s0.51-0.14,0.81-0.14c0.32,0,0.6,0.05,0.84,0.16c0.24,0.11,0.44,0.25,0.6,0.44c0.16,0.19,0.28,0.41,0.36,0.66
		c0.08,0.25,0.12,0.53,0.12,0.83c0,0.32-0.04,0.61-0.13,0.86c-0.09,0.25-0.21,0.47-0.38,0.65c-0.16,0.18-0.36,0.32-0.6,0.41
		c-0.24,0.09-0.51,0.14-0.81,0.14c-0.33,0-0.62-0.05-0.85-0.16c-0.24-0.1-0.44-0.25-0.6-0.43c-0.16-0.19-0.28-0.4-0.35-0.66
		C81.55,69.32,81.51,69.05,81.51,68.75z M82.26,68.75c0,0.18,0.02,0.37,0.06,0.54c0.04,0.18,0.11,0.34,0.2,0.48
		c0.09,0.14,0.21,0.25,0.36,0.34c0.15,0.08,0.33,0.13,0.55,0.13c0.77,0,1.16-0.49,1.16-1.48c0-0.2-0.02-0.38-0.06-0.56
		s-0.11-0.34-0.2-0.48s-0.21-0.25-0.36-0.33c-0.15-0.08-0.33-0.13-0.53-0.13c-0.39,0-0.68,0.12-0.88,0.37
		C82.36,67.87,82.26,68.25,82.26,68.75z"/>
	<path class="st2" d="M85.97,66.78h0.67v-0.79l0.69-0.18v0.97h1.19v0.58h-1.19v2.01c0,0.32,0.04,0.54,0.12,0.67
		c0.08,0.13,0.22,0.19,0.41,0.19c0.12,0,0.24-0.01,0.34-0.04s0.22-0.06,0.35-0.11l0.16,0.49c-0.16,0.07-0.33,0.13-0.51,0.18
		c-0.18,0.05-0.38,0.07-0.59,0.07c-0.35,0-0.6-0.1-0.75-0.29c-0.15-0.19-0.22-0.5-0.22-0.93v-2.24h-0.67V66.78z"/>
	<path class="st2" d="M89.2,68.75c0-0.33,0.04-0.62,0.13-0.87c0.08-0.26,0.21-0.48,0.38-0.66s0.37-0.32,0.6-0.41
		s0.51-0.14,0.81-0.14c0.32,0,0.6,0.05,0.84,0.16c0.24,0.11,0.44,0.25,0.6,0.44c0.16,0.19,0.28,0.41,0.36,0.66
		c0.08,0.25,0.12,0.53,0.12,0.83c0,0.32-0.04,0.61-0.13,0.86c-0.09,0.25-0.21,0.47-0.38,0.65c-0.16,0.18-0.36,0.32-0.6,0.41
		c-0.24,0.09-0.51,0.14-0.81,0.14c-0.33,0-0.62-0.05-0.85-0.16c-0.24-0.1-0.44-0.25-0.6-0.43c-0.16-0.19-0.28-0.4-0.35-0.66
		C89.24,69.32,89.2,69.05,89.2,68.75z M89.95,68.75c0,0.18,0.02,0.37,0.06,0.54c0.04,0.18,0.11,0.34,0.2,0.48
		c0.09,0.14,0.21,0.25,0.36,0.34c0.15,0.08,0.33,0.13,0.55,0.13c0.77,0,1.16-0.49,1.16-1.48c0-0.2-0.02-0.38-0.06-0.56
		s-0.11-0.34-0.2-0.48s-0.21-0.25-0.36-0.33c-0.15-0.08-0.33-0.13-0.53-0.13c-0.39,0-0.68,0.12-0.88,0.37
		C90.05,67.87,89.95,68.25,89.95,68.75z"/>
	<path class="st2" d="M95.2,69.04l0.27,0.81l0.25-0.83l0.94-2.25h0.75l-1.84,4.02h-0.3l-1.88-4.02h0.79L95.2,69.04z"/>
	<path class="st2" d="M97.85,68.75c0-0.33,0.04-0.62,0.13-0.87c0.08-0.26,0.21-0.48,0.38-0.66s0.37-0.32,0.6-0.41
		s0.51-0.14,0.81-0.14c0.32,0,0.6,0.05,0.84,0.16c0.24,0.11,0.44,0.25,0.6,0.44c0.16,0.19,0.28,0.41,0.36,0.66
		c0.08,0.25,0.12,0.53,0.12,0.83c0,0.32-0.04,0.61-0.13,0.86c-0.09,0.25-0.21,0.47-0.38,0.65c-0.16,0.18-0.36,0.32-0.6,0.41
		c-0.24,0.09-0.51,0.14-0.81,0.14c-0.33,0-0.62-0.05-0.85-0.16c-0.24-0.1-0.44-0.25-0.6-0.43c-0.16-0.19-0.28-0.4-0.35-0.66
		C97.89,69.32,97.85,69.05,97.85,68.75z M98.6,68.75c0,0.18,0.02,0.37,0.06,0.54c0.04,0.18,0.11,0.34,0.2,0.48
		c0.09,0.14,0.21,0.25,0.36,0.34c0.15,0.08,0.33,0.13,0.55,0.13c0.77,0,1.16-0.49,1.16-1.48c0-0.2-0.02-0.38-0.06-0.56
		s-0.11-0.34-0.2-0.48s-0.21-0.25-0.36-0.33c-0.15-0.08-0.33-0.13-0.53-0.13c-0.39,0-0.68,0.12-0.88,0.37
		C98.7,67.87,98.6,68.25,98.6,68.75z"/>
	<path class="st2" d="M103.57,69.67c0,0.21,0.04,0.35,0.12,0.44s0.18,0.13,0.31,0.13c0.08,0,0.16,0,0.23-0.01
		c0.07-0.01,0.17-0.03,0.27-0.06l0.09,0.51c-0.05,0.02-0.11,0.04-0.18,0.06c-0.07,0.02-0.14,0.03-0.22,0.05
		c-0.08,0.02-0.15,0.03-0.23,0.03c-0.07,0.01-0.14,0.01-0.2,0.01c-0.27,0-0.48-0.07-0.64-0.21c-0.16-0.14-0.24-0.37-0.24-0.69v-4.46
		h0.69V69.67z"/>
	<path class="st2" d="M104.84,66.78h0.67v-0.79l0.69-0.18v0.97h1.19v0.58h-1.19v2.01c0,0.32,0.04,0.54,0.12,0.67
		c0.08,0.13,0.22,0.19,0.41,0.19c0.12,0,0.24-0.01,0.34-0.04s0.22-0.06,0.35-0.11l0.16,0.49c-0.16,0.07-0.33,0.13-0.51,0.18
		c-0.18,0.05-0.38,0.07-0.59,0.07c-0.35,0-0.6-0.1-0.75-0.29c-0.15-0.19-0.22-0.5-0.22-0.93v-2.24h-0.67V66.78z"/>
	<path class="st2" d="M108.31,67.03c0.45-0.21,1.01-0.32,1.67-0.32c0.3,0,0.54,0.04,0.72,0.12c0.18,0.08,0.32,0.18,0.42,0.3
		c0.1,0.12,0.17,0.25,0.2,0.4c0.03,0.15,0.05,0.29,0.05,0.44c0,0.27-0.01,0.55-0.03,0.83c-0.02,0.28-0.03,0.58-0.03,0.9
		c0,0.19,0.01,0.37,0.03,0.55c0.02,0.18,0.05,0.34,0.09,0.49h-0.5l-0.19-0.6h-0.07c-0.06,0.08-0.12,0.15-0.2,0.23
		c-0.08,0.08-0.17,0.15-0.29,0.21c-0.11,0.06-0.24,0.11-0.38,0.15c-0.14,0.04-0.31,0.06-0.49,0.06c-0.18,0-0.35-0.03-0.51-0.08
		s-0.29-0.13-0.4-0.22c-0.11-0.09-0.2-0.21-0.27-0.35s-0.1-0.29-0.1-0.46c0-0.23,0.05-0.42,0.15-0.58c0.1-0.17,0.22-0.3,0.38-0.41
		c0.16-0.1,0.33-0.18,0.53-0.23s0.39-0.08,0.59-0.08c0.15,0,0.29,0,0.39,0.01s0.2,0.01,0.27,0.02c0.07,0.01,0.13,0.01,0.18,0.02
		c0.05,0.01,0.09,0.01,0.13,0.02c0.01-0.08,0.02-0.14,0.02-0.19c0-0.06,0.01-0.12,0.01-0.21c0-0.14-0.02-0.26-0.05-0.35
		c-0.03-0.1-0.08-0.17-0.15-0.23c-0.07-0.06-0.16-0.1-0.27-0.12c-0.11-0.03-0.25-0.04-0.42-0.04c-0.09,0-0.2,0.01-0.31,0.02
		c-0.12,0.02-0.23,0.04-0.35,0.06c-0.11,0.03-0.23,0.06-0.34,0.1s-0.21,0.08-0.3,0.13L108.31,67.03z M110.66,68.93
		c-0.04,0-0.08-0.01-0.13-0.02c-0.04-0.01-0.1-0.02-0.17-0.02c-0.07,0-0.15-0.01-0.24-0.01s-0.2-0.01-0.34-0.01
		c-0.31,0-0.55,0.05-0.73,0.17c-0.18,0.11-0.27,0.3-0.27,0.56c0,0.2,0.07,0.35,0.21,0.45c0.14,0.1,0.32,0.15,0.55,0.15
		c0.16,0,0.31-0.02,0.44-0.06c0.13-0.04,0.24-0.09,0.33-0.16s0.17-0.13,0.22-0.21c0.06-0.08,0.1-0.15,0.13-0.23V68.93z"/>
	<path class="st2" d="M112.77,65.84c0-0.12,0.04-0.22,0.14-0.31c0.09-0.09,0.21-0.14,0.35-0.14c0.14,0,0.26,0.05,0.36,0.14
		c0.09,0.09,0.14,0.2,0.14,0.31s-0.05,0.22-0.14,0.3c-0.09,0.09-0.21,0.13-0.36,0.13c-0.15,0-0.26-0.04-0.35-0.13
		C112.81,66.06,112.77,65.96,112.77,65.84z M112.91,66.78h0.69v3.94h-0.69V66.78z"/>
	<path class="st2" d="M116.21,68.95h-0.43v1.77h-0.69v-5.25h0.69v3.11l0.39-0.13l1.3-1.67h0.81l-1.25,1.52h0.01l-0.41,0.3l0.47,0.34
		l1.39,1.78h-0.87L116.21,68.95z"/>
	<path class="st2" d="M119.23,67.03c0.45-0.21,1.01-0.32,1.67-0.32c0.3,0,0.54,0.04,0.72,0.12c0.18,0.08,0.32,0.18,0.42,0.3
		c0.1,0.12,0.17,0.25,0.2,0.4c0.03,0.15,0.05,0.29,0.05,0.44c0,0.27-0.01,0.55-0.03,0.83c-0.02,0.28-0.03,0.58-0.03,0.9
		c0,0.19,0.01,0.37,0.03,0.55c0.02,0.18,0.05,0.34,0.09,0.49h-0.5l-0.19-0.6h-0.08c-0.05,0.08-0.12,0.15-0.2,0.23
		c-0.08,0.08-0.18,0.15-0.29,0.21c-0.11,0.06-0.24,0.11-0.38,0.15s-0.31,0.06-0.49,0.06c-0.19,0-0.36-0.03-0.51-0.08
		c-0.16-0.05-0.29-0.13-0.4-0.22c-0.11-0.09-0.2-0.21-0.27-0.35c-0.06-0.14-0.1-0.29-0.1-0.46c0-0.23,0.05-0.42,0.15-0.58
		s0.22-0.3,0.38-0.41c0.16-0.1,0.33-0.18,0.53-0.23c0.2-0.05,0.39-0.08,0.59-0.08c0.16,0,0.29,0,0.39,0.01
		c0.11,0,0.2,0.01,0.27,0.02s0.13,0.01,0.18,0.02s0.09,0.01,0.13,0.02c0.01-0.08,0.02-0.14,0.02-0.19c0-0.06,0.01-0.12,0.01-0.21
		c0-0.14-0.01-0.26-0.04-0.35c-0.03-0.1-0.08-0.17-0.15-0.23c-0.07-0.06-0.16-0.1-0.27-0.12c-0.12-0.03-0.25-0.04-0.42-0.04
		c-0.09,0-0.2,0.01-0.32,0.02c-0.12,0.02-0.23,0.04-0.34,0.06c-0.12,0.03-0.23,0.06-0.34,0.1c-0.11,0.04-0.21,0.08-0.3,0.13
		L119.23,67.03z M121.57,68.93c-0.04,0-0.08-0.01-0.13-0.02c-0.04-0.01-0.1-0.02-0.17-0.02c-0.07,0-0.15-0.01-0.24-0.01
		s-0.21-0.01-0.34-0.01c-0.31,0-0.55,0.05-0.73,0.17c-0.18,0.11-0.27,0.3-0.27,0.56c0,0.2,0.07,0.35,0.21,0.45
		c0.14,0.1,0.32,0.15,0.55,0.15c0.16,0,0.31-0.02,0.44-0.06c0.13-0.04,0.24-0.09,0.33-0.16s0.17-0.13,0.22-0.21
		c0.06-0.08,0.1-0.15,0.13-0.23V68.93z"/>
	<path class="st2" d="M126.43,70.72v-2.17c0-0.42-0.07-0.74-0.2-0.95c-0.13-0.21-0.38-0.31-0.72-0.31c-0.3,0-0.56,0.08-0.76,0.24
		c-0.2,0.16-0.34,0.36-0.42,0.6v2.59h-0.69v-3.94h0.48l0.13,0.53h0.07c0.14-0.18,0.33-0.33,0.57-0.45s0.51-0.18,0.84-0.18
		c0.23,0,0.43,0.03,0.61,0.08c0.17,0.05,0.32,0.15,0.44,0.28c0.12,0.13,0.21,0.31,0.27,0.53c0.06,0.22,0.09,0.5,0.09,0.84v2.32
		H126.43z"/>
	<path class="st2" d="M129.22,69.67c0,0.21,0.04,0.35,0.12,0.44c0.08,0.08,0.18,0.13,0.31,0.13c0.08,0,0.16,0,0.23-0.01
		c0.07-0.01,0.17-0.03,0.27-0.06l0.09,0.51c-0.05,0.02-0.11,0.04-0.18,0.06c-0.07,0.02-0.14,0.03-0.22,0.05
		c-0.08,0.02-0.15,0.03-0.22,0.03s-0.14,0.01-0.2,0.01c-0.27,0-0.48-0.07-0.64-0.21c-0.16-0.14-0.24-0.37-0.24-0.69v-4.46h0.69
		V69.67z"/>
	<path class="st2" d="M130.92,67.03c0.45-0.21,1.01-0.32,1.67-0.32c0.3,0,0.54,0.04,0.72,0.12c0.18,0.08,0.32,0.18,0.42,0.3
		c0.1,0.12,0.17,0.25,0.2,0.4c0.03,0.15,0.05,0.29,0.05,0.44c0,0.27-0.01,0.55-0.03,0.83c-0.02,0.28-0.03,0.58-0.03,0.9
		c0,0.19,0.01,0.37,0.03,0.55c0.02,0.18,0.05,0.34,0.09,0.49h-0.5l-0.19-0.6h-0.08c-0.05,0.08-0.12,0.15-0.2,0.23
		c-0.08,0.08-0.18,0.15-0.29,0.21c-0.11,0.06-0.24,0.11-0.38,0.15s-0.31,0.06-0.49,0.06c-0.19,0-0.36-0.03-0.51-0.08
		c-0.16-0.05-0.29-0.13-0.4-0.22c-0.11-0.09-0.2-0.21-0.27-0.35c-0.06-0.14-0.1-0.29-0.1-0.46c0-0.23,0.05-0.42,0.15-0.58
		s0.22-0.3,0.38-0.41c0.16-0.1,0.33-0.18,0.53-0.23c0.2-0.05,0.39-0.08,0.59-0.08c0.16,0,0.29,0,0.39,0.01
		c0.11,0,0.2,0.01,0.27,0.02s0.13,0.01,0.18,0.02s0.09,0.01,0.13,0.02c0.01-0.08,0.02-0.14,0.02-0.19c0-0.06,0.01-0.12,0.01-0.21
		c0-0.14-0.01-0.26-0.04-0.35c-0.03-0.1-0.08-0.17-0.15-0.23c-0.07-0.06-0.16-0.1-0.27-0.12c-0.12-0.03-0.25-0.04-0.42-0.04
		c-0.09,0-0.2,0.01-0.32,0.02c-0.12,0.02-0.23,0.04-0.34,0.06c-0.12,0.03-0.23,0.06-0.34,0.1c-0.11,0.04-0.21,0.08-0.3,0.13
		L130.92,67.03z M133.27,68.93c-0.04,0-0.08-0.01-0.13-0.02c-0.04-0.01-0.1-0.02-0.17-0.02c-0.07,0-0.15-0.01-0.24-0.01
		s-0.21-0.01-0.34-0.01c-0.31,0-0.55,0.05-0.73,0.17c-0.18,0.11-0.27,0.3-0.27,0.56c0,0.2,0.07,0.35,0.21,0.45
		c0.14,0.1,0.32,0.15,0.55,0.15c0.16,0,0.31-0.02,0.44-0.06c0.13-0.04,0.24-0.09,0.33-0.16s0.17-0.13,0.22-0.21
		c0.06-0.08,0.1-0.15,0.13-0.23V68.93z"/>
	<path class="st2" d="M138.7,70.74c0,0.51-0.15,0.9-0.45,1.15c-0.3,0.25-0.75,0.38-1.33,0.38c-0.34,0-0.62-0.02-0.83-0.06
		s-0.39-0.09-0.54-0.17l0.16-0.62c0.07,0.03,0.14,0.06,0.22,0.09s0.17,0.06,0.27,0.09c0.09,0.03,0.19,0.04,0.29,0.06
		c0.1,0.01,0.19,0.02,0.28,0.02c0.25,0,0.45-0.02,0.61-0.06c0.16-0.04,0.29-0.11,0.38-0.2s0.16-0.21,0.19-0.34
		c0.04-0.14,0.05-0.31,0.05-0.5V70.3h-0.08c-0.08,0.13-0.22,0.24-0.42,0.31c-0.2,0.08-0.44,0.12-0.73,0.12
		c-0.57,0-0.99-0.15-1.26-0.46c-0.27-0.31-0.4-0.8-0.4-1.49c0-0.68,0.17-1.2,0.53-1.56c0.35-0.37,0.87-0.55,1.56-0.55
		c0.33,0,0.61,0.02,0.85,0.06s0.45,0.09,0.64,0.16V70.74z M136.94,70.15c0.3,0,0.54-0.08,0.71-0.23c0.17-0.15,0.29-0.36,0.35-0.61
		v-1.93c-0.11-0.04-0.25-0.06-0.39-0.08c-0.15-0.02-0.32-0.03-0.5-0.03c-0.39,0-0.69,0.12-0.91,0.37c-0.22,0.25-0.33,0.63-0.33,1.14
		c0,0.44,0.08,0.78,0.24,1.02C136.27,70.03,136.55,70.15,136.94,70.15z"/>
	<path class="st2" d="M143.23,70.39c-0.17,0.13-0.39,0.23-0.65,0.31c-0.26,0.08-0.54,0.12-0.85,0.12c-0.33,0-0.62-0.05-0.86-0.15
		c-0.24-0.1-0.44-0.24-0.6-0.42c-0.16-0.18-0.27-0.4-0.34-0.65s-0.11-0.54-0.11-0.85c0-0.67,0.17-1.19,0.5-1.55
		c0.33-0.36,0.81-0.54,1.42-0.54c0.19,0,0.39,0.02,0.58,0.06c0.19,0.04,0.37,0.12,0.52,0.24c0.16,0.12,0.28,0.28,0.38,0.48
		s0.15,0.47,0.15,0.8c0,0.08,0,0.17-0.01,0.28c0,0.11-0.01,0.21-0.03,0.31h-2.81c0.01,0.46,0.12,0.81,0.33,1.04
		c0.21,0.23,0.57,0.35,1.07,0.35c0.21,0,0.41-0.04,0.6-0.11s0.34-0.16,0.44-0.26L143.23,70.39z M142.72,68.35
		c0.01-0.4-0.07-0.68-0.24-0.85c-0.17-0.17-0.41-0.25-0.72-0.25c-0.35,0-0.63,0.08-0.83,0.25s-0.33,0.45-0.36,0.85H142.72z"/>
	<path class="st2" d="M147.31,70.72v-2.17c0-0.42-0.07-0.74-0.2-0.95c-0.13-0.21-0.38-0.31-0.72-0.31c-0.3,0-0.56,0.08-0.76,0.24
		c-0.2,0.16-0.34,0.36-0.42,0.6v2.59h-0.69v-3.94H145l0.13,0.53h0.07c0.14-0.18,0.33-0.33,0.57-0.45s0.51-0.18,0.84-0.18
		c0.23,0,0.43,0.03,0.61,0.08c0.17,0.05,0.32,0.15,0.44,0.28c0.12,0.13,0.21,0.31,0.27,0.53c0.06,0.22,0.09,0.5,0.09,0.84v2.32
		H147.31z"/>
	<path class="st2" d="M149.14,68.21h2v0.66h-2V68.21z"/>
	<path class="st2" d="M152.29,65.52c0.11-0.02,0.22-0.04,0.35-0.05c0.13-0.01,0.26-0.03,0.39-0.04c0.13-0.01,0.26-0.02,0.39-0.02
		s0.25-0.01,0.37-0.01c0.25,0,0.49,0.03,0.72,0.08s0.44,0.13,0.61,0.25c0.18,0.12,0.32,0.27,0.43,0.45
		c0.11,0.18,0.16,0.41,0.16,0.68c0,0.21-0.03,0.4-0.1,0.57c-0.07,0.17-0.16,0.32-0.27,0.45c-0.12,0.13-0.25,0.24-0.41,0.33
		c-0.16,0.09-0.33,0.15-0.51,0.2l0.39,0.26l1.41,2.05h-0.86l-1.56-2.21l-0.76-0.1v2.32h-0.75V65.52z M153.8,66.06
		c-0.07,0-0.14,0-0.21,0c-0.07,0-0.14,0-0.21,0.01c-0.07,0.01-0.13,0.01-0.2,0.02c-0.06,0-0.11,0.01-0.14,0.02v1.81h0.62
		c0.18,0,0.35-0.02,0.5-0.06c0.15-0.04,0.29-0.09,0.4-0.17c0.11-0.08,0.2-0.18,0.27-0.3c0.07-0.12,0.1-0.28,0.1-0.46
		c0-0.27-0.09-0.48-0.29-0.64C154.44,66.14,154.16,66.06,153.8,66.06z"/>
	<path class="st2" d="M160.02,70.39c-0.17,0.13-0.39,0.23-0.65,0.31c-0.26,0.08-0.54,0.12-0.85,0.12c-0.33,0-0.62-0.05-0.86-0.15
		s-0.44-0.24-0.6-0.42c-0.16-0.18-0.27-0.4-0.35-0.65s-0.11-0.54-0.11-0.85c0-0.67,0.17-1.19,0.5-1.55
		c0.33-0.36,0.81-0.54,1.42-0.54c0.2,0,0.39,0.02,0.58,0.06c0.2,0.04,0.37,0.12,0.53,0.24c0.15,0.12,0.28,0.28,0.38,0.48
		c0.1,0.21,0.15,0.47,0.15,0.8c0,0.08,0,0.17-0.01,0.28c0,0.11-0.02,0.21-0.03,0.31h-2.81c0.01,0.46,0.12,0.81,0.33,1.04
		c0.21,0.23,0.57,0.35,1.07,0.35c0.21,0,0.41-0.04,0.6-0.11c0.19-0.07,0.34-0.16,0.44-0.26L160.02,70.39z M159.5,68.35
		c0.01-0.4-0.07-0.68-0.24-0.85s-0.41-0.25-0.72-0.25c-0.35,0-0.63,0.08-0.83,0.25s-0.33,0.45-0.36,0.85H159.5z"/>
	<path class="st2" d="M161.35,65.84c0-0.12,0.04-0.22,0.14-0.31c0.09-0.09,0.21-0.14,0.35-0.14c0.14,0,0.26,0.05,0.36,0.14
		c0.09,0.09,0.14,0.2,0.14,0.31s-0.05,0.22-0.14,0.3c-0.09,0.09-0.21,0.13-0.36,0.13c-0.15,0-0.26-0.04-0.35-0.13
		C161.4,66.06,161.35,65.96,161.35,65.84z M161.5,66.78h0.69v3.94h-0.69V66.78z"/>
	<path class="st2" d="M166.48,70.72v-2.17c0-0.42-0.07-0.74-0.2-0.95c-0.13-0.21-0.38-0.31-0.72-0.31c-0.3,0-0.56,0.08-0.76,0.24
		c-0.2,0.16-0.34,0.36-0.42,0.6v2.59h-0.69v-3.94h0.48l0.13,0.53h0.07c0.14-0.18,0.33-0.33,0.57-0.45s0.51-0.18,0.84-0.18
		c0.23,0,0.43,0.03,0.61,0.08c0.17,0.05,0.32,0.15,0.44,0.28c0.12,0.13,0.21,0.31,0.27,0.53c0.06,0.22,0.09,0.5,0.09,0.84v2.32
		H166.48z"/>
	<path class="st2" d="M168.54,65.84c0-0.12,0.04-0.22,0.13-0.31c0.09-0.09,0.21-0.14,0.35-0.14c0.14,0,0.26,0.05,0.36,0.14
		c0.09,0.09,0.14,0.2,0.14,0.31s-0.05,0.22-0.14,0.3c-0.1,0.09-0.22,0.13-0.36,0.13c-0.15,0-0.26-0.04-0.35-0.13
		C168.58,66.06,168.54,65.96,168.54,65.84z M168.68,66.78h0.69v3.94h-0.69V66.78z"/>
	<path class="st2" d="M174.23,70.74c0,0.51-0.15,0.9-0.45,1.15c-0.3,0.25-0.75,0.38-1.33,0.38c-0.34,0-0.62-0.02-0.83-0.06
		s-0.39-0.09-0.54-0.17l0.17-0.62c0.06,0.03,0.14,0.06,0.22,0.09c0.08,0.03,0.17,0.06,0.27,0.09c0.09,0.03,0.19,0.04,0.29,0.06
		c0.1,0.01,0.19,0.02,0.28,0.02c0.24,0,0.45-0.02,0.61-0.06c0.16-0.04,0.29-0.11,0.38-0.2s0.16-0.21,0.19-0.34
		c0.03-0.14,0.05-0.31,0.05-0.5V70.3h-0.08c-0.08,0.13-0.22,0.24-0.42,0.31c-0.2,0.08-0.44,0.12-0.73,0.12
		c-0.57,0-0.99-0.15-1.26-0.46s-0.4-0.8-0.4-1.49c0-0.68,0.17-1.2,0.52-1.56s0.87-0.55,1.56-0.55c0.33,0,0.61,0.02,0.85,0.06
		s0.45,0.09,0.64,0.16V70.74z M172.47,70.15c0.3,0,0.54-0.08,0.71-0.23c0.17-0.15,0.29-0.36,0.35-0.61v-1.93
		c-0.11-0.04-0.25-0.06-0.39-0.08c-0.15-0.02-0.32-0.03-0.5-0.03c-0.39,0-0.69,0.12-0.91,0.37c-0.22,0.25-0.33,0.63-0.33,1.14
		c0,0.44,0.08,0.78,0.24,1.02C171.81,70.03,172.08,70.15,172.47,70.15z"/>
	<path class="st2" d="M176.26,66.78v2.17c0,0.21,0.01,0.39,0.04,0.55s0.07,0.29,0.13,0.4c0.07,0.11,0.15,0.19,0.27,0.25
		s0.26,0.09,0.43,0.09c0.3,0,0.54-0.08,0.73-0.25c0.19-0.17,0.33-0.38,0.44-0.63v-2.57h0.69v2.82c0,0.19,0.01,0.38,0.02,0.58
		c0.02,0.2,0.04,0.38,0.07,0.54h-0.46l-0.18-0.65h-0.08c-0.13,0.22-0.31,0.41-0.54,0.55c-0.23,0.14-0.52,0.21-0.86,0.21
		c-0.23,0-0.43-0.03-0.6-0.08c-0.17-0.05-0.32-0.15-0.44-0.28s-0.21-0.31-0.26-0.53c-0.06-0.22-0.09-0.5-0.09-0.83v-2.33H176.26z"/>
	<path class="st2" d="M183.19,70.72v-2.17c0-0.42-0.07-0.74-0.2-0.95s-0.38-0.31-0.72-0.31c-0.31,0-0.56,0.08-0.76,0.24
		c-0.2,0.16-0.34,0.36-0.42,0.6v2.59h-0.69v-3.94h0.48l0.13,0.53h0.07c0.15-0.18,0.33-0.33,0.57-0.45s0.51-0.18,0.84-0.18
		c0.23,0,0.43,0.03,0.61,0.08c0.17,0.05,0.32,0.15,0.44,0.28c0.12,0.13,0.21,0.31,0.27,0.53c0.06,0.22,0.09,0.5,0.09,0.84v2.32
		H183.19z"/>
	<path class="st2" d="M188.57,70.74c0,0.51-0.15,0.9-0.45,1.15c-0.3,0.25-0.75,0.38-1.33,0.38c-0.34,0-0.62-0.02-0.83-0.06
		s-0.39-0.09-0.54-0.17l0.17-0.62c0.06,0.03,0.14,0.06,0.22,0.09c0.08,0.03,0.17,0.06,0.27,0.09c0.09,0.03,0.19,0.04,0.29,0.06
		c0.1,0.01,0.19,0.02,0.28,0.02c0.24,0,0.45-0.02,0.61-0.06c0.16-0.04,0.29-0.11,0.38-0.2s0.16-0.21,0.19-0.34
		c0.03-0.14,0.05-0.31,0.05-0.5V70.3h-0.08c-0.08,0.13-0.22,0.24-0.42,0.31c-0.2,0.08-0.44,0.12-0.73,0.12
		c-0.57,0-0.99-0.15-1.26-0.46s-0.4-0.8-0.4-1.49c0-0.68,0.17-1.2,0.52-1.56s0.87-0.55,1.56-0.55c0.33,0,0.61,0.02,0.85,0.06
		s0.45,0.09,0.64,0.16V70.74z M186.81,70.15c0.3,0,0.54-0.08,0.71-0.23c0.17-0.15,0.29-0.36,0.35-0.61v-1.93
		c-0.11-0.04-0.25-0.06-0.39-0.08c-0.15-0.02-0.32-0.03-0.5-0.03c-0.39,0-0.69,0.12-0.91,0.37c-0.22,0.25-0.33,0.63-0.33,1.14
		c0,0.44,0.08,0.78,0.24,1.02C186.15,70.03,186.42,70.15,186.81,70.15z"/>
</g>
<g>
	<path class="st0" d="M123.26,23.68c0.21-0.04,0.44-0.08,0.69-0.09c0.25-0.02,0.49-0.03,0.73-0.03c0.25,0,0.51,0.02,0.78,0.07
		s0.5,0.13,0.72,0.25c0.21,0.12,0.39,0.29,0.53,0.5c0.14,0.21,0.21,0.49,0.21,0.82c0,0.32-0.06,0.58-0.19,0.81s-0.29,0.4-0.5,0.54
		c-0.21,0.14-0.45,0.24-0.71,0.31c-0.27,0.07-0.54,0.1-0.83,0.1c-0.03,0-0.08,0-0.14,0c-0.06,0-0.13,0-0.19-0.01
		c-0.07,0-0.13-0.01-0.2-0.01s-0.11-0.01-0.14-0.01v1.96h-0.75V23.68z M124.7,24.22c-0.13,0-0.27,0-0.39,0.01
		c-0.13,0-0.23,0.02-0.3,0.04v1.99c0.02,0.01,0.07,0.02,0.12,0.02c0.06,0,0.12,0.01,0.18,0.01s0.12,0.01,0.18,0.01s0.1,0,0.13,0
		c0.18,0,0.36-0.01,0.53-0.04s0.33-0.08,0.48-0.16c0.14-0.08,0.26-0.19,0.35-0.33c0.09-0.14,0.13-0.33,0.13-0.55
		c0-0.2-0.04-0.36-0.13-0.49c-0.09-0.13-0.2-0.23-0.33-0.3c-0.14-0.07-0.29-0.12-0.45-0.15C125.03,24.24,124.87,24.22,124.7,24.22z"
		/>
	<path class="st0" d="M130.8,28.56c-0.17,0.13-0.39,0.23-0.65,0.31c-0.26,0.08-0.54,0.12-0.85,0.12c-0.33,0-0.62-0.05-0.86-0.15
		c-0.24-0.1-0.44-0.24-0.6-0.42c-0.16-0.18-0.27-0.4-0.34-0.65s-0.11-0.54-0.11-0.85c0-0.67,0.17-1.19,0.5-1.55
		c0.33-0.36,0.81-0.54,1.42-0.54c0.19,0,0.39,0.02,0.58,0.06c0.19,0.04,0.37,0.12,0.52,0.24c0.16,0.12,0.28,0.28,0.38,0.48
		s0.15,0.47,0.15,0.8c0,0.08,0,0.17-0.01,0.28c0,0.11-0.01,0.21-0.03,0.31h-2.81c0.01,0.46,0.12,0.81,0.33,1.04
		c0.21,0.23,0.57,0.35,1.07,0.35c0.21,0,0.41-0.04,0.6-0.11s0.34-0.16,0.44-0.26L130.8,28.56z M130.28,26.51
		c0.01-0.4-0.07-0.68-0.24-0.85c-0.17-0.17-0.41-0.25-0.72-0.25c-0.35,0-0.63,0.08-0.83,0.25s-0.33,0.45-0.36,0.85H130.28z"/>
	<path class="st0" d="M131.6,24.94h0.67v-0.79l0.69-0.18v0.97h1.19v0.58h-1.19v2.01c0,0.32,0.04,0.54,0.12,0.67s0.22,0.19,0.41,0.19
		c0.12,0,0.24-0.01,0.34-0.04s0.22-0.06,0.35-0.11l0.16,0.49c-0.16,0.07-0.33,0.13-0.51,0.18c-0.18,0.05-0.38,0.07-0.59,0.07
		c-0.35,0-0.6-0.1-0.75-0.29c-0.15-0.19-0.22-0.5-0.22-0.93v-2.24h-0.67V24.94z"/>
	<path class="st0" d="M138.25,28.56c-0.17,0.13-0.39,0.23-0.65,0.31c-0.26,0.08-0.54,0.12-0.85,0.12c-0.33,0-0.62-0.05-0.86-0.15
		s-0.44-0.24-0.6-0.42c-0.16-0.18-0.27-0.4-0.35-0.65s-0.11-0.54-0.11-0.85c0-0.67,0.17-1.19,0.5-1.55
		c0.33-0.36,0.81-0.54,1.42-0.54c0.2,0,0.39,0.02,0.58,0.06c0.2,0.04,0.37,0.12,0.53,0.24c0.15,0.12,0.28,0.28,0.38,0.48
		c0.1,0.21,0.15,0.47,0.15,0.8c0,0.08,0,0.17-0.01,0.28c0,0.11-0.02,0.21-0.03,0.31h-2.81c0.01,0.46,0.12,0.81,0.33,1.04
		c0.21,0.23,0.57,0.35,1.07,0.35c0.21,0,0.41-0.04,0.6-0.11c0.19-0.07,0.34-0.16,0.44-0.26L138.25,28.56z M137.73,26.51
		c0.01-0.4-0.07-0.68-0.24-0.85s-0.41-0.25-0.72-0.25c-0.35,0-0.63,0.08-0.83,0.25s-0.33,0.45-0.36,0.85H137.73z"/>
	<path class="st0" d="M141.59,25.6c-0.08-0.02-0.17-0.04-0.25-0.06c-0.08-0.02-0.15-0.03-0.22-0.03c-0.26,0-0.47,0.07-0.62,0.2
		c-0.15,0.13-0.24,0.3-0.27,0.51v2.66h-0.69v-3.94h0.48l0.13,0.53h0.07c0.12-0.2,0.25-0.35,0.4-0.45s0.34-0.16,0.57-0.16
		c0.07,0,0.15,0.01,0.25,0.02c0.1,0.01,0.19,0.03,0.29,0.06L141.59,25.6z"/>
	<path class="st0" d="M144.84,27.46c0-0.2,0.04-0.39,0.11-0.57c0.08-0.18,0.18-0.35,0.3-0.5s0.28-0.3,0.44-0.43
		c0.17-0.13,0.34-0.24,0.53-0.34c-0.13-0.17-0.24-0.35-0.33-0.53c-0.09-0.18-0.14-0.37-0.14-0.57c0-0.12,0.02-0.24,0.07-0.36
		c0.04-0.12,0.12-0.22,0.21-0.31s0.22-0.17,0.38-0.23c0.15-0.06,0.34-0.09,0.56-0.09c0.23,0,0.42,0.03,0.58,0.08
		c0.16,0.05,0.28,0.13,0.38,0.21c0.09,0.09,0.16,0.19,0.2,0.3s0.06,0.22,0.06,0.33c0,0.21-0.09,0.42-0.26,0.64
		c-0.17,0.23-0.45,0.44-0.84,0.63c0.19,0.29,0.41,0.58,0.67,0.87s0.51,0.56,0.78,0.81c0.06-0.06,0.12-0.14,0.18-0.23
		c0.06-0.09,0.12-0.19,0.18-0.29c0.06-0.11,0.11-0.21,0.16-0.32c0.05-0.11,0.09-0.21,0.13-0.31l0.54,0.28
		c-0.03,0.08-0.08,0.18-0.14,0.3c-0.06,0.12-0.13,0.23-0.2,0.35c-0.07,0.12-0.15,0.23-0.22,0.34s-0.15,0.2-0.21,0.27
		c0.11,0.09,0.21,0.18,0.3,0.24s0.17,0.13,0.25,0.18c0.08,0.05,0.15,0.09,0.22,0.13s0.14,0.08,0.22,0.11l-0.42,0.51
		c-0.14-0.07-0.29-0.16-0.46-0.28c-0.17-0.12-0.34-0.25-0.51-0.41c-0.1,0.09-0.21,0.18-0.33,0.26c-0.12,0.08-0.25,0.16-0.4,0.22
		s-0.31,0.11-0.49,0.15s-0.38,0.06-0.59,0.06c-0.26,0-0.5-0.03-0.74-0.1c-0.23-0.07-0.43-0.17-0.61-0.3s-0.31-0.29-0.42-0.48
		S144.84,27.7,144.84,27.46z M148.13,27.86c-0.15-0.14-0.3-0.29-0.46-0.46c-0.15-0.17-0.3-0.33-0.43-0.49
		c-0.14-0.16-0.26-0.32-0.38-0.47c-0.12-0.15-0.22-0.28-0.3-0.4c-0.3,0.2-0.54,0.41-0.73,0.63c-0.19,0.22-0.28,0.47-0.28,0.77
		c0,0.15,0.04,0.28,0.1,0.4c0.07,0.12,0.17,0.22,0.28,0.3c0.12,0.08,0.26,0.15,0.41,0.19s0.32,0.06,0.5,0.06
		c0.13,0,0.26-0.02,0.39-0.05c0.13-0.03,0.25-0.07,0.36-0.12c0.11-0.05,0.21-0.11,0.3-0.17C147.99,27.99,148.06,27.93,148.13,27.86z
		 M146.46,24.53c0,0.14,0.03,0.28,0.1,0.42c0.06,0.14,0.15,0.28,0.26,0.42c0.28-0.16,0.48-0.3,0.59-0.44
		c0.11-0.13,0.17-0.24,0.17-0.34c0-0.16-0.04-0.29-0.12-0.38c-0.08-0.09-0.23-0.14-0.44-0.14c-0.19,0-0.33,0.04-0.42,0.12
		C146.5,24.28,146.46,24.39,146.46,24.53z"/>
	<path class="st0" d="M156.85,26.53h-2.66v2.35h-0.75v-5.25h0.75v2.24h2.66v-2.24h0.75v5.25h-0.75V26.53z"/>
	<path class="st0" d="M158.88,25.19c0.45-0.21,1.01-0.32,1.67-0.32c0.3,0,0.54,0.04,0.72,0.12c0.18,0.08,0.32,0.18,0.42,0.3
		c0.1,0.12,0.17,0.25,0.2,0.4c0.03,0.15,0.05,0.29,0.05,0.44c0,0.27-0.01,0.55-0.03,0.83c-0.02,0.28-0.03,0.58-0.03,0.9
		c0,0.19,0.01,0.37,0.03,0.55c0.02,0.18,0.05,0.34,0.09,0.49h-0.5l-0.19-0.6h-0.08c-0.05,0.08-0.12,0.15-0.2,0.23
		c-0.08,0.08-0.18,0.15-0.29,0.21c-0.11,0.06-0.24,0.11-0.38,0.15s-0.31,0.06-0.49,0.06c-0.19,0-0.36-0.03-0.51-0.08
		c-0.16-0.05-0.29-0.13-0.4-0.22c-0.11-0.09-0.2-0.21-0.27-0.35c-0.06-0.14-0.1-0.29-0.1-0.46c0-0.23,0.05-0.42,0.15-0.58
		s0.22-0.3,0.38-0.41c0.16-0.1,0.33-0.18,0.53-0.23c0.2-0.05,0.39-0.08,0.59-0.08c0.16,0,0.29,0,0.39,0.01
		c0.11,0,0.2,0.01,0.27,0.02s0.13,0.01,0.18,0.02s0.09,0.01,0.13,0.02c0.01-0.08,0.02-0.14,0.02-0.19c0-0.06,0.01-0.12,0.01-0.21
		c0-0.14-0.01-0.26-0.04-0.35c-0.03-0.1-0.08-0.17-0.15-0.23c-0.07-0.06-0.16-0.1-0.27-0.12c-0.12-0.03-0.25-0.04-0.42-0.04
		c-0.09,0-0.2,0.01-0.32,0.02c-0.12,0.02-0.23,0.04-0.34,0.06c-0.12,0.03-0.23,0.06-0.34,0.1c-0.11,0.04-0.21,0.08-0.3,0.13
		L158.88,25.19z M161.23,27.1c-0.04,0-0.08-0.01-0.13-0.02c-0.04-0.01-0.1-0.02-0.17-0.02c-0.07,0-0.15-0.01-0.24-0.01
		s-0.21-0.01-0.34-0.01c-0.31,0-0.55,0.05-0.73,0.17c-0.18,0.11-0.27,0.3-0.27,0.56c0,0.2,0.07,0.35,0.21,0.45
		c0.14,0.1,0.32,0.15,0.55,0.15c0.16,0,0.31-0.02,0.44-0.06c0.13-0.04,0.24-0.09,0.33-0.16s0.17-0.13,0.22-0.21
		c0.06-0.08,0.1-0.15,0.13-0.23V27.1z"/>
	<path class="st0" d="M166.09,28.88v-2.17c0-0.42-0.07-0.74-0.2-0.95c-0.13-0.21-0.38-0.31-0.72-0.31c-0.3,0-0.56,0.08-0.76,0.24
		c-0.2,0.16-0.34,0.36-0.42,0.6v2.59h-0.69v-3.94h0.48l0.13,0.53h0.07c0.14-0.18,0.33-0.33,0.57-0.45s0.51-0.18,0.84-0.18
		c0.23,0,0.43,0.03,0.61,0.08c0.17,0.05,0.32,0.15,0.44,0.28c0.12,0.13,0.21,0.31,0.27,0.53c0.06,0.22,0.09,0.5,0.09,0.84v2.32
		H166.09z"/>
	<path class="st0" d="M170.89,28.88v-2.17c0-0.42-0.07-0.74-0.2-0.95c-0.13-0.21-0.38-0.31-0.72-0.31c-0.3,0-0.56,0.08-0.76,0.24
		c-0.2,0.16-0.34,0.36-0.42,0.6v2.59h-0.69v-3.94h0.48l0.13,0.53h0.07c0.14-0.18,0.33-0.33,0.57-0.45s0.51-0.18,0.84-0.18
		c0.23,0,0.43,0.03,0.61,0.08c0.17,0.05,0.32,0.15,0.44,0.28c0.12,0.13,0.21,0.31,0.27,0.53c0.06,0.22,0.09,0.5,0.09,0.84v2.32
		H170.89z"/>
	<path class="st0" d="M176.11,28.56c-0.17,0.13-0.39,0.23-0.65,0.31c-0.26,0.08-0.54,0.12-0.85,0.12c-0.33,0-0.62-0.05-0.86-0.15
		c-0.24-0.1-0.44-0.24-0.6-0.42c-0.16-0.18-0.27-0.4-0.34-0.65s-0.11-0.54-0.11-0.85c0-0.67,0.17-1.19,0.5-1.55
		c0.33-0.36,0.81-0.54,1.42-0.54c0.19,0,0.39,0.02,0.58,0.06c0.19,0.04,0.37,0.12,0.52,0.24c0.16,0.12,0.28,0.28,0.38,0.48
		s0.15,0.47,0.15,0.8c0,0.08,0,0.17-0.01,0.28c0,0.11-0.01,0.21-0.03,0.31h-2.81c0.01,0.46,0.12,0.81,0.33,1.04
		c0.21,0.23,0.57,0.35,1.07,0.35c0.21,0,0.41-0.04,0.6-0.11s0.34-0.16,0.44-0.26L176.11,28.56z M175.59,26.51
		c0.01-0.4-0.07-0.68-0.24-0.85c-0.17-0.17-0.41-0.25-0.72-0.25c-0.35,0-0.63,0.08-0.83,0.25s-0.33,0.45-0.36,0.85H175.59z"/>
	<path class="st0" d="M179.38,27.78c0-0.1-0.02-0.18-0.07-0.25c-0.05-0.07-0.11-0.12-0.19-0.17c-0.08-0.05-0.17-0.09-0.28-0.12
		c-0.11-0.03-0.21-0.07-0.33-0.1c-0.15-0.04-0.29-0.08-0.44-0.13c-0.15-0.05-0.28-0.11-0.4-0.19c-0.12-0.08-0.21-0.19-0.29-0.32
		c-0.08-0.13-0.11-0.29-0.11-0.49c0-0.39,0.12-0.68,0.35-0.87c0.23-0.19,0.56-0.29,0.98-0.29c0.32,0,0.58,0.03,0.79,0.09
		s0.4,0.12,0.56,0.2l-0.17,0.58c-0.13-0.07-0.3-0.13-0.48-0.19s-0.39-0.09-0.62-0.09c-0.25,0-0.43,0.04-0.55,0.12
		c-0.12,0.08-0.18,0.22-0.18,0.43c0,0.08,0.02,0.16,0.07,0.21s0.11,0.11,0.18,0.15c0.08,0.04,0.16,0.08,0.26,0.11
		c0.1,0.03,0.2,0.06,0.31,0.09c0.15,0.04,0.3,0.09,0.45,0.14c0.15,0.05,0.29,0.12,0.41,0.21s0.23,0.2,0.3,0.33
		c0.08,0.13,0.12,0.3,0.12,0.51c0,0.37-0.12,0.67-0.38,0.9s-0.62,0.35-1.12,0.35c-0.32,0-0.6-0.03-0.84-0.1
		c-0.24-0.07-0.44-0.14-0.6-0.23l0.2-0.6c0.14,0.08,0.32,0.15,0.54,0.22s0.44,0.11,0.67,0.11c0.24,0,0.45-0.04,0.6-0.13
		C179.3,28.18,179.38,28.02,179.38,27.78z"/>
</g>
<path class="st3" d="M63.08,42.12c0-5.37-2.46-10.16-6.32-13.31l-1.38,3.64c-0.38-0.22-0.87-0.46-1.47-0.7
	c-0.59-0.24-1.28-0.45-2.04-0.62c-0.77-0.18-1.59-0.32-2.45-0.43c-0.86-0.11-1.75-0.17-2.64-0.17c-1.6,0-2.85,0.28-3.73,0.84
	c-0.88,0.56-1.32,1.34-1.32,2.33s0.42,1.79,1.25,2.38c0.83,0.59,1.87,1.14,3.1,1.64c1.23,0.5,2.57,0.99,4.02,1.49
	c1.44,0.5,2.78,1.14,4.02,1.92c1.23,0.79,2.27,1.77,3.1,2.96c0.83,1.19,1.25,2.71,1.25,4.57c0,1.86-0.32,3.46-0.96,4.81
	c-0.64,1.35-1.55,2.46-2.72,3.34c-0.05,0.03-0.1,0.07-0.15,0.1C59.69,53.92,63.08,48.42,63.08,42.12"/>
<g>
	<defs>
		<path id="SVGID_1_" d="M55.38,32.45c-0.39-0.22-0.87-0.46-1.47-0.7c-0.59-0.24-1.27-0.45-2.04-0.62
			c-0.77-0.18-1.59-0.32-2.45-0.43c-0.87-0.11-1.75-0.17-2.65-0.17c-1.6,0-2.85,0.28-3.73,0.84c-0.88,0.56-1.32,1.34-1.32,2.33
			c0,0.99,0.42,1.79,1.25,2.38c0.83,0.59,1.87,1.14,3.1,1.63c1.23,0.5,2.57,1,4.02,1.49c1.44,0.5,2.78,1.14,4.02,1.92
			c1.23,0.78,2.27,1.77,3.1,2.96c0.83,1.19,1.25,2.71,1.25,4.57c0,1.86-0.32,3.46-0.96,4.81c-0.64,1.35-1.55,2.46-2.72,3.34
			c-0.05,0.04-0.1,0.07-0.15,0.1c5.06-2.99,8.45-8.49,8.45-14.79c0-5.37-2.46-10.16-6.32-13.31L55.38,32.45z"/>
	</defs>
	<clipPath id="SVGID_00000092414973675283852540000016571759899566258842_">
		<use xlink:href="#SVGID_1_"  style="overflow:visible;"/>
	</clipPath>
	<path style="clip-path:url(#SVGID_00000092414973675283852540000016571759899566258842_);fill:#161E61;" d="M41.64,31.21
		c-0.58,0.15-0.92,0.75-0.76,1.32l0.83,3.08c0.15,0.58,0.74,0.92,1.32,0.76l3.07-0.82c0.58-0.15,0.92-0.75,0.76-1.32l-0.82-3.08
		c-0.16-0.58-0.75-0.92-1.32-0.76L41.64,31.21z"/>
	<path style="clip-path:url(#SVGID_00000092414973675283852540000016571759899566258842_);fill:#161E61;" d="M47.18,29.73
		c-0.58,0.15-0.92,0.75-0.76,1.32l0.83,3.08c0.15,0.58,0.74,0.92,1.32,0.76l3.07-0.82c0.58-0.15,0.92-0.75,0.76-1.32l-0.82-3.08
		c-0.15-0.58-0.75-0.92-1.32-0.76L47.18,29.73z"/>
	<path style="clip-path:url(#SVGID_00000092414973675283852540000016571759899566258842_);fill:#161E61;" d="M52.73,28.24
		c-0.58,0.15-0.92,0.75-0.76,1.32l0.83,3.08c0.15,0.58,0.74,0.92,1.32,0.76l3.07-0.82c0.58-0.15,0.92-0.75,0.76-1.32l-0.82-3.08
		c-0.16-0.58-0.75-0.92-1.32-0.76L52.73,28.24z"/>
	<path style="clip-path:url(#SVGID_00000092414973675283852540000016571759899566258842_);fill:#161E61;" d="M58.27,26.76
		c-0.58,0.15-0.92,0.75-0.76,1.32l0.83,3.08c0.15,0.58,0.74,0.92,1.32,0.76l3.07-0.82c0.58-0.15,0.92-0.75,0.76-1.32l-0.82-3.08
		c-0.15-0.58-0.75-0.92-1.32-0.76L58.27,26.76z"/>
	<path style="clip-path:url(#SVGID_00000092414973675283852540000016571759899566258842_);fill:#161E61;" d="M43.13,36.76
		c-0.58,0.15-0.92,0.75-0.76,1.32l0.83,3.08c0.15,0.58,0.74,0.92,1.32,0.76l3.07-0.82c0.58-0.15,0.92-0.75,0.76-1.32l-0.82-3.08
		c-0.16-0.58-0.75-0.92-1.32-0.76L43.13,36.76z"/>
	<path style="clip-path:url(#SVGID_00000092414973675283852540000016571759899566258842_);fill:#161E61;" d="M48.67,35.28
		c-0.58,0.15-0.92,0.75-0.76,1.32l0.83,3.08c0.15,0.58,0.74,0.92,1.32,0.76l3.07-0.82c0.58-0.15,0.92-0.75,0.76-1.32l-0.82-3.08
		c-0.15-0.58-0.75-0.92-1.32-0.76L48.67,35.28z"/>
	<path style="clip-path:url(#SVGID_00000092414973675283852540000016571759899566258842_);fill:#161E61;" d="M54.21,33.79
		c-0.58,0.15-0.92,0.75-0.76,1.32l0.83,3.08c0.15,0.58,0.74,0.92,1.32,0.76l3.07-0.82c0.58-0.15,0.92-0.75,0.76-1.32l-0.82-3.08
		c-0.16-0.58-0.75-0.92-1.32-0.76L54.21,33.79z"/>
	<path style="clip-path:url(#SVGID_00000092414973675283852540000016571759899566258842_);fill:#161E61;" d="M59.75,32.31
		c-0.58,0.15-0.92,0.75-0.76,1.32l0.83,3.08c0.15,0.58,0.74,0.92,1.32,0.76l3.07-0.82c0.58-0.15,0.92-0.75,0.76-1.32l-0.82-3.08
		c-0.16-0.58-0.75-0.92-1.32-0.76L59.75,32.31z"/>
	<path style="clip-path:url(#SVGID_00000092414973675283852540000016571759899566258842_);fill:#161E61;" d="M50.16,40.83
		c-0.58,0.15-0.92,0.75-0.76,1.32l0.83,3.08c0.15,0.58,0.74,0.92,1.32,0.76l3.07-0.82c0.58-0.15,0.92-0.75,0.76-1.32l-0.82-3.08
		c-0.15-0.58-0.75-0.92-1.32-0.76L50.16,40.83z"/>
	<path style="clip-path:url(#SVGID_00000092414973675283852540000016571759899566258842_);fill:#161E61;" d="M55.7,39.35
		c-0.58,0.15-0.92,0.75-0.76,1.32l0.83,3.08c0.15,0.58,0.74,0.92,1.32,0.76l3.07-0.82c0.58-0.15,0.92-0.75,0.76-1.32l-0.82-3.08
		c-0.16-0.57-0.75-0.92-1.32-0.76L55.7,39.35z"/>
	<path style="clip-path:url(#SVGID_00000092414973675283852540000016571759899566258842_);fill:#161E61;" d="M61.24,37.86
		c-0.58,0.15-0.92,0.75-0.76,1.32l0.83,3.08c0.15,0.58,0.74,0.92,1.32,0.76l3.07-0.82c0.58-0.15,0.92-0.75,0.76-1.32l-0.82-3.08
		c-0.16-0.58-0.75-0.92-1.32-0.76L61.24,37.86z"/>
	<path style="clip-path:url(#SVGID_00000092414973675283852540000016571759899566258842_);fill:#161E61;" d="M53.13,51.93
		c-0.58,0.15-0.92,0.74-0.76,1.32l0.83,3.08c0.15,0.58,0.74,0.92,1.32,0.76l3.07-0.82c0.58-0.15,0.92-0.75,0.76-1.32l-0.82-3.08
		c-0.15-0.58-0.75-0.92-1.32-0.76L53.13,51.93z"/>
	<path style="clip-path:url(#SVGID_00000092414973675283852540000016571759899566258842_);fill:#161E61;" d="M57.19,44.9
		c-0.58,0.15-0.92,0.74-0.76,1.32l0.83,3.08c0.15,0.58,0.74,0.92,1.32,0.76l3.07-0.82c0.58-0.15,0.92-0.75,0.76-1.32l-0.82-3.08
		c-0.15-0.58-0.75-0.92-1.32-0.76L57.19,44.9z"/>
	<path style="clip-path:url(#SVGID_00000092414973675283852540000016571759899566258842_);fill:#161E61;" d="M58.68,50.45
		c-0.58,0.15-0.92,0.75-0.76,1.32l0.83,3.08c0.15,0.58,0.74,0.92,1.32,0.76l3.07-0.82c0.58-0.15,0.92-0.75,0.76-1.32l-0.82-3.08
		c-0.15-0.58-0.75-0.92-1.32-0.76L58.68,50.45z"/>
	<path style="clip-path:url(#SVGID_00000092414973675283852540000016571759899566258842_);fill:#161E61;" d="M62.73,43.41
		c-0.58,0.15-0.92,0.75-0.76,1.32l0.83,3.08c0.15,0.58,0.74,0.92,1.32,0.76l3.07-0.82c0.58-0.15,0.92-0.75,0.76-1.32l-0.82-3.08
		c-0.15-0.58-0.75-0.92-1.32-0.76L62.73,43.41z"/>
</g>
<g>
	<defs>
		<path id="SVGID_00000029754220147462636450000006950777566184279200_" d="M28.73,42.12c0,5.18,2.29,9.82,5.92,12.96l1.5-3.82
			c0.35,0.19,0.84,0.4,1.47,0.62c0.62,0.22,1.32,0.44,2.09,0.65c0.77,0.21,1.59,0.38,2.48,0.51c0.88,0.13,1.77,0.19,2.67,0.19
			c2.12,0,3.73-0.3,4.83-0.91c1.11-0.61,1.66-1.56,1.66-2.84c0-0.99-0.42-1.78-1.25-2.36c-0.83-0.58-1.87-1.11-3.1-1.59
			c-1.24-0.48-2.57-0.96-4.02-1.44c-1.44-0.48-2.78-1.12-4.02-1.92c-1.23-0.8-2.27-1.81-3.1-3.03c-0.83-1.22-1.25-2.81-1.25-4.76
			c0-1.67,0.3-3.13,0.89-4.4c0.58-1.24,1.4-2.27,2.44-3.08C32.46,29.78,28.73,35.51,28.73,42.12"/>
	</defs>
	<clipPath id="SVGID_00000070834574802636272920000017285630966581868978_">
		<use xlink:href="#SVGID_00000029754220147462636450000006950777566184279200_"  style="overflow:visible;"/>
	</clipPath>
	
		<linearGradient id="SVGID_00000025438919944727138410000009177974928616967310_" gradientUnits="userSpaceOnUse" x1="-199.1501" y1="449.8268" x2="-198.1501" y2="449.8268" gradientTransform="matrix(-22.6136 0 0 22.6136 -4452.1621 -10131.2197)">
		<stop  offset="0" style="stop-color:#73A24B"/>
		<stop  offset="0.3407" style="stop-color:#73A24B"/>
		<stop  offset="1" style="stop-color:#3E7023"/>
	</linearGradient>
	
		<rect x="28.73" y="26.9" style="clip-path:url(#SVGID_00000070834574802636272920000017285630966581868978_);fill:url(#SVGID_00000025438919944727138410000009177974928616967310_);" width="22.61" height="28.18"/>
</g>
<g>
	<defs>
		<path id="SVGID_00000023274512826273348290000002190977912093731745_" d="M28.73,42.12c0,5.18,2.29,9.82,5.92,12.96l1.5-3.82
			c0.35,0.19,0.84,0.4,1.47,0.62c0.62,0.22,1.32,0.44,2.09,0.65c0.77,0.21,1.59,0.38,2.48,0.51c0.88,0.13,1.77,0.19,2.67,0.19
			c2.12,0,3.73-0.3,4.83-0.91c1.11-0.61,1.66-1.56,1.66-2.84c0-0.99-0.42-1.78-1.25-2.36c-0.83-0.58-1.87-1.11-3.1-1.59
			c-1.24-0.48-2.57-0.96-4.02-1.44c-1.44-0.48-2.78-1.12-4.02-1.92c-1.23-0.8-2.27-1.81-3.1-3.03c-0.83-1.22-1.25-2.81-1.25-4.76
			c0-1.67,0.3-3.13,0.89-4.4c0.58-1.24,1.4-2.27,2.44-3.08C32.46,29.78,28.73,35.51,28.73,42.12"/>
	</defs>
	<clipPath id="SVGID_00000154426190893346602740000007986956573316897207_">
		<use xlink:href="#SVGID_00000023274512826273348290000002190977912093731745_"  style="overflow:visible;"/>
	</clipPath>
	<g style="opacity:0.5;clip-path:url(#SVGID_00000154426190893346602740000007986956573316897207_);">
		<g>
			<defs>
				<rect id="SVGID_00000176028884807515502600000003247014506592585618_" x="23.3" y="19.85" width="38.97" height="31.61"/>
			</defs>
			<clipPath id="SVGID_00000047041245775153680960000016355599595744556731_">
				<use xlink:href="#SVGID_00000176028884807515502600000003247014506592585618_"  style="overflow:visible;"/>
			</clipPath>
			<defs>
				<filter id="Adobe_OpacityMaskFilter" filterUnits="userSpaceOnUse" x="23.3" y="19.85" width="38.97" height="31.61">
					<feFlood  style="flood-color:white;flood-opacity:1" result="back"/>
					<feBlend  in="SourceGraphic" in2="back" mode="normal"/>
				</filter>
			</defs>
			
				<mask maskUnits="userSpaceOnUse" x="23.3" y="19.85" width="38.97" height="31.61" id="SVGID_00000109752091695638591660000000074089373886230695_">
				<g class="st7">
					
						<linearGradient id="SVGID_00000041294665732131738160000009847449068120325260_" gradientUnits="userSpaceOnUse" x1="-180.1676" y1="485.6158" x2="-179.1676" y2="485.6158" gradientTransform="matrix(23.3847 0 0 -23.3847 4251.0576 11391.6289)">
						<stop  offset="0" style="stop-color:#FFFFFF"/>
						<stop  offset="0.795" style="stop-color:#000000"/>
						<stop  offset="0.971" style="stop-color:#000000"/>
						<stop  offset="1" style="stop-color:#000000"/>
					</linearGradient>
					
						<rect x="23.3" y="19.85" style="clip-path:url(#SVGID_00000047041245775153680960000016355599595744556731_);fill:url(#SVGID_00000041294665732131738160000009847449068120325260_);" width="38.97" height="31.61"/>
				</g>
			</mask>
			
				<g style="clip-path:url(#SVGID_00000047041245775153680960000016355599595744556731_);mask:url(#SVGID_00000109752091695638591660000000074089373886230695_);">
				<g>
					<defs>
						<rect id="SVGID_00000067204695468179186340000017920612744540749959_" x="23.3" y="19.85" width="38.97" height="31.61"/>
					</defs>
					<clipPath id="SVGID_00000013893909895095536060000013151947313453879451_">
						<use xlink:href="#SVGID_00000067204695468179186340000017920612744540749959_"  style="overflow:visible;"/>
					</clipPath>
					<path style="clip-path:url(#SVGID_00000013893909895095536060000013151947313453879451_);fill:#74A24C;" d="M37.95,26.9
						c-11.79,8.23-4.13,24.57,13.63,23.51C57.6,41.38,46.14,25.83,37.95,26.9"/>
				</g>
			</g>
		</g>
	</g>
	<defs>
		
			<filter id="Adobe_OpacityMaskFilter_00000114789536384921806310000001754069683119101625_" filterUnits="userSpaceOnUse" x="20.04" y="34.78" width="38.12" height="40.22">
			<feFlood  style="flood-color:white;flood-opacity:1" result="back"/>
			<feBlend  in="SourceGraphic" in2="back" mode="normal"/>
		</filter>
	</defs>
	
		<mask maskUnits="userSpaceOnUse" x="20.04" y="34.78" width="38.12" height="40.22" id="SVGID_00000170990031239291224660000009673988949168195715_">
		<g style="filter:url(#Adobe_OpacityMaskFilter_00000114789536384921806310000001754069683119101625_);">
			
				<linearGradient id="SVGID_00000160874158272719284040000014553126786954797755_" gradientUnits="userSpaceOnUse" x1="-181.8591" y1="447.2826" x2="-180.8591" y2="447.2826" gradientTransform="matrix(20.8418 2.9291 -2.9291 20.8418 5128.3369 -8750.1895)">
				<stop  offset="0" style="stop-color:#FFFFFF"/>
				<stop  offset="0.63" style="stop-color:#000000"/>
				<stop  offset="0.9477" style="stop-color:#000000"/>
				<stop  offset="1" style="stop-color:#000000"/>
			</linearGradient>
			
				<polygon style="clip-path:url(#SVGID_00000154426190893346602740000007986956573316897207_);fill:url(#SVGID_00000160874158272719284040000014553126786954797755_);" points="
				24.85,54.54 50.9,58.2 55.23,27.45 29.17,23.79 			"/>
		</g>
	</mask>
	
		<g style="clip-path:url(#SVGID_00000154426190893346602740000007986956573316897207_);mask:url(#SVGID_00000170990031239291224660000009673988949168195715_);">
		<g>
			<defs>
				<rect id="SVGID_00000172403874390521873390000000600682178939824812_" x="20.04" y="34.78" width="38.12" height="40.22"/>
			</defs>
			<clipPath id="SVGID_00000182504784247866269720000010110572626467075465_">
				<use xlink:href="#SVGID_00000172403874390521873390000000600682178939824812_"  style="overflow:visible;"/>
			</clipPath>
			<path style="clip-path:url(#SVGID_00000182504784247866269720000010110572626467075465_);fill:#BDD7A4;" d="M37.11,46.26
				c-1.61,0.44-8.39,2.53-10.37,6.93c-1.74,3.85,14.53,8.24,14.53,8.24l2.53-11.78C41.14,48.93,38.89,47.75,37.11,46.26"/>
		</g>
	</g>
	<defs>
		
			<filter id="Adobe_OpacityMaskFilter_00000175296581495911733590000001931328745213125308_" filterUnits="userSpaceOnUse" x="14.95" y="30.43" width="34.23" height="35.9">
			<feFlood  style="flood-color:white;flood-opacity:1" result="back"/>
			<feBlend  in="SourceGraphic" in2="back" mode="normal"/>
		</filter>
	</defs>
	
		<mask maskUnits="userSpaceOnUse" x="14.95" y="30.43" width="34.23" height="35.9" id="SVGID_00000056387912366128951410000007464389564402954670_">
		<g style="filter:url(#Adobe_OpacityMaskFilter_00000175296581495911733590000001931328745213125308_);">
			
				<linearGradient id="SVGID_00000130639876225262102640000006960388402995447990_" gradientUnits="userSpaceOnUse" x1="-203.8163" y1="441.6679" x2="-202.8163" y2="441.6679" gradientTransform="matrix(8.1909 13.1081 -13.1081 8.1909 7494.4009 -912.2133)">
				<stop  offset="0" style="stop-color:#FFFFFF"/>
				<stop  offset="0.165" style="stop-color:#FFFFFF"/>
				<stop  offset="0.71" style="stop-color:#000000"/>
				<stop  offset="0.959" style="stop-color:#000000"/>
				<stop  offset="1" style="stop-color:#000000"/>
			</linearGradient>
			
				<polygon style="clip-path:url(#SVGID_00000154426190893346602740000007986956573316897207_);fill:url(#SVGID_00000130639876225262102640000006960388402995447990_);" points="
				16.06,34.82 35.08,65.25 64.01,47.17 44.99,16.74 			"/>
		</g>
	</mask>
	
		<g style="clip-path:url(#SVGID_00000154426190893346602740000007986956573316897207_);mask:url(#SVGID_00000056387912366128951410000007464389564402954670_);">
		<g>
			<defs>
				<rect id="SVGID_00000089537194217685848170000009637899426465505931_" x="14.95" y="30.43" width="34.23" height="35.9"/>
			</defs>
			<clipPath id="SVGID_00000093134761063452861020000017286424022035933371_">
				<use xlink:href="#SVGID_00000089537194217685848170000009637899426465505931_"  style="overflow:visible;"/>
			</clipPath>
			<path style="clip-path:url(#SVGID_00000093134761063452861020000017286424022035933371_);fill:#BDD7A4;" d="M33.69,42.15
				c0,0-8.87-0.46-10.59,3.08c-2.22,4.56,5.76,7.04,5.76,7.04l8.56-5.75C35.82,45.25,34.56,43.76,33.69,42.15"/>
		</g>
	</g>
	<defs>
		
			<filter id="Adobe_OpacityMaskFilter_00000119078646169819131920000008628041276684470962_" filterUnits="userSpaceOnUse" x="12.61" y="25.21" width="34.04" height="34.04">
			<feFlood  style="flood-color:white;flood-opacity:1" result="back"/>
			<feBlend  in="SourceGraphic" in2="back" mode="normal"/>
		</filter>
	</defs>
	
		<mask maskUnits="userSpaceOnUse" x="12.61" y="25.21" width="34.04" height="34.04" id="SVGID_00000054257025956591579910000006236679587738666930_">
		<g style="filter:url(#Adobe_OpacityMaskFilter_00000119078646169819131920000008628041276684470962_);">
			
				<linearGradient id="SVGID_00000121238574051645138970000003056547957129345939_" gradientUnits="userSpaceOnUse" x1="-221.122" y1="449.7473" x2="-220.122" y2="449.7473" gradientTransform="matrix(0 12.564 -12.564 0 5690.6719 2813.5601)">
				<stop  offset="0" style="stop-color:#FFFFFF"/>
				<stop  offset="0.5" style="stop-color:#000000"/>
				<stop  offset="0.9293" style="stop-color:#000000"/>
				<stop  offset="1" style="stop-color:#000000"/>
			</linearGradient>
			
				<rect x="28.73" y="26.9" style="clip-path:url(#SVGID_00000154426190893346602740000007986956573316897207_);fill:url(#SVGID_00000121238574051645138970000003056547957129345939_);" width="22.61" height="28.18"/>
		</g>
	</mask>
	
		<g style="clip-path:url(#SVGID_00000154426190893346602740000007986956573316897207_);mask:url(#SVGID_00000054257025956591579910000006236679587738666930_);">
		<g>
			<defs>
				<rect id="SVGID_00000106141775997893827510000006249059035980326805_" x="12.61" y="25.21" width="34.04" height="34.04"/>
			</defs>
			<clipPath id="SVGID_00000127734427898193081740000007199961354497422489_">
				<use xlink:href="#SVGID_00000106141775997893827510000006249059035980326805_"  style="overflow:visible;"/>
			</clipPath>
			<path style="clip-path:url(#SVGID_00000127734427898193081740000007199961354497422489_);fill:#BDD7A4;" d="M32.34,37.6
				c0,0-6.7-2.55-9.86-0.7c-2.83,1.66,3.5,9.03,3.5,9.03l7.74-3.73C32.93,40.75,32.47,39.18,32.34,37.6"/>
		</g>
	</g>
	<defs>
		
			<filter id="Adobe_OpacityMaskFilter_00000114778554388831088140000003887260254941544330_" filterUnits="userSpaceOnUse" x="15.58" y="24.41" width="30.61" height="28.52">
			<feFlood  style="flood-color:white;flood-opacity:1" result="back"/>
			<feBlend  in="SourceGraphic" in2="back" mode="normal"/>
		</filter>
	</defs>
	
		<mask maskUnits="userSpaceOnUse" x="15.58" y="24.41" width="30.61" height="28.52" id="SVGID_00000109004524393824354310000000096926874705529482_">
		<g style="filter:url(#Adobe_OpacityMaskFilter_00000114778554388831088140000003887260254941544330_);">
			
				<linearGradient id="SVGID_00000152975390147311057660000010143873712115609514_" gradientUnits="userSpaceOnUse" x1="-228.6693" y1="459.5173" x2="-227.6693" y2="459.5173" gradientTransform="matrix(-3.513 10.812 -10.812 -3.513 4207.0942 4121.1865)">
				<stop  offset="0" style="stop-color:#FFFFFF"/>
				<stop  offset="0.025" style="stop-color:#FFFFFF"/>
				<stop  offset="0.49" style="stop-color:#000000"/>
				<stop  offset="0.9279" style="stop-color:#000000"/>
				<stop  offset="1" style="stop-color:#000000"/>
			</linearGradient>
			
				<polygon style="clip-path:url(#SVGID_00000154426190893346602740000007986956573316897207_);fill:url(#SVGID_00000152975390147311057660000010143873712115609514_);" points="
				30.89,20.26 20.45,52.39 49.18,61.73 59.62,29.59 			"/>
		</g>
	</mask>
	
		<g style="clip-path:url(#SVGID_00000154426190893346602740000007986956573316897207_);mask:url(#SVGID_00000109004524393824354310000000096926874705529482_);">
		<g>
			<defs>
				<rect id="SVGID_00000003810689977906691800000013341430828961554348_" x="15.58" y="24.41" width="30.61" height="28.52"/>
			</defs>
			<clipPath id="SVGID_00000114796528340661763050000014821217353778660253_">
				<use xlink:href="#SVGID_00000003810689977906691800000013341430828961554348_"  style="overflow:visible;"/>
			</clipPath>
			<path style="clip-path:url(#SVGID_00000114796528340661763050000014821217353778660253_);fill:#BDD7A4;" d="M32.66,34.03
				c0,0-2.1-1.82-4.09-1.96c-2.27-0.16-2.28,7.49-2.28,7.49l6.18-0.95C32.21,37.09,32.26,35.54,32.66,34.03"/>
		</g>
	</g>
	<defs>
		
			<filter id="Adobe_OpacityMaskFilter_00000114791556101051061050000003477863580797472129_" filterUnits="userSpaceOnUse" x="22.55" y="24.08" width="30.35" height="27.86">
			<feFlood  style="flood-color:white;flood-opacity:1" result="back"/>
			<feBlend  in="SourceGraphic" in2="back" mode="normal"/>
		</filter>
	</defs>
	
		<mask maskUnits="userSpaceOnUse" x="22.55" y="24.08" width="30.35" height="27.86" id="SVGID_00000099637053916492466720000012761330790398966953_">
		<g style="filter:url(#Adobe_OpacityMaskFilter_00000114791556101051061050000003477863580797472129_);">
			
				<linearGradient id="SVGID_00000016061463745053405460000007530580042517483680_" gradientUnits="userSpaceOnUse" x1="-222.3427" y1="424.5942" x2="-221.3427" y2="424.5942" gradientTransform="matrix(3.3957 7.6268 -7.6268 3.3957 4028.969 285.1456)">
				<stop  offset="0" style="stop-color:#FFFFFF"/>
				<stop  offset="0.045" style="stop-color:#FFFFFF"/>
				<stop  offset="0.5" style="stop-color:#000000"/>
				<stop  offset="0.9293" style="stop-color:#000000"/>
				<stop  offset="1" style="stop-color:#000000"/>
			</linearGradient>
			
				<polygon style="clip-path:url(#SVGID_00000154426190893346602740000007986956573316897207_);fill:url(#SVGID_00000016061463745053405460000007530580042517483680_);" points="
				18.26,31.56 32.47,63.49 61.81,50.42 47.6,18.5 			"/>
		</g>
	</mask>
	
		<g style="clip-path:url(#SVGID_00000154426190893346602740000007986956573316897207_);mask:url(#SVGID_00000099637053916492466720000012761330790398966953_);">
		<g>
			<defs>
				<rect id="SVGID_00000093860289947604250510000006839146022901986481_" x="22.55" y="24.08" width="30.35" height="27.86"/>
			</defs>
			<clipPath id="SVGID_00000125599255318288303440000005126909611380822175_">
				<use xlink:href="#SVGID_00000093860289947604250510000006839146022901986481_"  style="overflow:visible;"/>
			</clipPath>
			<path style="clip-path:url(#SVGID_00000125599255318288303440000005126909611380822175_);fill:#BDD7A4;" d="M32.66,34.03
				c0,0,4.15-2.22,6.83-0.98c2.07,0.95-1.37,4.96-1.37,4.96l-5.65,0.6C32.21,37.09,32.26,35.54,32.66,34.03"/>
		</g>
	</g>
	<g style="opacity:0.8;clip-path:url(#SVGID_00000154426190893346602740000007986956573316897207_);">
		<g>
			<defs>
				<rect id="SVGID_00000123410101987872870080000006251585136708812423_" x="17.91" y="20.26" width="28.43" height="26.7"/>
			</defs>
			<clipPath id="SVGID_00000104688172849573017090000001820341827528347289_">
				<use xlink:href="#SVGID_00000123410101987872870080000006251585136708812423_"  style="overflow:visible;"/>
			</clipPath>
			<defs>
				
					<filter id="Adobe_OpacityMaskFilter_00000033360331404883746250000004097535295230478513_" filterUnits="userSpaceOnUse" x="17.91" y="20.26" width="28.43" height="26.7">
					<feFlood  style="flood-color:white;flood-opacity:1" result="back"/>
					<feBlend  in="SourceGraphic" in2="back" mode="normal"/>
				</filter>
			</defs>
			
				<mask maskUnits="userSpaceOnUse" x="17.91" y="20.26" width="28.43" height="26.7" id="SVGID_00000139972904995161039480000014418163562419299986_">
				<g style="filter:url(#Adobe_OpacityMaskFilter_00000033360331404883746250000004097535295230478513_);">
					
						<linearGradient id="SVGID_00000177463000029231114640000015733712833747607709_" gradientUnits="userSpaceOnUse" x1="-244.6538" y1="471.7458" x2="-243.6538" y2="471.7458" gradientTransform="matrix(-4.4641 6.874 -6.874 -4.4641 2185.5676 3816.9741)">
						<stop  offset="0" style="stop-color:#FFFFFF"/>
						<stop  offset="0.1" style="stop-color:#FFFFFF"/>
						<stop  offset="0.585" style="stop-color:#000000"/>
						<stop  offset="0.9413" style="stop-color:#000000"/>
						<stop  offset="1" style="stop-color:#000000"/>
					</linearGradient>
					
						<polygon style="clip-path:url(#SVGID_00000104688172849573017090000001820341827528347289_);fill:url(#SVGID_00000177463000029231114640000015733712833747607709_);" points="
						26.34,7.28 5.71,39.04 37.91,59.95 58.54,28.18 					"/>
				</g>
			</mask>
			
				<g style="clip-path:url(#SVGID_00000104688172849573017090000001820341827528347289_);mask:url(#SVGID_00000139972904995161039480000014418163562419299986_);">
				<g>
					<defs>
						<rect id="SVGID_00000091726968123185956830000000060813365346097285_" x="17.91" y="20.26" width="28.43" height="26.7"/>
					</defs>
					<clipPath id="SVGID_00000111893280389823421940000003091904226174128062_">
						<use xlink:href="#SVGID_00000091726968123185956830000000060813365346097285_"  style="overflow:visible;"/>
					</clipPath>
					<path style="clip-path:url(#SVGID_00000111893280389823421940000003091904226174128062_);fill:#BDD7A4;" d="M33.91,31.1
						c0,0-1.51-3.56-5.49-2.31c-4.8,1.51-1.69,2.19,0.4,3.08c1.77,0.75,3.84,2.16,3.84,2.16C32.92,33.03,33.34,32.05,33.91,31.1"/>
				</g>
			</g>
		</g>
	</g>
	<defs>
		
			<filter id="Adobe_OpacityMaskFilter_00000164486448381283835680000015103737086913508487_" filterUnits="userSpaceOnUse" x="23.66" y="26.72" width="28.68" height="28.68">
			<feFlood  style="flood-color:white;flood-opacity:1" result="back"/>
			<feBlend  in="SourceGraphic" in2="back" mode="normal"/>
		</filter>
	</defs>
	
		<mask maskUnits="userSpaceOnUse" x="23.66" y="26.72" width="28.68" height="28.68" id="SVGID_00000028301950002012199080000007823006629048852916_">
		<g style="filter:url(#Adobe_OpacityMaskFilter_00000164486448381283835680000015103737086913508487_);">
			
				<linearGradient id="SVGID_00000009572949908036570430000016201453469259755690_" gradientUnits="userSpaceOnUse" x1="-218.9637" y1="427.4739" x2="-217.9637" y2="427.4739" gradientTransform="matrix(3.8419 8.2391 -8.2391 3.8419 4399.8159 195.3162)">
				<stop  offset="0" style="stop-color:#FFFFFF"/>
				<stop  offset="0.02" style="stop-color:#FFFFFF"/>
				<stop  offset="0.63" style="stop-color:#000000"/>
				<stop  offset="0.9477" style="stop-color:#000000"/>
				<stop  offset="1" style="stop-color:#000000"/>
			</linearGradient>
			
				<polygon style="clip-path:url(#SVGID_00000154426190893346602740000007986956573316897207_);fill:url(#SVGID_00000009572949908036570430000016201453469259755690_);" points="
				17.94,31.94 32.77,63.74 62.14,50.05 47.3,18.24 			"/>
		</g>
	</mask>
	
		<g style="clip-path:url(#SVGID_00000154426190893346602740000007986956573316897207_);mask:url(#SVGID_00000028301950002012199080000007823006629048852916_);">
		<g>
			<defs>
				<rect id="SVGID_00000162324661113792209670000005212458678610547858_" x="23.66" y="26.72" width="28.68" height="28.68"/>
			</defs>
			<clipPath id="SVGID_00000110470586722672693500000016622911906911794816_">
				<use xlink:href="#SVGID_00000162324661113792209670000005212458678610547858_"  style="overflow:visible;"/>
			</clipPath>
			<path style="clip-path:url(#SVGID_00000110470586722672693500000016622911906911794816_);fill:#BDD7A4;" d="M32.34,37.6
				c0,0,3.79-2.53,5.78-1.5c1.98,1.03,2.55,2.91,2.55,2.91l-6.94,3.2C32.93,40.75,32.47,39.18,32.34,37.6"/>
		</g>
	</g>
	<g style="opacity:0.7;clip-path:url(#SVGID_00000154426190893346602740000007986956573316897207_);">
		<g>
			<defs>
				<rect id="SVGID_00000019667524138870878450000012124491175816668829_" x="31.2" y="30.25" width="28.03" height="31.53"/>
			</defs>
			<clipPath id="SVGID_00000071542188861099189940000015367624529108902332_">
				<use xlink:href="#SVGID_00000019667524138870878450000012124491175816668829_"  style="overflow:visible;"/>
			</clipPath>
			<defs>
				
					<filter id="Adobe_OpacityMaskFilter_00000121250358960195563830000006209220417733505671_" filterUnits="userSpaceOnUse" x="31.2" y="30.25" width="28.03" height="31.53">
					<feFlood  style="flood-color:white;flood-opacity:1" result="back"/>
					<feBlend  in="SourceGraphic" in2="back" mode="normal"/>
				</filter>
			</defs>
			
				<mask maskUnits="userSpaceOnUse" x="31.2" y="30.25" width="28.03" height="31.53" id="SVGID_00000085932487414302142050000002763192945937597602_">
				<g style="filter:url(#Adobe_OpacityMaskFilter_00000121250358960195563830000006209220417733505671_);">
					
						<linearGradient id="SVGID_00000015346649330739147500000015845011541902011275_" gradientUnits="userSpaceOnUse" x1="-184.4926" y1="418.6003" x2="-183.4926" y2="418.6003" gradientTransform="matrix(8.3907 3.5616 -3.5616 8.3907 3077.2212 -2812.1731)">
						<stop  offset="0" style="stop-color:#FFFFFF"/>
						<stop  offset="5.000000e-03" style="stop-color:#FFFFFF"/>
						<stop  offset="0.58" style="stop-color:#000000"/>
						<stop  offset="0.9406" style="stop-color:#000000"/>
						<stop  offset="1" style="stop-color:#000000"/>
					</linearGradient>
					
						<polygon style="clip-path:url(#SVGID_00000071542188861099189940000015367624529108902332_);fill:url(#SVGID_00000015346649330739147500000015845011541902011275_);" points="
						19.86,56.96 54.95,71.85 70.57,35.06 35.48,20.16 					"/>
				</g>
			</mask>
			
				<g style="clip-path:url(#SVGID_00000071542188861099189940000015367624529108902332_);mask:url(#SVGID_00000085932487414302142050000002763192945937597602_);">
				<g>
					<defs>
						<rect id="SVGID_00000012473260204660772410000011727229916797129386_" x="31.2" y="30.25" width="28.03" height="31.53"/>
					</defs>
					<clipPath id="SVGID_00000114764912268611517520000015490899825301752208_">
						<use xlink:href="#SVGID_00000012473260204660772410000011727229916797129386_"  style="overflow:visible;"/>
					</clipPath>
					<path style="clip-path:url(#SVGID_00000114764912268611517520000015490899825301752208_);fill:#BDD7A4;" d="M37.11,46.26
						c0,0,2.34-5.29,6.24-5.6c2.75-0.22,4.34,1.37,4.34,1.37l-3.9,7.62C41.14,48.93,38.89,47.75,37.11,46.26"/>
				</g>
			</g>
		</g>
	</g>
	<defs>
		
			<filter id="Adobe_OpacityMaskFilter_00000040542332071393349210000010320989632575712648_" filterUnits="userSpaceOnUse" x="26.66" y="28.73" width="27.63" height="29.69">
			<feFlood  style="flood-color:white;flood-opacity:1" result="back"/>
			<feBlend  in="SourceGraphic" in2="back" mode="normal"/>
		</filter>
	</defs>
	
		<mask maskUnits="userSpaceOnUse" x="26.66" y="28.73" width="27.63" height="29.69" id="SVGID_00000096049692138375035080000008117544061622580615_">
		<g style="filter:url(#Adobe_OpacityMaskFilter_00000040542332071393349210000010320989632575712648_);">
			
				<linearGradient id="SVGID_00000088813711022068509830000013243103765846617766_" gradientUnits="userSpaceOnUse" x1="-205.0827" y1="406.2714" x2="-204.0827" y2="406.2714" gradientTransform="matrix(5.2263 4.8736 -4.8736 5.2263 3088.5969 -1085.8704)">
				<stop  offset="0" style="stop-color:#FFFFFF"/>
				<stop  offset="0.035" style="stop-color:#FFFFFF"/>
				<stop  offset="0.64" style="stop-color:#000000"/>
				<stop  offset="0.9491" style="stop-color:#000000"/>
				<stop  offset="1" style="stop-color:#000000"/>
			</linearGradient>
			
				<polygon style="clip-path:url(#SVGID_00000154426190893346602740000007986956573316897207_);fill:url(#SVGID_00000088813711022068509830000013243103765846617766_);" points="
				14.67,41.98 40.82,66.36 65.4,40.01 39.25,15.62 			"/>
		</g>
	</mask>
	
		<g style="clip-path:url(#SVGID_00000154426190893346602740000007986956573316897207_);mask:url(#SVGID_00000096049692138375035080000008117544061622580615_);">
		<g>
			<defs>
				<rect id="SVGID_00000114059622809489012830000002524496756627590839_" x="26.66" y="28.73" width="27.63" height="29.69"/>
			</defs>
			<clipPath id="SVGID_00000097491975534897422790000000113522831485498513_">
				<use xlink:href="#SVGID_00000114059622809489012830000002524496756627590839_"  style="overflow:visible;"/>
			</clipPath>
			<path style="clip-path:url(#SVGID_00000097491975534897422790000000113522831485498513_);fill:#BDD7A4;" d="M33.69,42.15
				c0,0,3.9-3.69,6.94-3c3.05,0.69,2.25,1.7,2.25,1.7l-5.46,5.67C35.82,45.25,34.56,43.76,33.69,42.15"/>
		</g>
	</g>
	<g style="opacity:0.6;clip-path:url(#SVGID_00000154426190893346602740000007986956573316897207_);">
		<g>
			<defs>
				<rect id="SVGID_00000176765248409110936960000007562469766736062596_" x="23.92" y="22.85" width="26.96" height="24.72"/>
			</defs>
			<clipPath id="SVGID_00000093174119957537315840000005669779924140094349_">
				<use xlink:href="#SVGID_00000176765248409110936960000007562469766736062596_"  style="overflow:visible;"/>
			</clipPath>
			<defs>
				
					<filter id="Adobe_OpacityMaskFilter_00000073721694152025829050000012476169637699475391_" filterUnits="userSpaceOnUse" x="23.92" y="22.85" width="26.96" height="24.72">
					<feFlood  style="flood-color:white;flood-opacity:1" result="back"/>
					<feBlend  in="SourceGraphic" in2="back" mode="normal"/>
				</filter>
			</defs>
			
				<mask maskUnits="userSpaceOnUse" x="23.92" y="22.85" width="26.96" height="24.72" id="SVGID_00000097487085510060296820000013689611998316077731_">
				<g style="filter:url(#Adobe_OpacityMaskFilter_00000073721694152025829050000012476169637699475391_);">
					
						<linearGradient id="SVGID_00000042725549446216739640000008141976343005231511_" gradientUnits="userSpaceOnUse" x1="-256.3996" y1="487.5609" x2="-255.3996" y2="487.5609" gradientTransform="matrix(-4.6555 4.4958 -4.4958 -4.6555 1036.844 3456.6584)">
						<stop  offset="0" style="stop-color:#FFFFFF"/>
						<stop  offset="0.5" style="stop-color:#000000"/>
						<stop  offset="0.9293" style="stop-color:#000000"/>
						<stop  offset="1" style="stop-color:#000000"/>
					</linearGradient>
					
						<polygon style="clip-path:url(#SVGID_00000093174119957537315840000005669779924140094349_);fill:url(#SVGID_00000042725549446216739640000008141976343005231511_);" points="
						37.87,9.38 11.57,34.78 36.92,61.04 63.22,35.64 					"/>
				</g>
			</mask>
			
				<g style="clip-path:url(#SVGID_00000093174119957537315840000005669779924140094349_);mask:url(#SVGID_00000097487085510060296820000013689611998316077731_);">
				<g>
					<defs>
						<rect id="SVGID_00000181796840530696658210000015906776289933348031_" x="23.92" y="22.85" width="26.96" height="24.72"/>
					</defs>
					<clipPath id="SVGID_00000103965651159434281170000000010951475373804954_">
						<use xlink:href="#SVGID_00000181796840530696658210000015906776289933348031_"  style="overflow:visible;"/>
					</clipPath>
					<path style="clip-path:url(#SVGID_00000103965651159434281170000000010951475373804954_);fill:#BDD7A4;" d="M33.91,31.1
						c0,0,1.78-0.85,3.18-0.23c0.88,0.39,3.54,1.68,0.78,3.12c-2.06,0.37-5.21,0.03-5.21,0.03C32.92,33.03,33.34,32.05,33.91,31.1"
						/>
				</g>
			</g>
		</g>
	</g>
</g>
<defs>
	
		<filter id="Adobe_OpacityMaskFilter_00000025437605895331444630000014021917130999080371_" filterUnits="userSpaceOnUse" x="42.64" y="31.68" width="13.5" height="6.45">
		<feFlood  style="flood-color:white;flood-opacity:1" result="back"/>
		<feBlend  in="SourceGraphic" in2="back" mode="normal"/>
	</filter>
</defs>
<mask maskUnits="userSpaceOnUse" x="42.64" y="31.68" width="13.5" height="6.45" id="SVGID_00000127011506987882932390000010293686530411518617_">
	<g style="filter:url(#Adobe_OpacityMaskFilter_00000025437605895331444630000014021917130999080371_);">
		
			<linearGradient id="SVGID_00000162331429782723770450000013393062595895964602_" gradientUnits="userSpaceOnUse" x1="-156.947" y1="431.3829" x2="-155.947" y2="431.3829" gradientTransform="matrix(-2.6021 -9.7113 -9.7113 2.6021 3884.0598 -2621.3599)">
			<stop  offset="0" style="stop-color:#000000"/>
			<stop  offset="0.475" style="stop-color:#000000"/>
			<stop  offset="0.9" style="stop-color:#FFFFFF"/>
			<stop  offset="0.9859" style="stop-color:#FFFFFF"/>
			<stop  offset="1" style="stop-color:#FFFFFF"/>
		</linearGradient>
		<polygon style="fill:url(#SVGID_00000162331429782723770450000013393062595895964602_);" points="39.48,110.83 16.86,26.44 
			178.44,-16.86 201.05,67.54 		"/>
	</g>
</mask>
<g style="mask:url(#SVGID_00000127011506987882932390000010293686530411518617_);">
	<g>
		<path class="st3" d="M52.34,32.56c-2.39-0.71-9.7-2.08-9.7,1.35c0,1.95,3.23,3.07,3.94,3.35C54.12,40.2,60.48,34.97,52.34,32.56"
			/>
	</g>
</g>
</svg>
