<?xml version="1.0" encoding="UTF-8"?>
<svg id="Ebene_1" data-name="Ebene 1" xmlns="http://www.w3.org/2000/svg" xmlns:xlink="http://www.w3.org/1999/xlink" viewBox="0 0 175.57 55.16">
  <defs>
    <style>
      .cls-1 {
        fill: #bce4fa;
      }

      .cls-2 {
        filter: url(#luminosity-noclip-11);
      }

      .cls-3 {
        fill: #509941;
      }

      .cls-4 {
        clip-path: url(#clippath-11);
      }

      .cls-5 {
        clip-path: url(#clippath-16);
      }

      .cls-6 {
        fill: #fff;
      }

      .cls-7 {
        mask: url(#mask-10);
      }

      .cls-8 {
        filter: url(#luminosity-noclip-7);
      }

      .cls-9 {
        fill: url(#Unbenannter_Verlauf_2);
      }

      .cls-10 {
        opacity: .5;
      }

      .cls-11 {
        fill: url(#Unbenannter_Verlauf_4);
      }

      .cls-12 {
        filter: url(#luminosity-noclip-5);
      }

      .cls-13 {
        mask: url(#mask-2);
      }

      .cls-14 {
        clip-path: url(#clippath-2);
      }

      .cls-15 {
        clip-path: url(#clippath-13);
      }

      .cls-16 {
        clip-path: url(#clippath-15);
      }

      .cls-17 {
        opacity: .6;
      }

      .cls-18 {
        clip-path: url(#clippath-6);
      }

      .cls-19 {
        opacity: .7;
      }

      .cls-20 {
        mask: url(#mask-3);
      }

      .cls-21 {
        clip-path: url(#clippath-7);
      }

      .cls-22 {
        mask: url(#mask-9);
      }

      .cls-23 {
        fill: #aad29a;
      }

      .cls-24 {
        clip-path: url(#clippath-1);
      }

      .cls-25 {
        clip-path: url(#clippath-4);
      }

      .cls-26 {
        mask: url(#mask-5);
      }

      .cls-27 {
        opacity: .8;
      }

      .cls-28 {
        fill: url(#Unbenannter_Verlauf_7);
      }

      .cls-29 {
        fill: url(#Unbenannter_Verlauf_13);
      }

      .cls-30 {
        fill: #0f265c;
      }

      .cls-31 {
        clip-path: url(#clippath-12);
      }

      .cls-32 {
        filter: url(#luminosity-noclip-12);
      }

      .cls-33 {
        filter: url(#luminosity-noclip-9);
      }

      .cls-34 {
        filter: url(#luminosity-noclip-4);
      }

      .cls-35 {
        fill: url(#Unbenannter_Verlauf_8);
      }

      .cls-36 {
        filter: url(#luminosity-noclip-8);
      }

      .cls-37 {
        mask: url(#mask-8);
      }

      .cls-38 {
        filter: url(#luminosity-noclip-6);
      }

      .cls-39 {
        mask: url(#mask-4);
      }

      .cls-40 {
        clip-path: url(#clippath-9);
      }

      .cls-41 {
        clip-path: url(#clippath);
      }

      .cls-42 {
        fill: none;
      }

      .cls-43 {
        mask: url(#mask-6);
      }

      .cls-44 {
        clip-path: url(#clippath-3);
      }

      .cls-45 {
        fill: url(#Unbenannter_Verlauf_12-2);
      }

      .cls-46 {
        fill: url(#Unbenannter_Verlauf_6);
      }

      .cls-47 {
        clip-path: url(#clippath-8);
      }

      .cls-48 {
        fill: url(#Unbenannter_Verlauf_5);
      }

      .cls-49 {
        filter: url(#luminosity-noclip);
      }

      .cls-50 {
        mask: url(#mask-1);
      }

      .cls-51 {
        mask: url(#mask);
      }

      .cls-52 {
        clip-path: url(#clippath-14);
      }

      .cls-53 {
        clip-path: url(#clippath-17);
      }

      .cls-54 {
        clip-path: url(#clippath-5);
      }

      .cls-55 {
        mask: url(#mask-7);
      }

      .cls-56 {
        fill: url(#Unbenannter_Verlauf_3);
      }

      .cls-57 {
        clip-path: url(#clippath-10);
      }

      .cls-58 {
        filter: url(#luminosity-noclip-2);
      }

      .cls-59 {
        mask: url(#mask-11);
      }

      .cls-60 {
        filter: url(#luminosity-noclip-3);
      }

      .cls-61 {
        fill: url(#Unbenannter_Verlauf_9);
      }

      .cls-62 {
        filter: url(#luminosity-noclip-10);
      }

      .cls-63 {
        fill: url(#Unbenannter_Verlauf_11);
      }

      .cls-64 {
        fill: url(#Unbenannter_Verlauf_10);
      }

      .cls-65 {
        fill: url(#Unbenannter_Verlauf_12);
      }
    </style>
    <clipPath id="clippath">
      <path class="cls-42" d="m42.77,12.61c-.39-.22-.87-.46-1.47-.7-.59-.24-1.27-.45-2.04-.62-.77-.18-1.59-.32-2.45-.43-.87-.11-1.75-.17-2.65-.17-1.6,0-2.85.28-3.73.84-.88.56-1.32,1.34-1.32,2.33s.42,1.79,1.25,2.38c.83.59,1.87,1.14,3.1,1.63,1.23.5,2.57,1,4.02,1.49,1.44.5,2.78,1.14,4.02,1.92,1.23.78,2.27,1.77,3.1,2.96.83,1.19,1.25,2.71,1.25,4.57s-.32,3.46-.96,4.81c-.64,1.35-1.55,2.46-2.72,3.34-.05.04-.1.07-.15.1,5.06-2.99,8.45-8.49,8.45-14.79,0-5.37-2.46-10.16-6.32-13.31l-1.38,3.64Z"/>
    </clipPath>
    <clipPath id="clippath-1">
      <path class="cls-42" d="m16.12,22.27c0,5.18,2.29,9.82,5.92,12.96l1.5-3.82c.35.19.84.4,1.47.62.62.23,1.32.44,2.09.65.77.21,1.59.38,2.48.5.88.13,1.77.19,2.67.19,2.12,0,3.73-.3,4.83-.91,1.11-.61,1.66-1.56,1.66-2.84,0-.99-.42-1.78-1.25-2.36-.83-.58-1.87-1.11-3.1-1.59-1.24-.48-2.57-.96-4.02-1.44-1.44-.48-2.78-1.12-4.02-1.92-1.23-.8-2.27-1.81-3.1-3.03-.83-1.22-1.25-2.81-1.25-4.76,0-1.67.3-3.13.89-4.4.58-1.24,1.4-2.27,2.44-3.08-5.47,2.87-9.21,8.61-9.21,15.22"/>
    </clipPath>
    <linearGradient id="Unbenannter_Verlauf_5" data-name="Unbenannter Verlauf 5" x1="-210.76" y1="423.49" x2="-209.76" y2="423.49" gradientTransform="translate(-4727.42 -9555.41) rotate(-180) scale(22.61 -22.61)" gradientUnits="userSpaceOnUse">
      <stop offset="0" stop-color="#4f9841"/>
      <stop offset=".34" stop-color="#4f9841"/>
      <stop offset="1" stop-color="#0b6822"/>
    </linearGradient>
    <clipPath id="clippath-2">
      <path class="cls-42" d="m16.12,22.27c0,5.18,2.29,9.82,5.92,12.96l1.5-3.82c.35.19.84.4,1.47.62.62.23,1.32.44,2.09.65.77.21,1.59.38,2.48.5.88.13,1.77.19,2.67.19,2.12,0,3.73-.3,4.83-.91,1.11-.61,1.66-1.56,1.66-2.84,0-.99-.42-1.78-1.25-2.36-.83-.58-1.87-1.11-3.1-1.59-1.24-.48-2.57-.96-4.02-1.44-1.44-.48-2.78-1.12-4.02-1.92-1.23-.8-2.27-1.81-3.1-3.03-.83-1.22-1.25-2.81-1.25-4.76,0-1.67.3-3.13.89-4.4.58-1.24,1.4-2.27,2.44-3.08-5.47,2.87-9.21,8.61-9.21,15.22"/>
    </clipPath>
    <clipPath id="clippath-3">
      <rect class="cls-42" x="10.69" width="38.97" height="31.61"/>
    </clipPath>
    <filter id="luminosity-noclip" x="10.69" y="0" width="38.97" height="31.61" color-interpolation-filters="sRGB" filterUnits="userSpaceOnUse">
      <feFlood flood-color="#fff" result="bg"/>
      <feBlend in="SourceGraphic" in2="bg"/>
    </filter>
    <linearGradient id="Unbenannter_Verlauf_2" data-name="Unbenannter Verlauf 2" x1="-191.86" y1="458.68" x2="-190.86" y2="458.68" gradientTransform="translate(4511.99 10741.99) scale(23.38 -23.38)" gradientUnits="userSpaceOnUse">
      <stop offset="0" stop-color="#fff"/>
      <stop offset=".8" stop-color="#000"/>
      <stop offset=".97" stop-color="#000"/>
      <stop offset="1" stop-color="#000"/>
    </linearGradient>
    <mask id="mask" x="10.69" y="0" width="38.97" height="31.61" maskUnits="userSpaceOnUse">
      <g class="cls-49">
        <rect class="cls-9" x="10.69" y="0" width="38.97" height="31.61"/>
      </g>
    </mask>
    <clipPath id="clippath-4">
      <rect class="cls-42" x="10.69" width="38.97" height="31.61"/>
    </clipPath>
    <filter id="luminosity-noclip-2" x="7.43" y="3.94" width="38.12" height="51.22" color-interpolation-filters="sRGB" filterUnits="userSpaceOnUse">
      <feFlood flood-color="#fff" result="bg"/>
      <feBlend in="SourceGraphic" in2="bg"/>
    </filter>
    <linearGradient id="Unbenannter_Verlauf_3" data-name="Unbenannter Verlauf 3" x1="-193.52" y1="420.97" x2="-192.52" y2="420.97" gradientTransform="translate(8887.37 4081.76) rotate(90) scale(21.05)" gradientUnits="userSpaceOnUse">
      <stop offset="0" stop-color="#fff"/>
      <stop offset=".63" stop-color="#000"/>
      <stop offset=".95" stop-color="#000"/>
      <stop offset="1" stop-color="#000"/>
    </linearGradient>
    <mask id="mask-1" x="7.43" y="3.94" width="38.12" height="51.22" maskUnits="userSpaceOnUse">
      <g class="cls-58">
        <rect class="cls-56" x="11.9" y="7.99" width="31.05" height="26.31" transform="translate(2.67 45.36) rotate(-82)"/>
      </g>
    </mask>
    <clipPath id="clippath-5">
      <rect class="cls-42" x="7.43" y="14.93" width="38.12" height="40.22"/>
    </clipPath>
    <filter id="luminosity-noclip-3" x="2.34" y="-3.11" width="49.06" height="49.59" color-interpolation-filters="sRGB" filterUnits="userSpaceOnUse">
      <feFlood flood-color="#fff" result="bg"/>
      <feBlend in="SourceGraphic" in2="bg"/>
    </filter>
    <linearGradient id="Unbenannter_Verlauf_4" data-name="Unbenannter Verlauf 4" x1="-215.13" y1="415.31" x2="-214.13" y2="415.31" gradientTransform="translate(6446.83 3337.91) rotate(90) scale(15.46)" gradientUnits="userSpaceOnUse">
      <stop offset="0" stop-color="#fff"/>
      <stop offset=".17" stop-color="#fff"/>
      <stop offset=".71" stop-color="#000"/>
      <stop offset=".96" stop-color="#000"/>
      <stop offset="1" stop-color="#000"/>
    </linearGradient>
    <mask id="mask-2" x="2.34" y="-3.11" width="49.06" height="49.59" maskUnits="userSpaceOnUse">
      <g class="cls-60">
        <rect class="cls-11" x="10.37" y="3.21" width="34.11" height="35.88" transform="translate(-7.04 17.75) rotate(-32)"/>
      </g>
    </mask>
    <clipPath id="clippath-6">
      <rect class="cls-42" x="2.34" y="10.58" width="34.23" height="35.9"/>
    </clipPath>
    <filter id="luminosity-noclip-4" x="0" y="5.37" width="38.73" height="34.04" color-interpolation-filters="sRGB" filterUnits="userSpaceOnUse">
      <feFlood flood-color="#fff" result="bg"/>
      <feBlend in="SourceGraphic" in2="bg"/>
    </filter>
    <linearGradient id="Unbenannter_Verlauf_12" data-name="Unbenannter Verlauf 12" x1="-232.24" y1="423.18" x2="-231.24" y2="423.18" gradientTransform="translate(5344.3 2933.37) rotate(90) scale(12.56)" gradientUnits="userSpaceOnUse">
      <stop offset="0" stop-color="#fff"/>
      <stop offset=".5" stop-color="#000"/>
      <stop offset=".93" stop-color="#000"/>
      <stop offset="1" stop-color="#000"/>
    </linearGradient>
    <mask id="mask-3" x="0" y="5.37" width="38.73" height="34.04" maskUnits="userSpaceOnUse">
      <g class="cls-34">
        <rect class="cls-65" x="16.12" y="7.06" width="22.61" height="28.18"/>
      </g>
    </mask>
    <clipPath id="clippath-7">
      <rect class="cls-42" y="5.37" width="34.04" height="34.04"/>
    </clipPath>
    <filter id="luminosity-noclip-5" x="2.98" y=".41" width="44.04" height="41.47" color-interpolation-filters="sRGB" filterUnits="userSpaceOnUse">
      <feFlood flood-color="#fff" result="bg"/>
      <feBlend in="SourceGraphic" in2="bg"/>
    </filter>
    <linearGradient id="Unbenannter_Verlauf_6" data-name="Unbenannter Verlauf 6" x1="-239.73" y1="432.77" x2="-238.73" y2="432.77" gradientTransform="translate(-2691.14 4941.05) rotate(-180) scale(11.37)" gradientUnits="userSpaceOnUse">
      <stop offset="0" stop-color="#fff"/>
      <stop offset=".03" stop-color="#fff"/>
      <stop offset=".49" stop-color="#000"/>
      <stop offset=".93" stop-color="#000"/>
      <stop offset="1" stop-color="#000"/>
    </linearGradient>
    <mask id="mask-4" x="2.98" y=".41" width="44.04" height="41.47" maskUnits="userSpaceOnUse">
      <g class="cls-12">
        <rect class="cls-46" x="10.53" y="6.04" width="33.79" height="30.21" transform="translate(-1.16 40.7) rotate(-72)"/>
      </g>
    </mask>
    <clipPath id="clippath-8">
      <rect class="cls-42" x="2.98" y="4.56" width="30.61" height="28.52"/>
    </clipPath>
    <filter id="luminosity-noclip-6" x="5.65" y="-1.35" width="43.56" height="44.99" color-interpolation-filters="sRGB" filterUnits="userSpaceOnUse">
      <feFlood flood-color="#fff" result="bg"/>
      <feBlend in="SourceGraphic" in2="bg"/>
    </filter>
    <linearGradient id="Unbenannter_Verlauf_7" data-name="Unbenannter Verlauf 7" x1="-233.3" y1="398.39" x2="-232.3" y2="398.39" gradientTransform="translate(3353.41 1958.13) rotate(90) scale(8.35)" gradientUnits="userSpaceOnUse">
      <stop offset="0" stop-color="#fff"/>
      <stop offset=".04" stop-color="#fff"/>
      <stop offset=".5" stop-color="#000"/>
      <stop offset=".93" stop-color="#000"/>
      <stop offset="1" stop-color="#000"/>
    </linearGradient>
    <mask id="mask-5" x="5.65" y="-1.35" width="43.56" height="44.99" maskUnits="userSpaceOnUse">
      <g class="cls-38">
        <rect class="cls-28" x="11.37" y="3.68" width="32.12" height="34.94" transform="translate(-6.23 12.98) rotate(-24)"/>
      </g>
    </mask>
    <clipPath id="clippath-9">
      <rect class="cls-42" x="9.94" y="4.24" width="30.35" height="27.86"/>
    </clipPath>
    <clipPath id="clippath-10">
      <rect class="cls-42" x="5.3" y=".42" width="28.43" height="26.7"/>
    </clipPath>
    <filter id="luminosity-noclip-7" x="-6.9" y="-12.57" width="52.83" height="52.68" color-interpolation-filters="sRGB" filterUnits="userSpaceOnUse">
      <feFlood flood-color="#fff" result="bg"/>
      <feBlend in="SourceGraphic" in2="bg"/>
    </filter>
    <linearGradient id="Unbenannter_Verlauf_8" data-name="Unbenannter Verlauf 8" x1="-255.55" y1="444.75" x2="-254.55" y2="444.75" gradientTransform="translate(-2069.95 3659.1) rotate(-180) scale(8.2)" gradientUnits="userSpaceOnUse">
      <stop offset="0" stop-color="#fff"/>
      <stop offset=".1" stop-color="#fff"/>
      <stop offset=".58" stop-color="#000"/>
      <stop offset=".94" stop-color="#000"/>
      <stop offset="1" stop-color="#000"/>
    </linearGradient>
    <mask id="mask-6" x="-6.9" y="-12.57" width="52.83" height="52.68" maskUnits="userSpaceOnUse">
      <g class="cls-8">
        <rect class="cls-35" x=".58" y="-5.43" width="37.88" height="38.39" transform="translate(-2.66 22.64) rotate(-57)"/>
      </g>
    </mask>
    <clipPath id="clippath-11">
      <rect class="cls-42" x="5.3" y=".42" width="28.43" height="26.7"/>
    </clipPath>
    <filter id="luminosity-noclip-8" x="5.33" y="-1.6" width="44.2" height="45.5" color-interpolation-filters="sRGB" filterUnits="userSpaceOnUse">
      <feFlood flood-color="#fff" result="bg"/>
      <feBlend in="SourceGraphic" in2="bg"/>
    </filter>
    <linearGradient id="Unbenannter_Verlauf_9" data-name="Unbenannter Verlauf 9" x1="-229.99" y1="401.24" x2="-228.99" y2="401.24" gradientTransform="translate(3675.06 2103.75) rotate(90) scale(9.09)" gradientUnits="userSpaceOnUse">
      <stop offset="0" stop-color="#fff"/>
      <stop offset=".02" stop-color="#fff"/>
      <stop offset=".63" stop-color="#000"/>
      <stop offset=".95" stop-color="#000"/>
      <stop offset="1" stop-color="#000"/>
    </linearGradient>
    <mask id="mask-7" x="5.33" y="-1.6" width="44.2" height="45.5" maskUnits="userSpaceOnUse">
      <g class="cls-36">
        <rect class="cls-61" x="11.22" y="3.6" width="32.4" height="35.1" transform="translate(-6.37 13.57) rotate(-25)"/>
      </g>
    </mask>
    <clipPath id="clippath-12">
      <rect class="cls-42" x="11.05" y="6.87" width="28.68" height="28.68"/>
    </clipPath>
    <clipPath id="clippath-13">
      <rect class="cls-42" x="18.59" y="10.4" width="28.03" height="31.53"/>
    </clipPath>
    <filter id="luminosity-noclip-9" x="7.25" y=".32" width="50.71" height="51.69" color-interpolation-filters="sRGB" filterUnits="userSpaceOnUse">
      <feFlood flood-color="#fff" result="bg"/>
      <feBlend in="SourceGraphic" in2="bg"/>
    </filter>
    <linearGradient id="Unbenannter_Verlauf_10" data-name="Unbenannter Verlauf 10" x1="-195.95" y1="392.69" x2="-194.95" y2="392.69" gradientTransform="translate(3612.06 1804.83) rotate(90) scale(9.12)" gradientUnits="userSpaceOnUse">
      <stop offset="0" stop-color="#fff"/>
      <stop offset="0" stop-color="#fff"/>
      <stop offset=".58" stop-color="#000"/>
      <stop offset=".94" stop-color="#000"/>
      <stop offset="1" stop-color="#000"/>
    </linearGradient>
    <mask id="mask-8" x="7.25" y=".32" width="50.71" height="51.69" maskUnits="userSpaceOnUse">
      <g class="cls-33">
        <rect class="cls-64" x="12.62" y="7.1" width="39.97" height="38.12" transform="translate(-4.22 45.96) rotate(-67)"/>
      </g>
    </mask>
    <clipPath id="clippath-14">
      <rect class="cls-42" x="18.59" y="10.4" width="28.03" height="31.53"/>
    </clipPath>
    <filter id="luminosity-noclip-10" x="2.06" y="-4.22" width="50.73" height="50.74" color-interpolation-filters="sRGB" filterUnits="userSpaceOnUse">
      <feFlood flood-color="#fff" result="bg"/>
      <feBlend in="SourceGraphic" in2="bg"/>
    </filter>
    <linearGradient id="Unbenannter_Verlauf_11" data-name="Unbenannter Verlauf 11" x1="-216.19" y1="380.42" x2="-215.19" y2="380.42" gradientTransform="translate(2745.92 1561.57) rotate(90) scale(7.15)" gradientUnits="userSpaceOnUse">
      <stop offset="0" stop-color="#fff"/>
      <stop offset=".04" stop-color="#fff"/>
      <stop offset=".64" stop-color="#000"/>
      <stop offset=".95" stop-color="#000"/>
      <stop offset="1" stop-color="#000"/>
    </linearGradient>
    <mask id="mask-9" x="2.06" y="-4.22" width="50.73" height="50.74" maskUnits="userSpaceOnUse">
      <g class="cls-62">
        <rect class="cls-63" x="9.41" y="3.27" width="36.03" height="35.76" transform="translate(-6.74 26.78) rotate(-47)"/>
      </g>
    </mask>
    <clipPath id="clippath-15">
      <rect class="cls-42" x="14.05" y="8.89" width="27.63" height="29.69"/>
    </clipPath>
    <clipPath id="clippath-16">
      <rect class="cls-42" x="11.31" y="3.01" width="26.96" height="24.72"/>
    </clipPath>
    <filter id="luminosity-noclip-11" x="-1.04" y="-10.46" width="51.66" height="51.66" color-interpolation-filters="sRGB" filterUnits="userSpaceOnUse">
      <feFlood flood-color="#fff" result="bg"/>
      <feBlend in="SourceGraphic" in2="bg"/>
    </filter>
    <linearGradient id="Unbenannter_Verlauf_12-2" data-name="Unbenannter Verlauf 12" x1="-267.22" y1="460.27" x2="-266.22" y2="460.27" gradientTransform="translate(-1703.04 2994.18) rotate(-180) scale(6.47)" xlink:href="#Unbenannter_Verlauf_12"/>
    <mask id="mask-10" x="-1.04" y="-10.46" width="51.66" height="51.66" maskUnits="userSpaceOnUse">
      <g class="cls-2">
        <rect class="cls-45" x="6.51" y="-2.89" width="36.56" height="36.5" transform="translate(-3.72 21.53) rotate(-44)"/>
      </g>
    </mask>
    <clipPath id="clippath-17">
      <rect class="cls-42" x="11.31" y="3.01" width="26.96" height="24.72"/>
    </clipPath>
    <filter id="luminosity-noclip-12" x="4.26" y="-36.7" width="184.19" height="127.69" color-interpolation-filters="sRGB" filterUnits="userSpaceOnUse">
      <feFlood flood-color="#fff" result="bg"/>
      <feBlend in="SourceGraphic" in2="bg"/>
    </filter>
    <linearGradient id="Unbenannter_Verlauf_13" data-name="Unbenannter Verlauf 13" x1="-169.23" y1="405.01" x2="-168.23" y2="405.01" gradientTransform="translate(4168.27 -1696.73) rotate(-90) scale(10.05 -10.05)" gradientUnits="userSpaceOnUse">
      <stop offset="0" stop-color="#000"/>
      <stop offset=".47" stop-color="#000"/>
      <stop offset=".9" stop-color="#fff"/>
      <stop offset=".99" stop-color="#fff"/>
      <stop offset="1" stop-color="#fff"/>
    </linearGradient>
    <mask id="mask-11" x="4.26" y="-36.7" width="184.19" height="127.69" maskUnits="userSpaceOnUse">
      <g class="cls-32">
        <rect class="cls-29" x="12.71" y="-16.54" width="167.28" height="87.37" transform="translate(-3.74 25.86) rotate(-15)"/>
      </g>
    </mask>
  </defs>
  <g>
    <path class="cls-6" d="m68.04,26.44c0-.53-.22-.95-.67-1.26-.44-.31-1-.59-1.65-.85-.66-.26-1.37-.51-2.14-.77-.77-.26-1.48-.6-2.14-1.03-.66-.43-1.21-.97-1.65-1.62-.44-.65-.67-1.5-.67-2.54,0-.89.16-1.67.47-2.35.32-.67.76-1.23,1.33-1.67.57-.44,1.27-.76,2.08-.99.81-.22,1.71-.33,2.68-.33,1.13,0,2.2.1,3.22.29,1.02.2,1.85.47,2.5.83l-1.21,3.18c-.21-.12-.47-.24-.78-.37-.32-.13-.68-.24-1.09-.33-.41-.09-.85-.17-1.31-.23-.46-.06-.93-.09-1.41-.09-.85,0-1.52.15-1.99.45-.47.3-.71.71-.71,1.24s.22.95.67,1.27,1,.61,1.65.87c.66.27,1.37.53,2.14.79.77.27,1.48.61,2.14,1.03s1.21.95,1.65,1.58c.44.63.67,1.45.67,2.44s-.17,1.85-.51,2.56c-.34.72-.83,1.31-1.45,1.78-.62.47-1.37.82-2.24,1.04-.87.22-1.83.33-2.87.33-.7,0-1.36-.04-1.99-.12-.62-.08-1.2-.17-1.73-.28-.53-.11-1-.23-1.4-.36-.4-.13-.72-.25-.96-.37l1.26-3.21c.19.1.45.21.78.33.33.12.71.24,1.12.35.41.11.85.2,1.32.27.47.07.94.1,1.42.1,1.13,0,1.99-.16,2.58-.49.59-.33.89-.83.89-1.51Z"/>
    <path class="cls-6" d="m89.46,16.75h-5.69v14.62h-3.8v-14.62h-5.69v-3.33h15.19v3.33Z"/>
    <path class="cls-6" d="m92.72,13.59c.41-.07.86-.13,1.35-.19.49-.06.98-.11,1.48-.14s.98-.06,1.45-.08.9-.03,1.3-.03c.91,0,1.8.08,2.68.23.88.15,1.67.42,2.36.79s1.25.89,1.68,1.55c.43.66.64,1.48.64,2.48,0,1.47-.36,2.68-1.09,3.63-.73.95-1.73,1.59-3.01,1.94l1.36.8,4.49,6.8h-4.41l-4.46-6.95-2-.31v7.26h-3.8V13.59Zm5.82,2.9c-.39,0-.77,0-1.14.01-.37,0-.66.04-.88.09v4.95h1.62c1.08,0,1.93-.21,2.55-.62s.94-1.12.94-2.13c0-.75-.27-1.33-.79-1.72-.53-.39-1.29-.59-2.28-.59Z"/>
    <path class="cls-6" d="m109.13,22.39c0-1.47.19-2.79.56-3.95.38-1.16.92-2.14,1.63-2.94.71-.79,1.58-1.4,2.6-1.82s2.19-.63,3.49-.63c1.38,0,2.59.23,3.63.68,1.03.45,1.9,1.09,2.59,1.91.69.82,1.21,1.8,1.56,2.95.35,1.15.53,2.41.53,3.8,0,1.47-.19,2.79-.58,3.95s-.94,2.14-1.65,2.94c-.72.8-1.59,1.4-2.62,1.82s-2.18.63-3.46.63c-1.38,0-2.59-.23-3.63-.68-1.04-.45-1.9-1.09-2.59-1.91-.69-.82-1.21-1.8-1.55-2.95-.34-1.15-.51-2.41-.51-3.8Zm4.03,0c0,.89.08,1.7.26,2.44.17.74.43,1.37.77,1.9.34.53.78.94,1.32,1.23.54.29,1.18.44,1.91.44,1.35,0,2.4-.46,3.16-1.38.75-.92,1.13-2.46,1.13-4.62,0-.85-.08-1.65-.23-2.39-.15-.73-.41-1.37-.76-1.91-.35-.54-.79-.96-1.33-1.26-.54-.3-1.19-.45-1.96-.45-1.33,0-2.38.48-3.13,1.44-.75.96-1.13,2.48-1.13,4.57Z"/>
    <path class="cls-6" d="m142.84,17.64c0,.45-.06.88-.19,1.32-.13.44-.33.84-.6,1.22-.27.38-.63.7-1.08.97-.45.27-.98.47-1.62.59v.15c.56.05,1.09.18,1.59.38s.93.49,1.3.86c.37.37.66.81.87,1.33.21.52.32,1.13.32,1.83,0,.94-.22,1.74-.65,2.41-.44.67-1,1.21-1.71,1.64-.7.43-1.5.74-2.41.95-.91.21-1.83.31-2.77.31h-1.22c-.5,0-1.04-.01-1.62-.04-.57-.03-1.15-.06-1.74-.12-.59-.05-1.12-.13-1.6-.23V13.54c.36-.05.76-.1,1.22-.15.45-.05.94-.09,1.46-.13.52-.03,1.06-.06,1.6-.08.55-.02,1.09-.03,1.64-.03.89,0,1.76.06,2.62.19.86.13,1.62.36,2.31.69.68.33,1.24.79,1.65,1.37s.63,1.33.63,2.23Zm-8.21,3.26c.26,0,.56,0,.91-.01s.65-.03.89-.06c.72-.22,1.32-.53,1.82-.91s.74-.91.74-1.58c0-.44-.09-.8-.28-1.08s-.44-.49-.76-.64c-.32-.15-.67-.26-1.06-.31-.39-.05-.79-.08-1.21-.08-.5,0-.95,0-1.36.03-.41.02-.74.04-.97.08v4.57h1.28Zm1.21,7.64c.48,0,.94-.04,1.37-.13.44-.08.82-.23,1.15-.42.33-.2.6-.44.79-.74.2-.3.29-.67.29-1.12,0-.55-.12-.98-.36-1.31-.24-.32-.55-.57-.94-.73-.38-.16-.81-.27-1.28-.31-.47-.04-.95-.06-1.42-.06h-2.1v4.67c.1.03.25.06.45.08.2.02.42.03.65.04.24,0,.48.02.73.03.25,0,.47.01.65.01Z"/>
    <path class="cls-6" d="m147.43,13.41h11.57v3.33h-7.77v3.9h7.05v3.33h-7.05v4.05h7.9v3.33h-11.7V13.41Z"/>
    <path class="cls-6" d="m175.57,31.37h-12.36V13.41h3.8v14.62h8.57v3.33Z"/>
  </g>
  <g>
    <path class="cls-6" d="m110.65,3.84c.21-.04.44-.08.69-.09.25-.02.49-.03.73-.03.25,0,.51.02.78.07s.5.13.72.25c.21.12.39.29.53.5.14.21.21.49.21.82,0,.32-.06.58-.19.81s-.29.4-.5.54c-.21.14-.45.24-.71.31-.27.07-.54.1-.83.1-.03,0-.08,0-.14,0-.06,0-.13,0-.19,0-.07,0-.13,0-.2-.01s-.11,0-.14-.01v1.96h-.75V3.84Zm1.44.54c-.13,0-.27,0-.39,0-.13,0-.23.02-.3.04v1.99s.07.02.12.02c.06,0,.12,0,.18.01s.12,0,.18,0h.13c.18,0,.36-.01.53-.04s.33-.08.48-.16c.14-.08.26-.19.35-.33.09-.14.13-.33.13-.55,0-.2-.04-.36-.13-.49-.09-.13-.2-.23-.33-.3-.14-.07-.29-.12-.45-.15-.17-.03-.33-.04-.5-.04Z"/>
    <path class="cls-6" d="m118.19,8.71c-.17.13-.39.23-.65.31-.26.08-.54.12-.85.12-.33,0-.62-.05-.86-.15-.24-.1-.44-.24-.6-.42-.16-.18-.27-.4-.34-.65s-.11-.54-.11-.85c0-.67.17-1.19.5-1.55.33-.36.81-.54,1.42-.54.19,0,.39.02.58.06.19.04.37.12.52.24.16.12.28.28.38.48s.15.47.15.8c0,.08,0,.17,0,.28,0,.11-.01.21-.03.31h-2.81c.01.46.12.81.33,1.04.21.23.57.35,1.07.35.21,0,.41-.04.6-.11s.34-.16.44-.26l.26.53Zm-.52-2.05c0-.4-.07-.68-.24-.85-.17-.17-.41-.25-.72-.25-.35,0-.63.08-.83.25-.21.17-.33.45-.36.85h2.16Z"/>
    <path class="cls-6" d="m118.99,5.1h.67v-.79l.69-.18v.97h1.19v.58h-1.19v2.01c0,.32.04.54.12.67s.22.19.41.19c.12,0,.24-.01.34-.04s.22-.06.35-.11l.16.49c-.16.07-.33.13-.51.18-.18.05-.38.07-.59.07-.35,0-.6-.1-.75-.29-.15-.19-.22-.5-.22-.93v-2.24h-.67v-.58Z"/>
    <path class="cls-6" d="m125.64,8.71c-.17.13-.39.23-.65.31-.26.08-.54.12-.85.12-.33,0-.62-.05-.86-.15s-.44-.24-.6-.42c-.16-.18-.27-.4-.35-.65s-.11-.54-.11-.85c0-.67.17-1.19.5-1.55.33-.36.81-.54,1.42-.54.2,0,.39.02.58.06.2.04.37.12.53.24.15.12.28.28.38.48.1.21.15.47.15.8,0,.08,0,.17,0,.28,0,.11-.02.21-.03.31h-2.81c0,.46.12.81.33,1.04.21.23.57.35,1.07.35.21,0,.41-.04.6-.11.19-.07.34-.16.44-.26l.26.53Zm-.52-2.05c0-.4-.07-.68-.24-.85s-.41-.25-.72-.25c-.35,0-.63.08-.83.25s-.33.45-.36.85h2.16Z"/>
    <path class="cls-6" d="m128.98,5.75c-.08-.02-.17-.04-.25-.06-.08-.02-.15-.03-.22-.03-.26,0-.47.07-.62.2-.15.13-.24.3-.27.51v2.66h-.69v-3.94h.48l.13.53h.07c.12-.2.25-.35.4-.45s.34-.16.57-.16c.07,0,.15,0,.25.02.1.01.19.03.29.06l-.13.66Z"/>
    <path class="cls-6" d="m132.23,7.62c0-.2.04-.39.11-.57.08-.18.18-.35.3-.5s.28-.3.44-.43c.17-.13.34-.24.53-.34-.13-.17-.24-.35-.33-.53-.09-.18-.14-.37-.14-.57,0-.12.02-.24.07-.36.04-.12.12-.22.21-.31s.22-.17.38-.23c.15-.06.34-.09.56-.09s.42.03.58.08c.16.05.28.13.38.21.09.09.16.19.2.3s.06.22.06.33c0,.21-.09.42-.26.64-.17.23-.45.44-.84.63.19.29.41.58.67.87s.51.56.78.81c.06-.06.12-.14.18-.23.06-.09.12-.19.18-.29.06-.11.11-.21.16-.32.05-.11.09-.21.13-.31l.54.28c-.03.08-.08.18-.14.3-.06.12-.13.23-.2.35-.07.12-.15.23-.22.34s-.15.2-.21.27c.11.09.21.18.3.24s.17.13.25.18c.08.05.15.09.22.13s.14.08.22.11l-.42.51c-.14-.07-.29-.16-.46-.28-.17-.12-.34-.25-.51-.41-.1.09-.21.18-.33.26-.12.08-.25.16-.4.22-.15.06-.31.11-.49.15s-.38.06-.59.06c-.26,0-.5-.03-.74-.1-.23-.07-.43-.17-.61-.3s-.31-.29-.42-.48-.15-.4-.15-.64Zm3.29.4c-.15-.14-.3-.29-.46-.46-.15-.17-.3-.33-.43-.49-.14-.16-.26-.32-.38-.47-.12-.15-.22-.28-.3-.4-.3.2-.54.41-.73.63-.19.22-.28.47-.28.77,0,.15.04.28.1.4.07.12.17.22.28.3.12.08.26.15.41.19.16.04.32.06.5.06.13,0,.26-.02.39-.05.13-.03.25-.07.36-.12.11-.05.21-.11.3-.17.09-.06.17-.13.23-.2Zm-1.67-3.33c0,.14.03.28.1.42.06.14.15.28.26.42.28-.16.48-.3.59-.44.11-.13.17-.24.17-.34,0-.16-.04-.29-.12-.38-.08-.09-.23-.14-.44-.14-.19,0-.33.04-.42.12-.09.08-.13.19-.13.33Z"/>
    <path class="cls-6" d="m144.24,6.69h-2.66v2.35h-.75V3.79h.75v2.24h2.66v-2.24h.75v5.25h-.75v-2.35Z"/>
    <path class="cls-6" d="m146.27,5.35c.45-.21,1.01-.32,1.67-.32.3,0,.54.04.72.12.18.08.32.18.42.3.1.12.17.25.2.4.03.15.05.29.05.44,0,.27-.01.55-.03.83-.02.28-.03.58-.03.9,0,.19,0,.37.03.55.02.18.05.34.09.49h-.5l-.19-.6h-.08c-.05.08-.12.15-.2.23-.08.08-.18.15-.29.21-.11.06-.24.11-.38.15s-.31.06-.49.06-.36-.03-.51-.08c-.16-.05-.29-.13-.4-.22-.11-.09-.2-.21-.27-.35-.06-.14-.1-.29-.1-.46,0-.23.05-.42.15-.58s.22-.3.38-.41c.16-.1.33-.18.53-.23.2-.05.39-.08.59-.08.16,0,.29,0,.39,0,.11,0,.2.01.27.02s.13.01.18.02.09.01.13.02c.01-.08.02-.14.02-.19,0-.06,0-.12,0-.21,0-.14-.01-.26-.04-.35-.03-.1-.08-.17-.15-.23-.07-.06-.16-.1-.27-.12-.12-.03-.25-.04-.42-.04-.09,0-.2,0-.32.02-.12.02-.23.04-.34.06-.12.03-.23.06-.34.1-.11.04-.21.08-.3.13l-.19-.58Zm2.35,1.91s-.08-.01-.13-.02c-.04,0-.1-.02-.17-.02-.07,0-.15,0-.24-.01s-.21,0-.34,0c-.31,0-.55.05-.73.17-.18.11-.27.3-.27.56,0,.2.07.35.21.45.14.1.32.15.55.15.16,0,.31-.02.44-.06.13-.04.24-.09.33-.16s.17-.13.22-.21c.06-.08.1-.15.13-.23v-.6Z"/>
    <path class="cls-6" d="m153.48,9.04v-2.17c0-.42-.07-.74-.2-.95-.13-.21-.38-.31-.72-.31-.3,0-.56.08-.76.24-.2.16-.34.36-.42.6v2.59h-.69v-3.94h.48l.13.53h.07c.14-.18.33-.33.57-.45s.51-.18.84-.18c.23,0,.43.03.61.08.17.05.32.15.44.28.12.13.21.31.27.53.06.22.09.5.09.84v2.32h-.69Z"/>
    <path class="cls-6" d="m158.29,9.04v-2.17c0-.42-.07-.74-.2-.95-.13-.21-.38-.31-.72-.31-.3,0-.56.08-.76.24-.2.16-.34.36-.42.6v2.59h-.69v-3.94h.48l.13.53h.07c.14-.18.33-.33.57-.45s.51-.18.84-.18c.23,0,.43.03.61.08.17.05.32.15.44.28.12.13.21.31.27.53.06.22.09.5.09.84v2.32h-.69Z"/>
    <path class="cls-6" d="m163.5,8.71c-.17.13-.39.23-.65.31-.26.08-.54.12-.85.12-.33,0-.62-.05-.86-.15-.24-.1-.44-.24-.6-.42-.16-.18-.27-.4-.34-.65s-.11-.54-.11-.85c0-.67.17-1.19.5-1.55.33-.36.81-.54,1.42-.54.19,0,.39.02.58.06.19.04.37.12.52.24.16.12.28.28.38.48s.15.47.15.8c0,.08,0,.17,0,.28,0,.11-.01.21-.03.31h-2.81c.01.46.12.81.33,1.04.21.23.57.35,1.07.35.21,0,.41-.04.6-.11s.34-.16.44-.26l.26.53Zm-.52-2.05c0-.4-.07-.68-.24-.85-.17-.17-.41-.25-.72-.25-.35,0-.63.08-.83.25s-.33.45-.36.85h2.16Z"/>
    <path class="cls-6" d="m166.77,7.93c0-.1-.02-.18-.07-.25-.05-.07-.11-.12-.19-.17-.08-.05-.17-.09-.28-.12-.11-.03-.21-.07-.33-.1-.15-.04-.29-.08-.44-.13-.15-.05-.28-.11-.4-.19-.12-.08-.21-.19-.29-.32-.08-.13-.11-.29-.11-.49,0-.39.12-.68.35-.87.23-.19.56-.29.98-.29.32,0,.58.03.79.09s.4.12.56.2l-.17.58c-.13-.07-.3-.13-.48-.19s-.39-.09-.62-.09c-.25,0-.43.04-.55.12-.12.08-.18.22-.18.43,0,.08.02.16.07.21s.11.11.18.15c.08.04.16.08.26.11.1.03.2.06.31.09.15.04.3.09.45.14.15.05.29.12.41.21s.23.2.3.33c.08.13.12.3.12.51,0,.37-.12.67-.38.9s-.62.35-1.12.35c-.32,0-.6-.03-.84-.1-.24-.07-.44-.14-.6-.23l.2-.6c.14.08.32.15.54.22s.44.11.67.11c.24,0,.45-.04.6-.13.16-.09.24-.25.24-.49Z"/>
  </g>
  <path class="cls-1" d="m50.47,22.27c0-5.37-2.46-10.16-6.32-13.31l-1.38,3.64c-.39-.22-.87-.46-1.47-.7-.59-.24-1.28-.45-2.04-.62-.77-.18-1.59-.32-2.45-.43-.86-.11-1.75-.17-2.64-.17-1.6,0-2.85.28-3.73.84-.88.56-1.32,1.34-1.32,2.33s.42,1.79,1.25,2.38c.83.59,1.87,1.14,3.1,1.64,1.23.5,2.57.99,4.02,1.49,1.44.5,2.78,1.14,4.02,1.92,1.23.79,2.27,1.77,3.1,2.96.83,1.19,1.25,2.71,1.25,4.57s-.32,3.46-.96,4.81c-.64,1.35-1.55,2.46-2.72,3.34-.05.03-.1.07-.15.1,5.06-2.99,8.45-8.49,8.45-14.8"/>
  <g class="cls-41">
    <path class="cls-30" d="m29.67,10.87h3.18c.59,0,1.08.48,1.08,1.08v3.19c0,.6-.48,1.08-1.08,1.08h-3.17c-.6,0-1.08-.48-1.08-1.08v-3.19c0-.6.48-1.08,1.08-1.08Z" transform="translate(-2.44 8.56) rotate(-15.01)"/>
    <rect class="cls-30" x="34.13" y="9.38" width="5.33" height="5.34" rx="1.08" ry="1.08" transform="translate(-1.87 9.94) rotate(-15.01)"/>
    <path class="cls-30" d="m40.75,7.9h3.18c.59,0,1.08.48,1.08,1.08v3.19c0,.6-.48,1.08-1.08,1.08h-3.18c-.6,0-1.08-.48-1.08-1.08v-3.18c0-.6.48-1.08,1.08-1.08Z" transform="translate(-1.29 11.33) rotate(-15.01)"/>
    <path class="cls-30" d="m46.3,6.41h3.18c.59,0,1.08.48,1.08,1.08v3.19c0,.6-.48,1.08-1.08,1.08h-3.17c-.6,0-1.08-.48-1.08-1.08v-3.18c0-.6.48-1.08,1.08-1.08Z" transform="translate(-.72 12.71) rotate(-15.01)"/>
    <path class="cls-30" d="m31.16,16.42h3.17c.6,0,1.08.48,1.08,1.08v3.18c0,.6-.48,1.08-1.08,1.08h-3.17c-.6,0-1.08-.48-1.08-1.08v-3.18c0-.6.48-1.08,1.08-1.08Z" transform="translate(-3.83 9.13) rotate(-15.01)"/>
    <path class="cls-30" d="m36.7,14.93h3.18c.59,0,1.08.48,1.08,1.08v3.19c0,.6-.48,1.08-1.08,1.08h-3.17c-.6,0-1.08-.48-1.08-1.08v-3.18c0-.6.48-1.08,1.08-1.08Z" transform="translate(-3.25 10.52) rotate(-15.01)"/>
    <path class="cls-30" d="m42.24,13.45h3.17c.6,0,1.08.48,1.08,1.08v3.18c0,.6-.48,1.08-1.08,1.08h-3.17c-.6,0-1.08-.48-1.08-1.08v-3.18c0-.6.48-1.08,1.08-1.08Z" transform="translate(-2.68 11.9) rotate(-15.01)"/>
    <path class="cls-30" d="m47.78,11.96h3.18c.59,0,1.08.48,1.08,1.08v3.19c0,.6-.48,1.08-1.08,1.08h-3.17c-.6,0-1.08-.48-1.08-1.08v-3.19c0-.6.48-1.08,1.08-1.08Z" transform="translate(-2.11 13.29) rotate(-15.01)"/>
    <path class="cls-30" d="m38.19,20.48h3.18c.59,0,1.08.48,1.08,1.08v3.18c0,.6-.48,1.08-1.08,1.08h-3.18c-.6,0-1.08-.48-1.08-1.08v-3.18c0-.6.48-1.08,1.08-1.08Z" transform="translate(-4.64 11.09) rotate(-15.01)"/>
    <path class="cls-30" d="m43.73,19h3.18c.59,0,1.08.48,1.08,1.08v3.18c0,.6-.48,1.08-1.08,1.08h-3.18c-.6,0-1.08-.48-1.08-1.08v-3.18c0-.6.48-1.08,1.08-1.08Z" transform="translate(-4.07 12.48) rotate(-15.01)"/>
    <path class="cls-30" d="m49.27,17.51h3.18c.59,0,1.08.48,1.08,1.08v3.18c0,.6-.48,1.08-1.08,1.08h-3.18c-.6,0-1.08-.48-1.08-1.08v-3.18c0-.6.48-1.08,1.08-1.08Z" transform="translate(-3.49 13.86) rotate(-15.01)"/>
    <path class="cls-30" d="m41.16,31.59h3.18c.59,0,1.08.48,1.08,1.08v3.18c0,.6-.48,1.08-1.08,1.08h-3.17c-.6,0-1.08-.48-1.08-1.08v-3.18c0-.6.48-1.08,1.08-1.08Z" transform="translate(-7.41 12.24) rotate(-15.01)"/>
    <path class="cls-30" d="m45.22,24.55h3.18c.59,0,1.08.48,1.08,1.08v3.18c0,.6-.48,1.08-1.08,1.08h-3.18c-.6,0-1.08-.48-1.08-1.08v-3.18c0-.6.48-1.08,1.08-1.08Z" transform="translate(-5.45 13.05) rotate(-15.01)"/>
    <path class="cls-30" d="m46.7,30.1h3.18c.59,0,1.08.48,1.08,1.08v3.18c0,.6-.48,1.08-1.08,1.08h-3.17c-.6,0-1.08-.48-1.08-1.08v-3.18c0-.6.48-1.08,1.08-1.08Z" transform="translate(-6.84 13.63) rotate(-15.01)"/>
    <path class="cls-30" d="m50.76,23.06h3.18c.59,0,1.08.48,1.08,1.08v3.18c0,.6-.48,1.08-1.08,1.08h-3.18c-.6,0-1.08-.48-1.08-1.08v-3.18c0-.6.48-1.08,1.08-1.08Z" transform="translate(-4.88 14.44) rotate(-15.01)"/>
  </g>
  <g class="cls-24">
    <rect class="cls-48" x="16.12" y="7.06" width="22.61" height="28.18"/>
  </g>
  <g class="cls-14">
    <g class="cls-10">
      <g class="cls-44">
        <g class="cls-51">
          <g class="cls-25">
            <path class="cls-3" d="m25.34,7.05c-11.79,8.23-4.13,24.57,13.63,23.51,6.02-9.03-5.45-24.57-13.63-23.51"/>
          </g>
        </g>
      </g>
    </g>
    <g class="cls-50">
      <g class="cls-54">
        <path class="cls-23" d="m24.5,26.42c-1.61.44-8.39,2.53-10.37,6.93-1.74,3.85,14.53,8.24,14.53,8.24l2.53-11.78c-2.65-.73-4.9-1.91-6.68-3.39"/>
      </g>
    </g>
    <g class="cls-13">
      <g class="cls-18">
        <path class="cls-23" d="m21.08,22.3s-8.87-.46-10.59,3.08c-2.22,4.56,5.76,7.04,5.76,7.04l8.56-5.75c-1.6-1.26-2.86-2.75-3.73-4.37"/>
      </g>
    </g>
    <g class="cls-20">
      <g class="cls-21">
        <path class="cls-23" d="m19.73,17.76s-6.7-2.55-9.86-.7c-2.83,1.66,3.5,9.03,3.5,9.03l7.74-3.73c-.79-1.46-1.26-3.02-1.38-4.6"/>
      </g>
    </g>
    <g class="cls-39">
      <g class="cls-47">
        <path class="cls-23" d="m20.05,14.18s-2.1-1.82-4.09-1.96c-2.27-.16-2.28,7.49-2.28,7.49l6.18-.95c-.26-1.52-.21-3.07.19-4.58"/>
      </g>
    </g>
    <g class="cls-26">
      <g class="cls-40">
        <path class="cls-23" d="m20.05,14.18s4.15-2.22,6.83-.98c2.06.95-1.37,4.96-1.37,4.96l-5.65.6c-.26-1.52-.21-3.07.19-4.58"/>
      </g>
    </g>
    <g class="cls-27">
      <g class="cls-57">
        <g class="cls-43">
          <g class="cls-4">
            <path class="cls-23" d="m21.3,11.26s-1.51-3.56-5.49-2.31c-4.8,1.51-1.69,2.19.4,3.08,1.77.75,3.84,2.15,3.84,2.15.26-1,.68-1.98,1.25-2.92"/>
          </g>
        </g>
      </g>
    </g>
    <g class="cls-55">
      <g class="cls-31">
        <path class="cls-23" d="m19.73,17.76s3.79-2.53,5.78-1.5c1.98,1.03,2.55,2.91,2.55,2.91l-6.94,3.2c-.79-1.46-1.26-3.02-1.38-4.6"/>
      </g>
    </g>
    <g class="cls-19">
      <g class="cls-15">
        <g class="cls-37">
          <g class="cls-52">
            <path class="cls-23" d="m24.5,26.42s2.34-5.29,6.24-5.6c2.75-.22,4.34,1.37,4.34,1.37l-3.9,7.62c-2.65-.73-4.9-1.91-6.68-3.39"/>
          </g>
        </g>
      </g>
    </g>
    <g class="cls-22">
      <g class="cls-16">
        <path class="cls-23" d="m21.08,22.3s3.9-3.69,6.94-3c3.05.69,2.25,1.7,2.25,1.7l-5.46,5.67c-1.6-1.26-2.86-2.75-3.73-4.37"/>
      </g>
    </g>
    <g class="cls-17">
      <g class="cls-5">
        <g class="cls-7">
          <g class="cls-53">
            <path class="cls-23" d="m21.3,11.26s1.78-.85,3.18-.23c.89.39,3.54,1.68.78,3.12-2.06.37-5.21.03-5.21.03.26-1,.68-1.98,1.25-2.92"/>
          </g>
        </g>
      </g>
    </g>
  </g>
  <g class="cls-59">
    <path class="cls-1" d="m39.73,12.71c-2.39-.71-9.7-2.08-9.7,1.35,0,1.95,3.23,3.07,3.94,3.35,7.54,2.95,13.9-2.28,5.76-4.69"/>
  </g>
</svg>