<?xml version="1.0" encoding="utf-8"?>
<!-- Generator: Adobe Illustrator 27.3.1, SVG Export Plug-In . SVG Version: 6.00 Build 0)  -->
<svg version="1.1" id="Ebene_1" xmlns="http://www.w3.org/2000/svg" xmlns:xlink="http://www.w3.org/1999/xlink" x="0px" y="0px"
	 viewBox="0 0 1000 1000" style="enable-background:new 0 0 1000 1000;" xml:space="preserve">
<style type="text/css">
	.st0{stroke:#000000;stroke-width:14.8672;stroke-miterlimit:10;}
	.st1{fill:none;stroke:#000000;stroke-width:14.8672;stroke-miterlimit:10;}
	.st2{fill:none;stroke:#000000;stroke-width:24.7787;stroke-miterlimit:10;}
	.st3{fill:none;stroke:#000000;stroke-width:29.7344;stroke-miterlimit:10;}
</style>
<g>
	<circle class="st0" cx="183.98" cy="667.61" r="63.87"/>
	<circle class="st0" cx="352.57" cy="667.61" r="63.87"/>
	<line class="st1" x1="183.98" y1="731.48" x2="352.57" y2="731.48"/>
	<line class="st1" x1="178.92" y1="603.74" x2="352.57" y2="603.74"/>
</g>
<path class="st0" d="M547.96,594.5c13.22,0,441,1.93,441,1.93L966.94,488.5l-363.23,1.96L547.96,594.5z"/>
<path class="st1" d="M429.62,585.29"/>
<path class="st1" d="M838.91,489.25"/>
<path class="st2" d="M716,357.08c0,0,60.28,1.61,129.18,0.01c68.9-1.59,64.59,132.15,64.59,132.15H716V357.08z"/>
<g>
	<polyline class="st2" points="11.04,381.95 11.04,590.09 550.66,590.09 550.66,381.95 	"/>
	<line class="st2" x1="139.09" y1="590.09" x2="139.09" y2="381.95"/>
	<line class="st2" x1="270.97" y1="588.16" x2="270.97" y2="380.02"/>
	<line class="st2" x1="403.13" y1="588.16" x2="403.13" y2="380.02"/>
</g>
<g>
	<polyline class="st3" points="280.85,323.58 280.85,288.34 325.45,243.74 367.71,286 367.71,323.58 	"/>
	<g>
		<polyline class="st3" points="324.28,248.28 324.28,196.93 424.04,93 551.6,93 633.4,398.46 633.4,486.98 		"/>
	</g>
</g>
<path class="st1" d="M457.12,253.66"/>
<g>
	<circle class="st0" cx="718.79" cy="667.61" r="63.87"/>
	<circle class="st0" cx="887.39" cy="667.61" r="63.87"/>
	<line class="st1" x1="718.79" y1="731.48" x2="887.39" y2="731.48"/>
	<line class="st1" x1="713.73" y1="603.74" x2="887.39" y2="603.74"/>
</g>
</svg>
